<svg width="110" height="100" viewBox="0 0 110 100" fill="none" xmlns="http://www.w3.org/2000/svg">
<g filter="url(#filter0_d)">
<g filter="url(#filter1_ii)">
<circle cx="81" cy="29" r="18" stroke="url(#paint0_linear)" stroke-width="2"/>
</g>
<path fill-rule="evenodd" clip-rule="evenodd" d="M81.0001 43.5295C89.0245 43.5295 95.5295 37.0245 95.5295 29.0001C95.5295 20.9757 89.0245 14.4707 81.0001 14.4707C72.9757 14.4707 66.4707 20.9757 66.4707 29.0001C66.4707 37.0245 72.9757 43.5295 81.0001 43.5295ZM80.8974 17.9494C81.406 17.9494 81.8183 17.5371 81.8183 17.0285C81.8183 16.5199 81.406 16.1076 80.8974 16.1076C80.3888 16.1076 79.9765 16.5199 79.9765 17.0285C79.9765 17.5371 80.3888 17.9494 80.8974 17.9494ZM80.8974 42.0968C81.406 42.0968 81.8183 41.6845 81.8183 41.1759C81.8183 40.6673 81.406 40.255 80.8974 40.255C80.3888 40.255 79.9765 40.6673 79.9765 41.1759C79.9765 41.6845 80.3888 42.0968 80.8974 42.0968ZM70.1525 28.8974C70.1525 29.406 69.7402 29.8183 69.2316 29.8183C68.7231 29.8183 68.3108 29.406 68.3108 28.8974C68.3108 28.3889 68.7231 27.9766 69.2316 27.9766C69.7402 27.9766 70.1525 28.3889 70.1525 28.8974ZM92.56 29.8183C93.0686 29.8183 93.4809 29.406 93.4809 28.8974C93.4809 28.3889 93.0686 27.9766 92.56 27.9766C92.0515 27.9766 91.6392 28.3889 91.6392 28.8974C91.6392 29.406 92.0515 29.8183 92.56 29.8183ZM90.8214 21.7352C90.8214 22.2438 90.4091 22.6561 89.9005 22.6561C89.3919 22.6561 88.9797 22.2438 88.9797 21.7352C88.9797 21.2266 89.3919 20.8143 89.9005 20.8143C90.4091 20.8143 90.8214 21.2266 90.8214 21.7352ZM89.9005 38.618C90.4091 38.618 90.8214 38.2057 90.8214 37.6971C90.8214 37.1886 90.4091 36.7763 89.9005 36.7763C89.3919 36.7763 88.9797 37.1886 88.9797 37.6971C88.9797 38.2057 89.3919 38.618 89.9005 38.618ZM82.6359 28.8977C82.6359 29.0806 82.6076 29.257 82.5552 29.4227C83.5195 30.4422 85.9554 32.8984 87.2571 34.2033L87.3781 35.2842L81.3661 30.573C81.2167 30.6148 81.0592 30.6371 80.8964 30.6371C79.9358 30.6371 79.157 29.8583 79.157 28.8977C79.157 28.2491 79.5119 27.6835 80.0381 27.3844C80.1408 25.9132 80.3033 22.6026 80.3858 20.8143L81.102 19.9957L81.6594 27.334C82.2376 27.6167 82.6359 28.2107 82.6359 28.8977ZM72.3004 38.618C72.809 38.618 73.2213 38.2057 73.2213 37.6971C73.2213 37.1886 72.809 36.7763 72.3004 36.7763C71.7918 36.7763 71.3795 37.1886 71.3795 37.6971C71.3795 38.2057 71.7918 38.618 72.3004 38.618ZM73.2213 21.7352C73.2213 22.2438 72.809 22.6561 72.3004 22.6561C71.7918 22.6561 71.3795 22.2438 71.3795 21.7352C71.3795 21.2266 71.7918 20.8143 72.3004 20.8143C72.809 20.8143 73.2213 21.2266 73.2213 21.7352Z" fill="url(#paint1_linear)"/>
<path fill-rule="evenodd" clip-rule="evenodd" d="M81.0001 43.5295C89.0245 43.5295 95.5295 37.0245 95.5295 29.0001C95.5295 20.9757 89.0245 14.4707 81.0001 14.4707C72.9757 14.4707 66.4707 20.9757 66.4707 29.0001C66.4707 37.0245 72.9757 43.5295 81.0001 43.5295ZM80.8974 17.9494C81.406 17.9494 81.8183 17.5371 81.8183 17.0285C81.8183 16.5199 81.406 16.1076 80.8974 16.1076C80.3888 16.1076 79.9765 16.5199 79.9765 17.0285C79.9765 17.5371 80.3888 17.9494 80.8974 17.9494ZM80.8974 42.0968C81.406 42.0968 81.8183 41.6845 81.8183 41.1759C81.8183 40.6673 81.406 40.255 80.8974 40.255C80.3888 40.255 79.9765 40.6673 79.9765 41.1759C79.9765 41.6845 80.3888 42.0968 80.8974 42.0968ZM70.1525 28.8974C70.1525 29.406 69.7402 29.8183 69.2316 29.8183C68.7231 29.8183 68.3108 29.406 68.3108 28.8974C68.3108 28.3889 68.7231 27.9766 69.2316 27.9766C69.7402 27.9766 70.1525 28.3889 70.1525 28.8974ZM92.56 29.8183C93.0686 29.8183 93.4809 29.406 93.4809 28.8974C93.4809 28.3889 93.0686 27.9766 92.56 27.9766C92.0515 27.9766 91.6392 28.3889 91.6392 28.8974C91.6392 29.406 92.0515 29.8183 92.56 29.8183ZM90.8214 21.7352C90.8214 22.2438 90.4091 22.6561 89.9005 22.6561C89.3919 22.6561 88.9797 22.2438 88.9797 21.7352C88.9797 21.2266 89.3919 20.8143 89.9005 20.8143C90.4091 20.8143 90.8214 21.2266 90.8214 21.7352ZM89.9005 38.618C90.4091 38.618 90.8214 38.2057 90.8214 37.6971C90.8214 37.1886 90.4091 36.7763 89.9005 36.7763C89.3919 36.7763 88.9797 37.1886 88.9797 37.6971C88.9797 38.2057 89.3919 38.618 89.9005 38.618ZM82.6359 28.8977C82.6359 29.0806 82.6076 29.257 82.5552 29.4227C83.5195 30.4422 85.9554 32.8984 87.2571 34.2033L87.3781 35.2842L81.3661 30.573C81.2167 30.6148 81.0592 30.6371 80.8964 30.6371C79.9358 30.6371 79.157 29.8583 79.157 28.8977C79.157 28.2491 79.5119 27.6835 80.0381 27.3844C80.1408 25.9132 80.3033 22.6026 80.3858 20.8143L81.102 19.9957L81.6594 27.334C82.2376 27.6167 82.6359 28.2107 82.6359 28.8977ZM72.3004 38.618C72.809 38.618 73.2213 38.2057 73.2213 37.6971C73.2213 37.1886 72.809 36.7763 72.3004 36.7763C71.7918 36.7763 71.3795 37.1886 71.3795 37.6971C71.3795 38.2057 71.7918 38.618 72.3004 38.618ZM73.2213 21.7352C73.2213 22.2438 72.809 22.6561 72.3004 22.6561C71.7918 22.6561 71.3795 22.2438 71.3795 21.7352C71.3795 21.2266 71.7918 20.8143 72.3004 20.8143C72.809 20.8143 73.2213 21.2266 73.2213 21.7352Z" fill="url(#paint2_linear)"/>
<path d="M28.3029 40H72.0876C73.7717 40 75.9077 41.0419 76.9501 42.3724L83.5984 50.8572C84.4646 51.9626 86.2688 53.3957 87.5383 53.9868L92.1932 56.1546C93.7673 56.8873 95 58.8275 95 60.5713V72.983C95 74.8145 93.5181 76.3044 91.6965 76.3044H90.2253C89.1057 80.1678 85.5544 83 81.3555 83C77.1566 83 73.6053 80.1678 72.4857 76.3044H52.7275C51.6079 80.1678 48.0567 83 43.8578 83C39.6589 83 36.1079 80.1678 34.9885 76.3044H28.3035C26.4818 76.3044 25 74.8145 25 72.983V43.3217C24.9992 41.4902 26.4813 40 28.3029 40ZM81.3552 78.3252C83.8896 78.3252 85.9445 76.2592 85.9445 73.7111C85.9445 71.163 83.8896 69.097 81.3552 69.097C78.8209 69.097 76.766 71.1627 76.766 73.7111C76.766 76.2592 78.8209 78.3252 81.3552 78.3252ZM62.2778 53.701C62.2778 54.632 63.0354 55.3836 63.9611 55.3712L78.8324 55.1703C79.7581 55.1579 80.0524 54.5451 79.4856 53.8088L73.4039 45.9014C72.8371 45.1651 71.6162 44.5625 70.6902 44.5625H63.9614C63.0354 44.5625 62.2778 45.3242 62.2778 46.2552V53.701ZM57.4164 55.3937C58.3424 55.3937 59.1 54.632 59.1 53.701V46.2719C59.1 45.3409 58.3424 44.5791 57.4164 44.5791H47.5112C46.5852 44.5791 45.8276 45.3409 45.8276 46.2719V53.701C45.8276 54.632 46.5852 55.3937 47.5112 55.3937H57.4164ZM43.8572 78.3252C46.3913 78.3252 48.4461 76.2592 48.4461 73.7111C48.4461 71.163 46.3916 69.097 43.8572 69.097C41.3228 69.097 39.268 71.1627 39.268 73.7111C39.268 76.2592 41.3228 78.3252 43.8572 78.3252ZM29.7012 53.701C29.7012 54.632 30.4588 55.3937 31.3848 55.3937H41.29C42.216 55.3937 42.9736 54.632 42.9736 53.701V46.2719C42.9736 45.3409 42.216 44.5791 41.29 44.5791H31.3848C30.4588 44.5791 29.7012 45.3409 29.7012 46.2719V53.701Z" fill="black"/>
<path d="M28.3029 40H72.0876C73.7717 40 75.9077 41.0419 76.9501 42.3724L83.5984 50.8572C84.4646 51.9626 86.2688 53.3957 87.5383 53.9868L92.1932 56.1546C93.7673 56.8873 95 58.8275 95 60.5713V72.983C95 74.8145 93.5181 76.3044 91.6965 76.3044H90.2253C89.1057 80.1678 85.5544 83 81.3555 83C77.1566 83 73.6053 80.1678 72.4857 76.3044H52.7275C51.6079 80.1678 48.0567 83 43.8578 83C39.6589 83 36.1079 80.1678 34.9885 76.3044H28.3035C26.4818 76.3044 25 74.8145 25 72.983V43.3217C24.9992 41.4902 26.4813 40 28.3029 40ZM81.3552 78.3252C83.8896 78.3252 85.9445 76.2592 85.9445 73.7111C85.9445 71.163 83.8896 69.097 81.3552 69.097C78.8209 69.097 76.766 71.1627 76.766 73.7111C76.766 76.2592 78.8209 78.3252 81.3552 78.3252ZM62.2778 53.701C62.2778 54.632 63.0354 55.3836 63.9611 55.3712L78.8324 55.1703C79.7581 55.1579 80.0524 54.5451 79.4856 53.8088L73.4039 45.9014C72.8371 45.1651 71.6162 44.5625 70.6902 44.5625H63.9614C63.0354 44.5625 62.2778 45.3242 62.2778 46.2552V53.701ZM57.4164 55.3937C58.3424 55.3937 59.1 54.632 59.1 53.701V46.2719C59.1 45.3409 58.3424 44.5791 57.4164 44.5791H47.5112C46.5852 44.5791 45.8276 45.3409 45.8276 46.2719V53.701C45.8276 54.632 46.5852 55.3937 47.5112 55.3937H57.4164ZM43.8572 78.3252C46.3913 78.3252 48.4461 76.2592 48.4461 73.7111C48.4461 71.163 46.3916 69.097 43.8572 69.097C41.3228 69.097 39.268 71.1627 39.268 73.7111C39.268 76.2592 41.3228 78.3252 43.8572 78.3252ZM29.7012 53.701C29.7012 54.632 30.4588 55.3937 31.3848 55.3937H41.29C42.216 55.3937 42.9736 54.632 42.9736 53.701V46.2719C42.9736 45.3409 42.216 44.5791 41.29 44.5791H31.3848C30.4588 44.5791 29.7012 45.3409 29.7012 46.2719V53.701Z" fill="url(#paint3_linear)"/>
<path d="M52.4035 73C52.7329 73 53.0021 72.7326 52.9802 72.4039C52.9153 71.4259 52.691 70.4638 52.3149 69.5558C51.8626 68.4639 51.1997 67.4718 50.364 66.636C49.5282 65.8003 48.5361 65.1374 47.4442 64.6851C46.3522 64.2328 45.1819 64 44 64C42.8181 64 41.6478 64.2328 40.5558 64.6851C39.4639 65.1374 38.4718 65.8003 37.636 66.636C36.8003 67.4718 36.1374 68.4639 35.6851 69.5558C35.309 70.4638 35.0847 71.4259 35.0198 72.4039C34.9979 72.7326 35.2671 73 35.5966 73C35.926 73 36.1907 72.7325 36.2159 72.404C36.2788 71.5829 36.4713 70.7756 36.7874 70.0124C37.1797 69.0653 37.7548 68.2046 38.4797 67.4797C39.2046 66.7548 40.0653 66.1797 41.0124 65.7874C41.9596 65.395 42.9748 65.1931 44 65.1931C45.0252 65.1931 46.0404 65.395 46.9876 65.7874C47.9347 66.1797 48.7954 66.7548 49.5203 67.4797C50.2452 68.2046 50.8203 69.0653 51.2126 70.0124C51.5287 70.7756 51.7212 71.5829 51.7841 72.404C51.8093 72.7325 52.074 73 52.4035 73Z" fill="#1C2845"/>
<path d="M89.4035 73C89.7329 73 90.0021 72.7326 89.9802 72.4039C89.9153 71.4259 89.691 70.4638 89.3149 69.5558C88.8626 68.4639 88.1997 67.4718 87.364 66.636C86.5282 65.8003 85.5361 65.1374 84.4442 64.6851C83.3522 64.2328 82.1819 64 81 64C79.8181 64 78.6478 64.2328 77.5558 64.6851C76.4639 65.1374 75.4718 65.8003 74.636 66.636C73.8003 67.4718 73.1374 68.4639 72.6851 69.5558C72.309 70.4638 72.0847 71.4259 72.0198 72.4039C71.9979 72.7326 72.2671 73 72.5966 73C72.926 73 73.1907 72.7325 73.2159 72.404C73.2788 71.5829 73.4713 70.7756 73.7874 70.0124C74.1797 69.0653 74.7548 68.2046 75.4797 67.4797C76.2046 66.7548 77.0653 66.1797 78.0124 65.7874C78.9596 65.395 79.9748 65.1931 81 65.1931C82.0252 65.1931 83.0404 65.395 83.9876 65.7874C84.9347 66.1797 85.7954 66.7548 86.5203 67.4797C87.2452 68.2046 87.8203 69.0653 88.2126 70.0124C88.5287 70.7756 88.7212 71.5829 88.7841 72.404C88.8093 72.7325 89.074 73 89.4035 73Z" fill="#1C2845"/>
</g>
<defs>
<filter id="filter0_d" x="-10" y="-7" width="120" height="120" filterUnits="userSpaceOnUse" color-interpolation-filters="sRGB">
<feFlood flood-opacity="0" result="BackgroundImageFix"/>
<feColorMatrix in="SourceAlpha" type="matrix" values="0 0 0 0 0 0 0 0 0 0 0 0 0 0 0 0 0 0 127 0"/>
<feOffset dy="3"/>
<feGaussianBlur stdDeviation="5"/>
<feColorMatrix type="matrix" values="0 0 0 0 0 0 0 0 0 0 0 0 0 0 0 0 0 0 0.4 0"/>
<feBlend mode="normal" in2="BackgroundImageFix" result="effect1_dropShadow"/>
<feBlend mode="normal" in="SourceGraphic" in2="effect1_dropShadow" result="shape"/>
</filter>
<filter id="filter1_ii" x="60" y="8" width="42" height="42" filterUnits="userSpaceOnUse" color-interpolation-filters="sRGB">
<feFlood flood-opacity="0" result="BackgroundImageFix"/>
<feBlend mode="normal" in="SourceGraphic" in2="BackgroundImageFix" result="shape"/>
<feColorMatrix in="SourceAlpha" type="matrix" values="0 0 0 0 0 0 0 0 0 0 0 0 0 0 0 0 0 0 127 0" result="hardAlpha"/>
<feOffset dx="-2" dy="2"/>
<feGaussianBlur stdDeviation="1"/>
<feComposite in2="hardAlpha" operator="arithmetic" k2="-1" k3="1"/>
<feColorMatrix type="matrix" values="0 0 0 0 0.529412 0 0 0 0 0.380392 0 0 0 0 0.0588235 0 0 0 0.5 0"/>
<feBlend mode="normal" in2="shape" result="effect1_innerShadow"/>
<feColorMatrix in="SourceAlpha" type="matrix" values="0 0 0 0 0 0 0 0 0 0 0 0 0 0 0 0 0 0 127 0" result="hardAlpha"/>
<feOffset dx="2" dy="-2"/>
<feGaussianBlur stdDeviation="1"/>
<feComposite in2="hardAlpha" operator="arithmetic" k2="-1" k3="1"/>
<feColorMatrix type="matrix" values="0 0 0 0 1 0 0 0 0 1 0 0 0 0 0.160784 0 0 0 0.3 0"/>
<feBlend mode="normal" in2="effect1_innerShadow" result="effect2_innerShadow"/>
</filter>
<linearGradient id="paint0_linear" x1="62" y1="10.0946" x2="93.644" y2="7.03158" gradientUnits="userSpaceOnUse">
<stop stop-color="#FFC738"/>
<stop offset="1" stop-color="#FF9B00"/>
</linearGradient>
<linearGradient id="paint1_linear" x1="66.4707" y1="14.4707" x2="95.5295" y2="43.5295" gradientUnits="userSpaceOnUse">
<stop stop-color="#EAA81B"/>
<stop offset="1" stop-color="#FFBA1D"/>
</linearGradient>
<linearGradient id="paint2_linear" x1="68.7617" y1="10.3441" x2="93.5317" y2="16.7129" gradientUnits="userSpaceOnUse">
<stop stop-color="#FFC738"/>
<stop offset="1" stop-color="#FF9B00"/>
</linearGradient>
<linearGradient id="paint3_linear" x1="81.4847" y1="41.7623" x2="66.8411" y2="80.0288" gradientUnits="userSpaceOnUse">
<stop stop-color="#CDCDCD"/>
<stop offset="1" stop-color="white"/>
</linearGradient>
</defs>
</svg>
