<svg width="35" height="35" viewBox="0 0 35 35" fill="none" xmlns="http://www.w3.org/2000/svg">
<g clip-path="url(#clip0)">
<path d="M29.2015 11.269C28.7224 10.788 28.0608 10.5037 27.308 10.5037H23.5209V10.46C23.5209 9.91344 23.2928 9.38872 22.9049 9.03891C22.5171 8.66724 21.9924 8.44861 21.4221 8.44861H14.5779C13.9848 8.44861 13.4601 8.66724 13.0722 9.03891C12.6844 9.41059 12.4563 9.91344 12.4563 10.46V10.5037H8.69202C7.93916 10.5037 7.27757 10.788 6.79848 11.269C6.31939 11.7281 6 12.384 6 13.0836V23.9714C6 24.6929 6.29658 25.3269 6.79848 25.7861C7.27757 26.2452 7.96198 26.5513 8.69202 26.5513H27.308C28.0608 26.5513 28.7224 26.2671 29.2015 25.7861C29.6806 25.3269 30 24.671 30 23.9714V13.0836C30 12.3621 29.7034 11.7281 29.2015 11.269ZM28.8137 23.9714H28.7909C28.7909 24.365 28.6312 24.7148 28.3574 24.9771C28.0837 25.2395 27.7186 25.3925 27.308 25.3925H8.69202C8.28137 25.3925 7.91635 25.2395 7.64259 24.9771C7.36882 24.7148 7.20913 24.365 7.20913 23.9714V13.0836C7.20913 12.6901 7.36882 12.3402 7.64259 12.0779C7.91635 11.8155 8.28137 11.6625 8.69202 11.6625H13.0951C13.4373 11.6625 13.711 11.4001 13.711 11.0722V10.4382C13.711 10.1977 13.8023 9.97903 13.962 9.82598C14.1217 9.67294 14.3498 9.58549 14.6008 9.58549H21.4221C21.673 9.58549 21.9011 9.67294 22.0608 9.82598C22.2205 9.97903 22.3118 10.1977 22.3118 10.4382V11.0722C22.3118 11.4001 22.5856 11.6625 22.9278 11.6625H27.3308C27.7414 11.6625 28.1065 11.8155 28.3802 12.0779C28.654 12.3402 28.8137 12.6901 28.8137 13.0836V23.9714Z" fill="url(#paint0_linear)"/>
<path d="M17.9999 13.149C16.4485 13.149 15.0341 13.7612 14.0303 14.7232C13.0037 15.707 12.3877 17.0407 12.3877 18.5274C12.3877 20.0141 13.0265 21.3696 14.0303 22.3316C15.0569 23.3154 16.4485 23.9057 17.9999 23.9057C19.5512 23.9057 20.9656 23.2935 21.9694 22.3316C22.9961 21.3477 23.612 20.0141 23.612 18.5274C23.612 17.0407 22.9732 15.6852 21.9694 14.7232C20.9656 13.7612 19.5512 13.149 17.9999 13.149ZM21.1025 21.5226C20.304 22.266 19.209 22.747 17.9999 22.747C16.7907 22.747 15.6957 22.266 14.8972 21.5226C14.0987 20.7574 13.6196 19.708 13.6196 18.5492C13.6196 17.3905 14.1215 16.3411 14.8972 15.5759C15.6957 14.8106 16.7907 14.3515 17.9999 14.3515C19.209 14.3515 20.304 14.8325 21.1025 15.5759C21.901 16.3411 22.3801 17.3905 22.3801 18.5492C22.4029 19.708 21.901 20.7574 21.1025 21.5226Z" fill="url(#paint1_linear)"/>
<path d="M26.1218 15.2698C26.7392 15.2698 27.2396 14.7901 27.2396 14.1985C27.2396 13.6068 26.7392 13.1272 26.1218 13.1272C25.5044 13.1272 25.0039 13.6068 25.0039 14.1985C25.0039 14.7901 25.5044 15.2698 26.1218 15.2698Z" fill="url(#paint2_linear)"/>
</g>
<defs>
<linearGradient id="paint0_linear" x1="6" y1="8.49367" x2="25.8461" y2="5.94684" gradientUnits="userSpaceOnUse">
<stop stop-color="#FFC738"/>
<stop offset="1" stop-color="#FF9B00"/>
</linearGradient>
<linearGradient id="paint1_linear" x1="12.3877" y1="13.1758" x2="21.7269" y2="12.2325" gradientUnits="userSpaceOnUse">
<stop stop-color="#FFC738"/>
<stop offset="1" stop-color="#FF9B00"/>
</linearGradient>
<linearGradient id="paint2_linear" x1="25.0039" y1="13.1325" x2="26.8642" y2="12.9446" gradientUnits="userSpaceOnUse">
<stop stop-color="#FFC738"/>
<stop offset="1" stop-color="#FF9B00"/>
</linearGradient>
<clipPath id="clip0">
<rect width="24" height="23" fill="white" transform="translate(6 6)"/>
</clipPath>
</defs>
</svg>
