<svg width="112" height="118" viewBox="0 0 112 118" fill="none" xmlns="http://www.w3.org/2000/svg">
<g filter="url(#filter0_d)">
<g clip-path="url(#clip0)">
<path fill-rule="evenodd" clip-rule="evenodd" d="M23.4247 11.9497C22.5649 11.1749 21.3262 10.9864 20.275 11.4708C19.2177 11.9412 18.5423 12.9963 18.5576 14.1535V74.3882C18.5524 75.1103 18.8149 75.8088 19.2945 76.3485C20.3653 77.5537 22.2103 77.6626 23.4155 76.5918L27.9565 72.5749C28.0807 72.465 28.2674 72.4655 28.391 72.576L34.5651 78.0971C35.6815 79.097 37.3716 79.097 38.4882 78.0971L44.6562 72.5812C44.7803 72.4704 44.9678 72.4704 45.0919 72.5812L51.2599 78.0973C52.3764 79.0976 54.0666 79.0976 55.183 78.0973L61.356 72.5762C61.4787 72.4657 61.6649 72.465 61.7883 72.5749L66.3252 76.5919C66.8656 77.0727 67.5649 77.3362 68.2882 77.3313C69.9029 77.3205 71.2031 76.0028 71.1923 74.3882V14.1535C71.1979 13.4307 70.935 12.7314 70.4546 12.1911C69.3833 10.9864 67.5381 10.8784 66.3334 11.9497L61.7924 15.9666C61.6682 16.0765 61.4815 16.076 61.3579 15.9655L55.1842 10.4444C54.0677 9.44416 52.3775 9.44416 51.2611 10.4444L45.093 15.9604C44.969 16.0712 44.7815 16.0712 44.6574 15.9604L38.49 10.4444C37.3735 9.444 35.6833 9.444 34.5669 10.4444L28.3939 15.9655C28.2712 16.076 28.085 16.0766 27.9616 15.9668L23.4247 11.9497ZM44.0915 33.1554H60.37C61.0922 33.1554 61.6777 33.7409 61.6777 34.4631C61.6777 35.1853 61.0922 35.7708 60.37 35.7708H44.0915C43.3693 35.7708 42.7838 35.1853 42.7838 34.4631C42.7838 33.7409 43.3693 33.1554 44.0915 33.1554ZM60.37 55.3862H29.3799C28.6578 55.3862 28.0722 54.8007 28.0722 54.0785C28.0722 53.3564 28.6578 52.7708 29.3799 52.7708H60.37C61.0922 52.7708 61.6777 53.3564 61.6777 54.0785C61.6777 54.8007 61.0922 55.3862 60.37 55.3862ZM60.37 45.5785H29.3799C28.6578 45.5785 28.0722 44.993 28.0722 44.2708C28.0722 43.5486 28.6578 42.9631 29.3799 42.9631H60.37C61.0922 42.9631 61.6777 43.5486 61.6777 44.2708C61.6777 44.993 61.0922 45.5785 60.37 45.5785ZM35.9611 30.0915C36.9965 30.8429 37.5155 31.9069 37.5059 33.2522C37.5037 35.1315 36.1019 36.475 33.9239 36.7944V38.6024H31.7189V36.7546C30.453 36.5078 29.2587 35.878 28.4367 34.9872L30.0386 33.4348C30.6876 34.1378 31.8327 34.6106 32.8857 34.6106C34.0004 34.6106 35.3016 34.253 35.3016 33.247L35.3016 33.2382C35.3105 32.0396 34.5317 31.6777 32.6139 31.0838L32.608 31.082C31.7144 30.8044 30.7899 30.5172 30.0316 29.9834C29.0323 29.2826 28.5242 28.289 28.5242 27.0361C28.5242 25.2472 29.7589 23.9346 31.7189 23.4929V21.5975H33.9239V23.3687C34.9888 23.4795 36.0673 23.8365 36.8553 24.3599L35.66 26.2566C35.057 25.8582 34.0862 25.5894 33.2424 25.5894C32.0837 25.5894 30.7302 25.969 30.7302 27.0361C30.7302 27.9941 31.2974 28.314 33.2525 28.9213C34.1911 29.2113 35.1615 29.513 35.9611 30.0915Z" fill="black"/>
<path fill-rule="evenodd" clip-rule="evenodd" d="M23.4247 11.9497C22.5649 11.1749 21.3262 10.9864 20.275 11.4708C19.2177 11.9412 18.5423 12.9963 18.5576 14.1535V74.3882C18.5524 75.1103 18.8149 75.8088 19.2945 76.3485C20.3653 77.5537 22.2103 77.6626 23.4155 76.5918L27.9565 72.5749C28.0807 72.465 28.2674 72.4655 28.391 72.576L34.5651 78.0971C35.6815 79.097 37.3716 79.097 38.4882 78.0971L44.6562 72.5812C44.7803 72.4704 44.9678 72.4704 45.0919 72.5812L51.2599 78.0973C52.3764 79.0976 54.0666 79.0976 55.183 78.0973L61.356 72.5762C61.4787 72.4657 61.6649 72.465 61.7883 72.5749L66.3252 76.5919C66.8656 77.0727 67.5649 77.3362 68.2882 77.3313C69.9029 77.3205 71.2031 76.0028 71.1923 74.3882V14.1535C71.1979 13.4307 70.935 12.7314 70.4546 12.1911C69.3833 10.9864 67.5381 10.8784 66.3334 11.9497L61.7924 15.9666C61.6682 16.0765 61.4815 16.076 61.3579 15.9655L55.1842 10.4444C54.0677 9.44416 52.3775 9.44416 51.2611 10.4444L45.093 15.9604C44.969 16.0712 44.7815 16.0712 44.6574 15.9604L38.49 10.4444C37.3735 9.444 35.6833 9.444 34.5669 10.4444L28.3939 15.9655C28.2712 16.076 28.085 16.0766 27.9616 15.9668L23.4247 11.9497ZM44.0915 33.1554H60.37C61.0922 33.1554 61.6777 33.7409 61.6777 34.4631C61.6777 35.1853 61.0922 35.7708 60.37 35.7708H44.0915C43.3693 35.7708 42.7838 35.1853 42.7838 34.4631C42.7838 33.7409 43.3693 33.1554 44.0915 33.1554ZM60.37 55.3862H29.3799C28.6578 55.3862 28.0722 54.8007 28.0722 54.0785C28.0722 53.3564 28.6578 52.7708 29.3799 52.7708H60.37C61.0922 52.7708 61.6777 53.3564 61.6777 54.0785C61.6777 54.8007 61.0922 55.3862 60.37 55.3862ZM60.37 45.5785H29.3799C28.6578 45.5785 28.0722 44.993 28.0722 44.2708C28.0722 43.5486 28.6578 42.9631 29.3799 42.9631H60.37C61.0922 42.9631 61.6777 43.5486 61.6777 44.2708C61.6777 44.993 61.0922 45.5785 60.37 45.5785ZM35.9611 30.0915C36.9965 30.8429 37.5155 31.9069 37.5059 33.2522C37.5037 35.1315 36.1019 36.475 33.9239 36.7944V38.6024H31.7189V36.7546C30.453 36.5078 29.2587 35.878 28.4367 34.9872L30.0386 33.4348C30.6876 34.1378 31.8327 34.6106 32.8857 34.6106C34.0004 34.6106 35.3016 34.253 35.3016 33.247L35.3016 33.2382C35.3105 32.0396 34.5317 31.6777 32.6139 31.0838L32.608 31.082C31.7144 30.8044 30.7899 30.5172 30.0316 29.9834C29.0323 29.2826 28.5242 28.289 28.5242 27.0361C28.5242 25.2472 29.7589 23.9346 31.7189 23.4929V21.5975H33.9239V23.3687C34.9888 23.4795 36.0673 23.8365 36.8553 24.3599L35.66 26.2566C35.057 25.8582 34.0862 25.5894 33.2424 25.5894C32.0837 25.5894 30.7302 25.969 30.7302 27.0361C30.7302 27.9941 31.2974 28.314 33.2525 28.9213C34.1911 29.2113 35.1615 29.513 35.9611 30.0915Z" fill="url(#paint0_linear)"/>
</g>
<g clip-path="url(#clip1)" filter="url(#filter1_d)">
<path d="M92.4492 73.6434L85.7974 51.5851C85.1296 49.3709 82.8228 48.068 80.6442 48.6767L41.2042 59.6927C39.0267 60.3009 37.8019 62.5892 38.4705 64.8044L45.1222 86.8627C45.79 89.0769 48.0969 90.3797 50.2755 89.7711L89.7146 78.7558C91.893 78.1468 93.1161 75.8583 92.4492 73.6434Z" fill="#D0D0D0"/>
<path d="M40.8654 72.7512L88.2238 59.6339L90.7302 67.9459L43.3753 81.0712L40.8654 72.7512Z" fill="#606677"/>
<path d="M89.9598 54.4191L75.9555 36.0134C74.5493 34.1653 71.9559 33.7726 70.1635 35.1364L37.7072 59.8315C35.9148 61.1952 35.6016 63.7995 37.0078 65.6476L51.0121 84.0532C52.4183 85.9013 55.0117 86.294 56.8041 84.9302L89.2604 60.2352C91.0528 58.8714 91.366 56.2672 89.9598 54.4191Z" fill="url(#paint1_linear)"/>
<path d="M37.7077 59.8309L41.1562 57.2071L84.5954 63.7844L56.8046 84.9297C55.0122 86.2935 52.4188 85.9008 51.0126 84.0527L37.0083 65.647C35.6021 63.7989 35.9153 61.1947 37.7077 59.8309Z" fill="url(#paint2_linear)"/>
<path d="M84.1689 53.5414L80.9233 56.0109L82.1964 57.6842L85.4421 55.2147L84.1689 53.5414Z" fill="#172340"/>
<path d="M69.5635 64.6542L66.3178 67.1237L67.5909 68.797L70.8366 66.3275L69.5635 64.6542Z" fill="#172340"/>
<path d="M80.3491 48.5215L77.1034 50.991L78.3766 52.6643L81.6223 50.1948L80.3491 48.5215Z" fill="#172340"/>
<path d="M75.481 52.226L72.2356 54.6953L73.5087 56.3685L76.7541 53.8992L75.481 52.226Z" fill="#172340"/>
<path d="M70.6123 55.9299L67.3666 58.3995L68.6398 60.0728L71.8855 57.6032L70.6123 55.9299Z" fill="#172340"/>
<path d="M65.7437 59.6343L62.498 62.1038L63.7711 63.7771L67.0168 61.3076L65.7437 59.6343Z" fill="#172340"/>
<path d="M42.689 61.3252L41.0661 62.56L42.9758 65.0699L44.5987 63.8351L42.689 61.3252Z" fill="#172340"/>
<path d="M45.9351 58.8553L44.3122 60.0901L46.2219 62.6L47.8448 61.3653L45.9351 58.8553Z" fill="#172340"/>
<path d="M49.1802 56.3861L47.5573 57.6209L49.467 60.1308L51.0899 58.896L49.1802 56.3861Z" fill="#172340"/>
<path d="M52.4258 53.9169L50.8032 55.1514L52.7129 57.6613L54.3355 56.4268L52.4258 53.9169Z" fill="#172340"/>
<path d="M76.7849 43.8367L73.7295 39.821C73.1667 39.0814 72.1299 38.9244 71.4126 39.4702L67.5179 42.4335C66.8006 42.9793 66.6757 44.0202 67.2384 44.7598L70.2939 48.7756C70.8566 49.5152 71.8931 49.6724 72.6105 49.1266L76.5052 46.1633C77.2225 45.6175 77.3477 44.5763 76.7849 43.8367Z" fill="#D2D2D2"/>
<path d="M74.6206 40.9922L72.1863 42.8443L73.4595 44.5176L75.8937 42.6655L74.6206 40.9922Z" fill="#172340"/>
<path d="M70.563 44.0792L68.129 45.9312L69.4022 47.6044L71.8361 45.7525L70.563 44.0792Z" fill="#172340"/>
</g>
</g>
<defs>
<filter id="filter0_d" x="-4" y="-7" width="120" height="124.306" filterUnits="userSpaceOnUse" color-interpolation-filters="sRGB">
<feFlood flood-opacity="0" result="BackgroundImageFix"/>
<feColorMatrix in="SourceAlpha" type="matrix" values="0 0 0 0 0 0 0 0 0 0 0 0 0 0 0 0 0 0 127 0"/>
<feOffset dy="3"/>
<feGaussianBlur stdDeviation="5"/>
<feColorMatrix type="matrix" values="0 0 0 0 0 0 0 0 0 0 0 0 0 0 0 0 0 0 0.4 0"/>
<feBlend mode="normal" in2="BackgroundImageFix" result="effect1_dropShadow"/>
<feBlend mode="normal" in="SourceGraphic" in2="effect1_dropShadow" result="shape"/>
</filter>
<filter id="filter1_d" x="23.6021" y="29.6168" width="79.398" height="77.6891" filterUnits="userSpaceOnUse" color-interpolation-filters="sRGB">
<feFlood flood-opacity="0" result="BackgroundImageFix"/>
<feColorMatrix in="SourceAlpha" type="matrix" values="0 0 0 0 0 0 0 0 0 0 0 0 0 0 0 0 0 0 127 0"/>
<feOffset dx="-2"/>
<feGaussianBlur stdDeviation="1.5"/>
<feColorMatrix type="matrix" values="0 0 0 0 0 0 0 0 0 0 0 0 0 0 0 0 0 0 0.25 0"/>
<feBlend mode="normal" in2="BackgroundImageFix" result="effect1_dropShadow"/>
<feBlend mode="normal" in="SourceGraphic" in2="effect1_dropShadow" result="shape"/>
</filter>
<linearGradient id="paint0_linear" x1="61.0298" y1="12.5282" x2="26.4496" y2="54.7786" gradientUnits="userSpaceOnUse">
<stop stop-color="#CDCDCD"/>
<stop offset="1" stop-color="white"/>
</linearGradient>
<linearGradient id="paint1_linear" x1="56.9389" y1="41.4716" x2="63.8045" y2="86.7083" gradientUnits="userSpaceOnUse">
<stop stop-color="#FF9B00"/>
<stop offset="1" stop-color="#FFC738"/>
</linearGradient>
<linearGradient id="paint2_linear" x1="49.2506" y1="53.2596" x2="51.3558" y2="84.1905" gradientUnits="userSpaceOnUse">
<stop stop-color="#FFC738"/>
<stop offset="1" stop-color="#FF9B00"/>
</linearGradient>
<clipPath id="clip0">
<rect width="69.1533" height="69.1533" fill="white" transform="matrix(-1 0 0 1 79.4517 9.69409)"/>
</clipPath>
<clipPath id="clip1">
<rect width="56.2567" height="47.277" fill="white" transform="matrix(-0.795828 0.605522 0.605522 0.795828 73.3726 32.6168)"/>
</clipPath>
</defs>
</svg>
