<svg width="93" height="33" viewBox="0 0 93 33" fill="none" xmlns="http://www.w3.org/2000/svg">
<rect x="1" y="2" width="31" height="30" rx="5" fill="white"/>
<path fill-rule="evenodd" clip-rule="evenodd" d="M16.6554 6.23847C16.8534 6.12778 17.0942 6.12753 17.2925 6.23779L23.4367 9.83033C23.7537 10.0067 23.9103 10.5327 23.7347 10.8512C23.5592 11.1697 23.036 11.3326 22.7189 11.1562L16.9907 7.78864L11.29 11.1158C10.9733 11.2929 10.4975 11.0937 10.3213 10.7756C10.145 10.4574 10.2495 9.99427 10.5662 9.81725L16.6554 6.23847ZM16.9907 21.967C17.3532 21.9683 17.7372 22.2443 17.7359 22.6084V25.0486L22.6169 22.1939C22.9336 22.0169 23.4235 22.3017 23.5998 22.6198C23.776 22.938 23.6416 23.3402 23.3249 23.5172L17.6987 26.8066C17.2148 27.0391 16.7745 27.0391 16.2828 26.8066L10.5448 23.4416C10.2305 23.2603 10.1347 22.7523 10.3152 22.4365C10.4956 22.1208 11.013 21.9748 11.3273 22.1561L16.2455 25.0486V22.6084C16.2468 22.2443 16.6283 21.9658 16.9907 21.967Z" fill="url(#paint0_linear)"/>
<path fill-rule="evenodd" clip-rule="evenodd" d="M26.0303 11.1813C26.2279 11.3051 26.3056 11.5018 26.3056 11.7447V21.3249C26.3056 21.7046 26.0204 21.9836 25.6553 22.0124C25.2831 22.0417 24.8152 21.8173 24.8152 21.4376V13.2708L17.7359 17.4112V19.7191C17.7359 20.0988 17.3498 20.4168 16.9907 20.4168C16.6316 20.4168 16.2455 20.0988 16.2455 19.7191V17.392L9.16617 13.2708V21.362C9.16617 21.7417 8.81734 22.0425 8.45823 22.0425C8.09913 22.0425 7.67578 21.7761 7.67578 21.3964V11.9097C7.67578 11.6675 7.79635 11.4432 7.99308 11.3192C8.18989 11.1952 8.52947 11.1448 8.73097 11.2601L16.9907 16.1065L25.3969 11.1813C25.5983 11.0645 25.8326 11.0575 26.0303 11.1813Z" fill="url(#paint1_linear)"/>
<path fill-rule="evenodd" clip-rule="evenodd" d="M15.5745 2.91123C16.4289 2.38295 17.0707 2.07519 17.9219 2.60876L27.3485 8.12888C27.9668 8.51643 28.1888 9.23919 27.8024 9.85925C27.416 10.4794 26.5665 10.3647 25.9482 9.97707L16.9904 4.72607L6.55769 10.8285V22.4156L16.9904 28.508L25.9854 23.2481C26.6185 22.8852 27.6575 22.7247 28.0192 23.3596C28.3809 23.9946 28.0561 24.7045 27.4231 25.0673L18.7571 30.1293C17.9692 30.5809 16.694 31.0235 15.6118 30.3606L5.6262 24.5002C4.76581 24.04 4.32211 23.6633 4.32211 22.6854V11.0024C4.3049 10.0487 4.55409 9.32524 5.36538 8.88507L15.5745 2.91123Z" fill="url(#paint2_linear)"/>
<path d="M63.8204 19.2188V16.462C64.1563 15.9461 64.9081 15.5592 65.5638 15.5592C66.7474 15.5592 67.5312 16.4781 67.5312 17.8323C67.5312 19.1865 66.7474 20.0893 65.5638 20.0893C64.9081 20.0893 64.1563 19.7185 63.8204 19.2188ZM63.8204 21.7176V20.7181C64.4282 21.4919 65.2759 21.911 66.2036 21.911C68.155 21.911 69.6263 20.4278 69.6263 17.8323C69.6263 15.2851 68.171 13.7375 66.2036 13.7375C65.2919 13.7375 64.4282 14.1405 63.8204 14.9305V10.9646H61.7891V21.7176H63.8204Z" fill="white"/>
<path d="M74.7425 21.911C77.3022 21.911 78.8373 20.041 78.8373 17.8162C78.8373 15.6076 77.3022 13.7375 74.7425 13.7375C72.1999 13.7375 70.6641 15.6076 70.6641 17.8162C70.6641 20.041 72.1999 21.911 74.7425 21.911ZM74.7425 20.0893C73.4794 20.0893 72.7752 19.0415 72.7752 17.8162C72.7752 16.6071 73.4794 15.5593 74.7425 15.5593C76.0064 15.5593 76.7262 16.6071 76.7262 17.8162C76.7262 19.0415 76.0064 20.0893 74.7425 20.0893Z" fill="white"/>
<path d="M86.8518 21.7175L84.0849 17.7195L86.6759 13.9309H84.4046L82.821 16.333L81.2218 13.9309H78.9505L81.5259 17.7195L78.791 21.7175H81.046L82.821 19.0897L84.5804 21.7175H86.8518Z" fill="white"/>
<path d="M41.6781 21.937C44.0293 21.937 45.3729 20.6312 46.1406 19.293L44.1893 18.3419C43.7414 19.2286 42.7817 19.9057 41.6781 19.9057C39.7427 19.9057 38.3352 18.4064 38.3352 16.3751C38.3352 14.3438 39.7427 12.8446 41.6781 12.8446C42.7817 12.8446 43.7414 13.5378 44.1893 14.4083L46.1406 13.441C45.3888 12.103 44.0293 10.8132 41.6781 10.8132C38.4792 10.8132 36 13.0702 36 16.3751C36 19.68 38.4792 21.937 41.6781 21.937Z" fill="url(#paint3_linear)"/>
<path d="M59.0564 21.7434V10.9905H55.8574L53.2663 17.4874L50.6751 10.9905H47.4922V21.7434H49.7635V14.2148L52.7705 21.7434H53.7621L56.7691 14.2148V21.7434H59.0564Z" fill="url(#paint4_linear)"/>
<defs>
<linearGradient id="paint0_linear" x1="10.2292" y1="15.9597" x2="24.0111" y2="16.0633" gradientUnits="userSpaceOnUse">
<stop stop-color="#1758A0"/>
<stop offset="1" stop-color="#0A3D76"/>
</linearGradient>
<linearGradient id="paint1_linear" x1="7.67578" y1="15.943" x2="26.3028" y2="16.1941" gradientUnits="userSpaceOnUse">
<stop stop-color="#CD1732"/>
<stop offset="0.5" stop-color="#B6142C"/>
<stop offset="1" stop-color="#8B1022"/>
</linearGradient>
<linearGradient id="paint2_linear" x1="4.32129" y1="14.8984" x2="28.1696" y2="15.0573" gradientUnits="userSpaceOnUse">
<stop stop-color="#B6142C"/>
<stop offset="1" stop-color="#A62E41"/>
</linearGradient>
<linearGradient id="paint3_linear" x1="36" y1="15.7415" x2="59.0511" y2="16.1201" gradientUnits="userSpaceOnUse">
<stop stop-color="#B6142C"/>
<stop offset="1" stop-color="#A62E41"/>
</linearGradient>
<linearGradient id="paint4_linear" x1="35.9997" y1="15.7414" x2="59.0508" y2="16.1201" gradientUnits="userSpaceOnUse">
<stop stop-color="#B6142C"/>
<stop offset="1" stop-color="#A62E41"/>
</linearGradient>
</defs>
</svg>
