<svg width="100" height="105" viewBox="0 0 100 105" fill="none" xmlns="http://www.w3.org/2000/svg">
<g filter="url(#filter0_d)">
<path fill-rule="evenodd" clip-rule="evenodd" d="M82.771 28.4289L82.7735 28.4905C82.9498 37.7905 83.1691 49.3648 79.2899 59.8819C77.163 65.6494 73.9446 70.6631 69.7247 74.7845C64.9207 79.4762 58.6295 83.2032 51.0263 85.8622C50.7774 85.9492 50.5182 86.0199 50.2561 86.0724C49.887 86.1461 49.5143 86.183 49.1422 86.183C48.7701 86.183 48.398 86.1461 48.0283 86.0724C47.7662 86.0199 47.5089 85.9498 47.2612 85.8634C39.6489 83.2092 33.3511 79.484 28.5428 74.7918C24.3211 70.6715 21.1027 65.6591 18.9776 59.8928C15.1129 49.407 15.3328 37.8545 15.5098 28.5721L15.5134 28.4289C15.5478 27.663 15.5714 26.8584 15.5847 25.9692C15.6493 21.6031 19.1202 17.9921 23.4857 17.7486C32.5888 17.24 39.6308 14.2717 45.6478 8.40696L45.6991 8.35803C47.6623 6.55855 50.6227 6.55855 52.5853 8.35803L52.6367 8.40696C58.6536 14.2717 65.6957 17.24 74.7988 17.748C79.1648 17.9921 82.6351 21.6031 82.6998 25.9686C82.7137 26.8638 82.7366 27.6684 82.771 28.4289ZM29.4096 46.597C29.4096 57.4772 38.2608 66.3284 49.141 66.3284C60.0206 66.3284 68.8724 57.4772 68.8724 46.597C68.8724 35.7168 60.0206 26.8656 49.141 26.8656C38.2608 26.8656 29.4096 35.7168 29.4096 46.597ZM34.0532 46.597C34.0532 38.2792 40.8204 31.512 49.1389 31.512C57.4567 31.512 64.2239 38.2792 64.2239 46.597C64.2239 54.9154 57.4567 61.6827 49.1389 61.6827C40.8204 61.6827 34.0532 54.9154 34.0532 46.597ZM47.2881 54.5633L58.0952 43.7561C59.0025 42.8488 59.0025 41.378 58.0952 40.4713C57.1879 39.564 55.717 39.564 54.8103 40.4713L45.645 49.636L43.1575 47.1485C42.2502 46.2412 40.7794 46.2412 39.8727 47.1485C38.9654 48.0558 38.9654 49.5267 39.8727 50.4334L44.0026 54.5633C44.4562 55.0175 45.0506 55.244 45.645 55.244C46.2394 55.244 46.8344 55.0169 47.2881 54.5633Z" fill="url(#paint0_linear)"/>
<path fill-rule="evenodd" clip-rule="evenodd" d="M82.771 28.4289L82.7735 28.4905C82.9498 37.7905 83.1691 49.3648 79.2899 59.8819C77.163 65.6494 73.9446 70.6631 69.7247 74.7845C64.9207 79.4762 58.6295 83.2032 51.0263 85.8622C50.7774 85.9492 50.5182 86.0199 50.2561 86.0724C49.887 86.1461 49.5143 86.183 49.1422 86.183C48.7701 86.183 48.398 86.1461 48.0283 86.0724C47.7662 86.0199 47.5089 85.9498 47.2612 85.8634C39.6489 83.2092 33.3511 79.484 28.5428 74.7918C24.3211 70.6715 21.1027 65.6591 18.9776 59.8928C15.1129 49.407 15.3328 37.8545 15.5098 28.5721L15.5134 28.4289C15.5478 27.663 15.5714 26.8584 15.5847 25.9692C15.6493 21.6031 19.1202 17.9921 23.4857 17.7486C32.5888 17.24 39.6308 14.2717 45.6478 8.40696L45.6991 8.35803C47.6623 6.55855 50.6227 6.55855 52.5853 8.35803L52.6367 8.40696C58.6536 14.2717 65.6957 17.24 74.7988 17.748C79.1648 17.9921 82.6351 21.6031 82.6998 25.9686C82.7137 26.8638 82.7366 27.6684 82.771 28.4289ZM29.4096 46.597C29.4096 57.4772 38.2608 66.3284 49.141 66.3284C60.0206 66.3284 68.8724 57.4772 68.8724 46.597C68.8724 35.7168 60.0206 26.8656 49.141 26.8656C38.2608 26.8656 29.4096 35.7168 29.4096 46.597ZM34.0532 46.597C34.0532 38.2792 40.8204 31.512 49.1389 31.512C57.4567 31.512 64.2239 38.2792 64.2239 46.597C64.2239 54.9154 57.4567 61.6827 49.1389 61.6827C40.8204 61.6827 34.0532 54.9154 34.0532 46.597ZM47.2881 54.5633L58.0952 43.7561C59.0025 42.8488 59.0025 41.378 58.0952 40.4713C57.1879 39.564 55.717 39.564 54.8103 40.4713L45.645 49.636L43.1575 47.1485C42.2502 46.2412 40.7794 46.2412 39.8727 47.1485C38.9654 48.0558 38.9654 49.5267 39.8727 50.4334L44.0026 54.5633C44.4562 55.0175 45.0506 55.244 45.645 55.244C46.2394 55.244 46.8344 55.0169 47.2881 54.5633Z" fill="url(#paint1_linear)"/>
<path d="M20.7943 74.0167L20.7959 74.0145C21.6166 72.904 22.8189 72.2877 24.511 72.2135C25.2884 72.1794 26.0943 72.2708 26.9315 72.4939C27.8112 72.7284 28.6886 73.0103 29.5638 73.3399L30.5747 73.7205L30.5781 72.6403L30.5902 68.8141L30.5918 68.2948L30.1063 68.1105C28.9187 67.6597 28.0371 67.3683 27.1603 67.1951C26.2776 67.0208 25.4294 66.972 24.312 66.9753L24.2967 66.9753L24.2813 66.976C21.9352 67.0789 19.8695 67.635 18.1085 68.6696C16.3526 69.6971 15.0262 71.1354 14.1424 72.97C13.2601 74.7909 12.8827 76.8649 12.9838 79.1701C13.1428 82.7942 14.213 85.6514 16.2961 87.6203L16.2975 87.6216C18.3856 89.5851 21.2706 90.4327 24.8347 90.2764C27.2969 90.1684 29.5318 89.6957 31.5291 88.8461L32.0076 88.6426L31.9849 88.1231L31.8196 84.3552L31.7748 83.3326L30.8132 83.6835C28.5322 84.516 26.6236 84.9504 25.0726 85.0184C23.2548 85.0981 21.9919 84.6146 21.144 83.6852C20.2734 82.7308 19.7267 81.1841 19.6269 78.9078C19.5319 76.7433 19.9548 75.1437 20.7943 74.0167Z" fill="url(#paint2_linear)" stroke="#172340" stroke-width="1.5"/>
<path d="M46.6395 89.8636L46.8109 90.3754H47.3507H51.7291H52.2565L52.4349 89.879L56.7253 77.9383C56.7209 78.0516 56.7173 78.1479 56.7146 78.2273L56.7145 78.2273L56.7143 78.2401C56.7039 78.8459 56.6987 79.3825 56.6987 79.8493V89.6254V90.3754H57.4487H61.9042H62.6542V89.6254V68.9712V68.2212H61.9042H55.3983H54.8703L54.6922 68.7183L49.7135 82.6164L45.0241 68.7312L44.8519 68.2212H44.3135H37.8076H37.0576V68.9712V89.6254V90.3754H37.8076H42.0781H42.8281V89.6254V80.0188C42.8281 79.6109 42.8151 79.06 42.7893 78.3671L46.6395 89.8636Z" fill="url(#paint3_linear)" stroke="#172340" stroke-width="1.5"/>
<path d="M74.1058 77.3899V73.3095H74.741C76.174 73.3095 77.0935 73.5164 77.6146 73.8259L77.6146 73.826L77.6186 73.8283C78.0479 74.0798 78.3087 74.4976 78.3087 75.272C78.3087 76.0667 78.047 76.5311 77.6093 76.8249C77.1069 77.162 76.2223 77.3899 74.8294 77.3899H74.1058ZM86.6068 89.1854C85.6809 87.9071 83.7412 85.1544 80.7842 80.9219C81.7814 80.3852 82.6023 79.6989 83.2276 78.8547L83.2297 78.8518C84.0245 77.7678 84.4211 76.5283 84.4211 75.159C84.4211 72.8921 83.6441 71.0919 82.005 69.9046C80.4104 68.7399 78.0529 68.2212 75.0652 68.2212H68.7876H68.0376V68.9712V89.6254V90.3754H68.7876H73.3558H74.1058V89.6254V82.45H75.3799L80.3011 90.0337L80.5228 90.3754H80.9302H85.9995H87.4688L86.6068 89.1854Z" fill="url(#paint4_linear)" stroke="#172340" stroke-width="1.5"/>
</g>
<defs>
<filter id="filter0_d" x="-10" y="-4" width="120" height="120" filterUnits="userSpaceOnUse" color-interpolation-filters="sRGB">
<feFlood flood-opacity="0" result="BackgroundImageFix"/>
<feColorMatrix in="SourceAlpha" type="matrix" values="0 0 0 0 0 0 0 0 0 0 0 0 0 0 0 0 0 0 127 0"/>
<feOffset dy="3"/>
<feGaussianBlur stdDeviation="5"/>
<feColorMatrix type="matrix" values="0 0 0 0 0 0 0 0 0 0 0 0 0 0 0 0 0 0 0.4 0"/>
<feBlend mode="normal" in2="BackgroundImageFix" result="effect1_dropShadow"/>
<feBlend mode="normal" in="SourceGraphic" in2="effect1_dropShadow" result="shape"/>
</filter>
<linearGradient id="paint0_linear" x1="8.51859" y1="1.03891" x2="81.4744" y2="83.2062" gradientUnits="userSpaceOnUse">
<stop stop-color="#EFEFEF"/>
<stop offset="1" stop-color="#989898"/>
</linearGradient>
<linearGradient id="paint1_linear" x1="28.4481" y1="9.15153" x2="68.8688" y2="62.3431" gradientUnits="userSpaceOnUse">
<stop stop-color="#CDCDCD"/>
<stop offset="1" stop-color="white"/>
</linearGradient>
<linearGradient id="paint2_linear" x1="18.8467" y1="65.7134" x2="31.3768" y2="69.6533" gradientUnits="userSpaceOnUse">
<stop stop-color="#FF9B00"/>
<stop offset="1" stop-color="#FFC738"/>
</linearGradient>
<linearGradient id="paint3_linear" x1="45.8398" y1="66.8402" x2="61.0863" y2="75.0838" gradientUnits="userSpaceOnUse">
<stop stop-color="#FF9B00"/>
<stop offset="1" stop-color="#FFC738"/>
</linearGradient>
<linearGradient id="paint4_linear" x1="68.7876" y1="68.9712" x2="89.1032" y2="85.9009" gradientUnits="userSpaceOnUse">
<stop stop-color="#FFBA1D"/>
<stop offset="1" stop-color="#E8A81B"/>
</linearGradient>
</defs>
</svg>
