<svg width="35" height="35" viewBox="0 0 35 35" fill="none" xmlns="http://www.w3.org/2000/svg">
<path d="M17.5 35C27.165 35 35 27.165 35 17.5C35 7.83502 27.165 0 17.5 0C7.83502 0 0 7.83502 0 17.5C0 27.165 7.83502 35 17.5 35Z" fill="#9ED9F7"/>
<path d="M17.5004 6.62013C16.7136 6.62013 15.9466 6.70496 15.2075 6.86458C14.3476 6.40281 13.3648 6.14038 12.3205 6.14038C8.94521 6.14038 6.20898 8.8766 6.20898 12.2519C6.20898 13.2962 6.47148 14.279 6.93318 15.1389C6.77356 15.878 6.68873 16.645 6.68873 17.4318C6.68873 20.4348 7.91332 23.1515 9.89 25.1107L9.84064 25.1599L19.5596 34.8789C27.5901 33.9374 33.9574 27.5598 34.8832 19.5245L25.1797 9.82099L25.1793 9.8214C23.2201 7.84472 20.5034 6.62013 17.5004 6.62013Z" fill="#73C8F0"/>
<path d="M28.0678 19.7243C28.2273 18.9853 28.3122 18.2185 28.3122 17.4318C28.3122 11.4607 23.4716 6.62013 17.5005 6.62013C16.7138 6.62013 15.947 6.70489 15.208 6.86451C14.3481 6.40268 13.365 6.14038 12.3205 6.14038C8.94521 6.14038 6.20898 8.8766 6.20898 12.2519C6.20898 13.2964 6.47121 14.2795 6.93312 15.1394C6.7735 15.8784 6.68873 16.6452 6.68873 17.4318C6.68873 23.403 11.5293 28.2436 17.5005 28.2436C18.2871 28.2436 19.0539 28.1588 19.7929 27.9992C20.6528 28.461 21.6359 28.7233 22.6804 28.7233C26.0557 28.7233 28.7919 25.9871 28.7919 22.6118C28.7919 21.5673 28.5297 20.5842 28.0678 19.7243Z" fill="#2896FF"/>
<path d="M20.9055 14.1162C20.4491 13.6614 18.9064 12.8704 17.5064 12.8704C16.4253 12.8704 15.4953 13.2132 15.4953 14.2942C15.4953 15.4206 16.824 15.7037 18.3784 16.0916C20.6422 16.702 22.4359 17.3737 22.4359 19.8288C22.4359 20.5051 22.3083 21.0835 22.0534 21.564C21.798 22.0445 21.4541 22.4332 21.0211 22.7296C19.4054 23.8362 16.8434 23.7413 14.9436 23.1567C14.0182 22.872 13.1876 22.4688 12.4521 21.9466L13.5378 19.8288C13.7743 20.0653 14.8721 20.8163 16.3674 21.1991C17.4865 21.4863 19.8199 21.637 19.8199 20.078C19.8199 19.1679 18.8486 18.7741 17.8978 18.4941C15.4158 17.7654 12.9682 17.3798 12.9682 14.6856C12.9682 12.1017 15.0173 10.717 17.5775 10.717C18.4672 10.717 19.2859 10.8566 20.0333 11.1353C20.7809 11.4142 21.4331 11.7434 21.991 12.123L20.9055 14.1162Z" fill="white"/>
</svg>
