<svg width="35" height="35" viewBox="0 0 35 35" fill="none" xmlns="http://www.w3.org/2000/svg">
<g clip-path="url(#clip0)">
<path d="M17.4998 35.0004C27.1647 35.0004 34.9996 27.1655 34.9996 17.5006C34.9996 7.83578 27.1647 0.000854492 17.4998 0.000854492C7.83492 0.000854492 0 7.83578 0 17.5006C0 27.1655 7.83492 35.0004 17.4998 35.0004Z" fill="#41B4E6"/>
<path d="M35 17.5003C35 17.0738 34.9839 16.6513 34.9539 16.2325L27.7011 8.97974L7.29883 17.0051L15.1049 24.8112L15.2073 25.1797L15.3398 25.0461L15.3403 25.0467L15.2073 25.1797L23.8422 33.8147C30.3719 31.2745 35 24.9282 35 17.5003Z" fill="#0091C8"/>
<path d="M15.8005 20.0499L23.7091 26.0208L27.7012 8.97974L7.29883 17.0051L13.507 19.0614L24.8371 11.4615L15.8005 20.0499Z" fill="white"/>
<path d="M13.5068 19.0613L15.2071 25.1798L15.8003 20.0498L24.8369 11.4614L13.5068 19.0613Z" fill="#D2D2D7"/>
<path d="M18.3705 21.9903L15.207 25.1796L15.8002 20.0497L18.3705 21.9903Z" fill="#B9B9BE"/>
</g>
<defs>
<clipPath id="clip0">
<rect width="35" height="35" fill="white"/>
</clipPath>
</defs>
</svg>
