<svg width="71" height="71" viewBox="0 0 71 71" fill="none" xmlns="http://www.w3.org/2000/svg">
<path opacity="0.1" fill-rule="evenodd" clip-rule="evenodd" d="M0 35.0655C0 15.8055 15.8055 0 35.0655 0C55.6595 0 70.131 15.8055 70.131 35.0655C70.131 54.3255 54.3255 70.131 35.0655 70.131C15.8055 70.131 0 54.3255 0 35.0655ZM6.95744 35.0655C6.95744 51.2068 19.4808 63.4519 35.0655 63.4519C50.6502 63.4519 64.0085 51.4851 64.0085 35.0655C63.7302 18.0894 50.3719 5.84425 35.0655 5.84425C20.338 5.84425 6.95744 18.3676 6.95744 35.0655ZM10.8541 35.3456C10.8541 21.9952 21.7156 11.1337 35.066 11.1337C48.4165 11.1337 59.2779 21.9952 59.2779 35.3456C59.2779 48.696 48.4165 59.5575 35.066 59.5575C21.7156 59.5575 10.8541 48.696 10.8541 35.3456ZM37.2671 50.5536C42.2843 49.7357 46.0715 46.1799 46.0715 41.9274C46.0715 37.6748 42.2843 34.119 37.2671 33.3012V24.5987C39.7976 25.2202 41.6693 26.849 41.6693 28.7209C41.6693 29.9375 42.6538 30.922 43.8704 30.922C45.087 30.922 46.0715 29.9375 46.0715 28.7209C46.0715 24.4684 42.2843 20.9127 37.2671 20.0947V17.7155C37.2671 16.4989 36.2827 15.5144 35.066 15.5144C33.8494 15.5144 32.865 16.4989 32.865 17.7155V20.0947C27.8478 20.9127 24.0606 24.4684 24.0606 28.7209C24.0606 32.9734 27.8478 36.5292 32.865 37.3471V46.0496C30.3345 45.4282 28.4628 43.7994 28.4628 41.9274C28.4628 40.7108 27.4783 39.7263 26.2617 39.7263C25.0451 39.7263 24.0606 40.7108 24.0606 41.9274C24.0606 46.1799 27.8478 49.7357 32.865 50.5536V52.9543C32.865 54.1709 33.8494 55.1553 35.066 55.1553C36.2827 55.1553 37.2671 54.1709 37.2671 52.9543V50.5536ZM41.2298 41.2095C41.2298 42.9569 39.4827 44.4773 37.1206 45.0574V37.3616C39.4827 37.9417 41.2298 39.4621 41.2298 41.2095ZM33.0111 25.0335C30.6489 25.6136 28.9018 27.134 28.9018 28.8814C28.9018 30.6288 30.6489 32.1492 33.0111 32.7293V25.0335Z" fill="url(#paint0_linear)"/>
<path fill-rule="evenodd" clip-rule="evenodd" d="M16 41.3252C16 26.4952 28.17 14.3252 43 14.3252C58.8571 14.3252 70 26.4952 70 41.3252C70 56.1552 57.83 68.3252 43 68.3252C28.17 68.3252 16 56.1552 16 41.3252ZM21.3571 41.3252C21.3571 53.7538 31 63.1823 43 63.1823C55 63.1823 65.2857 53.9681 65.2857 41.3252C65.0714 28.2538 54.7857 18.8252 43 18.8252C31.66 18.8252 21.3571 28.4681 21.3571 41.3252ZM24.3574 41.5414C24.3574 31.2618 32.7206 22.8986 43.0002 22.8986C53.2799 22.8986 61.6431 31.2618 61.6431 41.5414C61.6431 51.8211 53.2799 60.1843 43.0002 60.1843C32.7206 60.1843 24.3574 51.8211 24.3574 41.5414ZM44.695 53.2514C48.5582 52.6216 51.4743 49.8837 51.4743 46.6094C51.4743 43.3349 48.5582 40.597 44.695 39.9673V33.2665C46.6435 33.745 48.0847 34.9992 48.0847 36.4405C48.0847 37.3773 48.8427 38.1353 49.7795 38.1353C50.7162 38.1353 51.4743 37.3773 51.4743 36.4405C51.4743 33.1662 48.5582 30.4283 44.695 29.7985V27.9665C44.695 27.0297 43.937 26.2717 43.0002 26.2717C42.0635 26.2717 41.3054 27.0297 41.3054 27.9665V29.7985C37.4423 30.4283 34.5262 33.1662 34.5262 36.4405C34.5262 39.7149 37.4423 42.4528 41.3054 43.0826V49.7834C39.357 49.3049 37.9158 48.0507 37.9158 46.6094C37.9158 45.6726 37.1578 44.9146 36.221 44.9146C35.2842 44.9146 34.5262 45.6726 34.5262 46.6094C34.5262 49.8837 37.4423 52.6216 41.3054 53.2514V55.0999C41.3054 56.0367 42.0635 56.7947 43.0002 56.7947C43.937 56.7947 44.695 56.0367 44.695 55.0999V53.2514ZM47.7456 46.0567C47.7456 47.4021 46.4003 48.5728 44.5815 49.0195V43.0938C46.4003 43.5405 47.7456 44.7112 47.7456 46.0567ZM41.418 33.6006C39.5992 34.0473 38.2539 35.218 38.2539 36.5635C38.2539 37.9089 39.5992 39.0796 41.418 39.5263V33.6006Z" fill="url(#paint1_linear)"/>
<defs>
<linearGradient id="paint0_linear" x1="23.377" y1="-7.23578" x2="70.5836" y2="14.642" gradientUnits="userSpaceOnUse">
<stop stop-color="#FF9B00"/>
<stop offset="1" stop-color="#FFC738"/>
</linearGradient>
<linearGradient id="paint1_linear" x1="34" y1="8.75374" x2="70.3485" y2="25.5994" gradientUnits="userSpaceOnUse">
<stop stop-color="#FF9B00"/>
<stop offset="1" stop-color="#FFC738"/>
</linearGradient>
</defs>
</svg>
