<svg width="94" height="94" viewBox="0 0 94 94" fill="none" xmlns="http://www.w3.org/2000/svg">
<circle cx="47" cy="47" r="46" fill="#172340"/>
<circle cx="47" cy="47" r="46.5" stroke="url(#paint0_linear)" stroke-opacity="0.55"/>
<mask id="mask0" mask-type="alpha" maskUnits="userSpaceOnUse" x="1" y="1" width="92" height="92">
<circle cx="47" cy="47" r="46" fill="#172340"/>
</mask>
<g mask="url(#mask0)">
<path d="M62.4656 44.8227C62.4656 53.6726 55.2823 60.849 46.4188 60.849C37.5553 60.849 30.3721 53.6726 30.3721 44.8227C30.3721 35.9727 37.5553 28.7964 46.4188 28.7964C55.2823 28.7964 62.4656 35.9727 62.4656 44.8227Z" fill="#172340"/>
<path d="M62.4656 44.8227C62.4656 53.6726 55.2823 60.849 46.4188 60.849C37.5553 60.849 30.3721 53.6726 30.3721 44.8227C30.3721 35.9727 37.5553 28.7964 46.4188 28.7964C55.2823 28.7964 62.4656 35.9727 62.4656 44.8227Z" stroke="#FF9B00" stroke-width="2"/>
<path d="M62.4656 44.8227C62.4656 53.6726 55.2823 60.849 46.4188 60.849C37.5553 60.849 30.3721 53.6726 30.3721 44.8227C30.3721 35.9727 37.5553 28.7964 46.4188 28.7964C55.2823 28.7964 62.4656 35.9727 62.4656 44.8227Z" stroke="url(#paint1_linear)" stroke-width="2"/>
<path d="M75.2506 86.3421C75.2506 88.8127 74.8316 90.3308 74.0606 91.3183C73.3038 92.2877 72.0651 92.9257 69.9815 93.2951C67.8893 93.666 65.1106 93.7386 61.4483 93.7112C60.0877 93.701 58.6027 93.677 56.9945 93.651C54.3245 93.6078 51.315 93.5592 47.9718 93.5592C45.0066 93.5592 42.243 93.6055 39.7186 93.6479C38.0993 93.6751 36.5783 93.7006 35.1657 93.7112C31.5089 93.7386 28.5362 93.6667 26.1888 93.2922C23.835 92.9167 22.26 92.2581 21.2618 91.2353C20.2875 90.2369 19.7178 88.7392 19.7178 86.3421C19.7178 77.4884 24.1476 71.3502 29.7962 67.3885C35.4801 63.4021 42.3479 61.6638 46.9966 61.6638C51.6777 61.6638 58.7953 63.1625 64.7125 67.0222C70.5869 70.8541 75.2506 76.9838 75.2506 86.3421Z" fill="#172340"/>
<path d="M75.2506 86.3421C75.2506 88.8127 74.8316 90.3308 74.0606 91.3183C73.3038 92.2877 72.0651 92.9257 69.9815 93.2951C67.8893 93.666 65.1106 93.7386 61.4483 93.7112C60.0877 93.701 58.6027 93.677 56.9945 93.651C54.3245 93.6078 51.315 93.5592 47.9718 93.5592C45.0066 93.5592 42.243 93.6055 39.7186 93.6479C38.0993 93.6751 36.5783 93.7006 35.1657 93.7112C31.5089 93.7386 28.5362 93.6667 26.1888 93.2922C23.835 92.9167 22.26 92.2581 21.2618 91.2353C20.2875 90.2369 19.7178 88.7392 19.7178 86.3421C19.7178 77.4884 24.1476 71.3502 29.7962 67.3885C35.4801 63.4021 42.3479 61.6638 46.9966 61.6638C51.6777 61.6638 58.7953 63.1625 64.7125 67.0222C70.5869 70.8541 75.2506 76.9838 75.2506 86.3421Z" stroke="#FF9B00" stroke-width="2"/>
<path d="M75.2506 86.3421C75.2506 88.8127 74.8316 90.3308 74.0606 91.3183C73.3038 92.2877 72.0651 92.9257 69.9815 93.2951C67.8893 93.666 65.1106 93.7386 61.4483 93.7112C60.0877 93.701 58.6027 93.677 56.9945 93.651C54.3245 93.6078 51.315 93.5592 47.9718 93.5592C45.0066 93.5592 42.243 93.6055 39.7186 93.6479C38.0993 93.6751 36.5783 93.7006 35.1657 93.7112C31.5089 93.7386 28.5362 93.6667 26.1888 93.2922C23.835 92.9167 22.26 92.2581 21.2618 91.2353C20.2875 90.2369 19.7178 88.7392 19.7178 86.3421C19.7178 77.4884 24.1476 71.3502 29.7962 67.3885C35.4801 63.4021 42.3479 61.6638 46.9966 61.6638C51.6777 61.6638 58.7953 63.1625 64.7125 67.0222C70.5869 70.8541 75.2506 76.9838 75.2506 86.3421Z" stroke="url(#paint2_linear)" stroke-width="2"/>
</g>
<mask id="mask1" mask-type="alpha" maskUnits="userSpaceOnUse" x="1" y="1" width="92" height="92">
<circle cx="47" cy="47" r="46" fill="#172340"/>
</mask>
<g mask="url(#mask1)">
</g>
<defs>
<linearGradient id="paint0_linear" x1="1" y1="47" x2="98.4444" y2="47" gradientUnits="userSpaceOnUse">
<stop stop-color="white"/>
<stop offset="1" stop-color="white" stop-opacity="0.25"/>
</linearGradient>
<linearGradient id="paint1_linear" x1="29.3721" y1="27.7964" x2="57.8032" y2="25.044" gradientUnits="userSpaceOnUse">
<stop stop-color="#FFC738"/>
<stop offset="1" stop-color="#FF9B00"/>
</linearGradient>
<linearGradient id="paint2_linear" x1="18.7178" y1="60.6638" x2="65.8861" y2="52.9582" gradientUnits="userSpaceOnUse">
<stop stop-color="#FFC738"/>
<stop offset="1" stop-color="#FF9B00"/>
</linearGradient>
</defs>
</svg>
