<svg width="40" height="40" viewBox="0 0 40 40" fill="none" xmlns="http://www.w3.org/2000/svg">
<path d="M11.7694 25.0114C14.5881 28.3834 17.9812 31.0383 21.854 32.917C23.3286 33.6162 25.3005 34.4459 27.4974 34.5881C27.6336 34.5941 27.7639 34.6 27.9001 34.6C29.3746 34.6 30.559 34.0903 31.5242 33.0414C31.5301 33.0355 31.542 33.0236 31.5479 33.0118C31.8914 32.5969 32.2822 32.2236 32.6908 31.8265C32.9691 31.5598 33.2533 31.2813 33.5257 30.9969C34.7871 29.6812 34.7871 28.01 33.5139 26.7359L29.955 23.1742C29.3509 22.546 28.6285 22.2142 27.8705 22.2142C27.1125 22.2142 26.3842 22.546 25.7624 23.1683L23.6424 25.2899C23.447 25.1773 23.2457 25.0765 23.0562 24.9817C22.8193 24.8632 22.6002 24.7506 22.4048 24.6262C20.4743 23.3994 18.7215 21.7993 17.0456 19.7429C16.1988 18.6703 15.6303 17.7695 15.2336 16.8509C15.7902 16.3472 16.3113 15.8198 16.8147 15.3042C16.9923 15.1205 17.1759 14.9368 17.3595 14.753C17.999 14.113 18.3425 13.3722 18.3425 12.6196C18.3425 11.867 18.0049 11.1262 17.3595 10.4862L15.5948 8.72014C15.3875 8.51272 15.1921 8.31123 14.9908 8.10381C14.5999 7.70083 14.1914 7.28599 13.7887 6.91264C13.1787 6.31409 12.4622 6 11.7042 6C10.9522 6 10.2297 6.31409 9.5961 6.91857L7.38138 9.13498C6.57603 9.94095 6.12006 10.9188 6.02531 12.0507C5.9128 13.4671 6.17335 14.9723 6.84843 16.7917C7.88473 19.6066 9.44806 22.2201 11.7694 25.0114ZM7.47021 12.1751C7.54127 11.3869 7.84327 10.7291 8.41176 10.1602L10.6146 7.95566C10.9581 7.62379 11.3371 7.45193 11.7042 7.45193C12.0655 7.45193 12.4326 7.62379 12.7701 7.96751C13.1669 8.33494 13.54 8.72014 13.9426 9.12905C14.144 9.33647 14.3512 9.54389 14.5585 9.75723L16.3232 11.5232C16.6903 11.8907 16.8798 12.264 16.8798 12.6315C16.8798 12.9989 16.6903 13.3722 16.3232 13.7397C16.1396 13.9234 15.956 14.113 15.7724 14.2967C15.2217 14.8538 14.7065 15.3812 14.1381 15.885C14.1262 15.8968 14.1203 15.9027 14.1084 15.9146C13.6169 16.4065 13.6939 16.8746 13.8124 17.2302C13.8183 17.248 13.8242 17.2598 13.8301 17.2776C14.2861 18.374 14.9197 19.417 15.9086 20.6615C17.6852 22.8542 19.5564 24.555 21.6172 25.8647C21.8718 26.0307 22.1442 26.161 22.3988 26.2914C22.6357 26.4099 22.8548 26.5225 23.0502 26.647C23.0739 26.6588 23.0917 26.6707 23.1154 26.6826C23.3108 26.7833 23.5003 26.8307 23.6898 26.8307C24.1635 26.8307 24.4714 26.5285 24.5721 26.4277L26.7868 24.2113C27.1303 23.8676 27.5034 23.6839 27.8705 23.6839C28.3206 23.6839 28.6877 23.9624 28.9187 24.2113L32.4894 27.7789C33.2001 28.4901 33.1941 29.2605 32.4717 30.0131C32.223 30.2798 31.9624 30.5346 31.6841 30.8013C31.2696 31.2043 30.8373 31.6191 30.4465 32.0873C29.7655 32.8221 28.9542 33.1659 27.906 33.1659C27.8054 33.1659 27.6988 33.1599 27.5981 33.154C25.6558 33.0296 23.8497 32.271 22.4936 31.625C18.8103 29.8412 15.577 27.3107 12.8945 24.0987C10.6857 21.4378 9.19935 18.9607 8.21634 16.3057C7.60641 14.676 7.37546 13.3663 7.47021 12.1751Z" fill="url(#paint0_linear)"/>
<defs>
<linearGradient id="paint0_linear" x1="6" y1="6" x2="29.7443" y2="3.71453" gradientUnits="userSpaceOnUse">
<stop stop-color="#FFC738"/>
<stop offset="1" stop-color="#FF9B00"/>
</linearGradient>
</defs>
</svg>
