<svg width="71" height="71" viewBox="0 0 71 71" fill="none" xmlns="http://www.w3.org/2000/svg">
<g clip-path="url(#clip0)">
<g opacity="0.08">
<path fill-rule="evenodd" clip-rule="evenodd" d="M59.8711 18.0903L59.8732 18.1423C60.0221 25.9965 60.2073 35.7713 56.9312 44.6534C55.135 49.5242 52.4169 53.7584 48.8531 57.2391C44.7959 61.2014 39.4828 64.3489 33.0616 66.5946C32.8514 66.668 32.6326 66.7277 32.4112 66.7721C32.0995 66.8343 31.7847 66.8655 31.4705 66.8655C31.1562 66.8655 30.842 66.8343 30.5298 66.7721C30.3084 66.7277 30.0911 66.6685 29.8819 66.5956C23.4531 64.354 18.1344 61.208 14.0736 57.2452C10.5082 53.7655 7.79021 49.5324 5.99553 44.6626C2.73164 35.807 2.91733 26.0505 3.0668 18.2112L3.06987 18.0903C3.09894 17.4434 3.11884 16.7639 3.13006 16.013C3.18465 12.3257 6.11592 9.27604 9.80272 9.07045C17.4906 8.64091 23.4378 6.13408 28.5193 1.18111L28.5627 1.13978C30.2206 -0.379928 32.7209 -0.379928 34.3783 1.13978L34.4217 1.18111C39.5032 6.13408 45.4504 8.64091 53.1383 9.06994C56.8256 9.27604 59.7563 12.3257 59.8109 16.0125C59.8227 16.7685 59.842 17.448 59.8711 18.0903ZM14.8057 33.4338C14.8057 42.6225 22.2808 50.0976 31.4695 50.0976C40.6576 50.0976 48.1333 42.6225 48.1333 33.4338C48.1333 24.2451 40.6576 16.77 31.4695 16.77C22.2808 16.77 14.8057 24.2451 14.8057 33.4338ZM18.7283 33.4339C18.7283 26.4092 24.4434 20.6941 31.4686 20.6941C38.4933 20.6941 44.2084 26.4092 44.2084 33.4339C44.2084 40.4591 38.4933 46.1742 31.4686 46.1742C24.4434 46.1742 18.7283 40.4591 18.7283 33.4339ZM29.9055 40.1617L39.0325 31.0347C39.7987 30.2685 39.7987 29.0263 39.0325 28.2605C38.2663 27.4943 37.0241 27.4943 36.2583 28.2605L28.5179 36.0004L26.4172 33.8997C25.6509 33.1334 24.4087 33.1334 23.643 33.8997C22.8768 34.6659 22.8768 35.9081 23.643 36.6738L27.1309 40.1617C27.514 40.5453 28.016 40.7366 28.5179 40.7366C29.0199 40.7366 29.5224 40.5448 29.9055 40.1617Z" fill="url(#paint0_linear)"/>
</g>
<path fill-rule="evenodd" clip-rule="evenodd" d="M68.0054 29.4466L68.0071 29.491C68.1343 36.1974 68.2924 44.5437 65.4951 52.1278C63.9613 56.2868 61.6405 59.9022 58.5975 62.8742C55.1332 66.2575 50.5966 68.9451 45.1138 70.8625C44.9343 70.9253 44.7474 70.9762 44.5584 71.0141C44.2923 71.0673 44.0235 71.0938 43.7552 71.0938C43.4868 71.0938 43.2185 71.0673 42.9519 71.0141C42.7629 70.9762 42.5773 70.9257 42.3987 70.8634C36.9094 68.9494 32.368 66.2631 28.9007 62.8795C25.8563 59.9083 23.5355 56.2938 22.0031 52.1356C19.2162 44.5742 19.3747 36.2435 19.5024 29.5498L19.505 29.4466C19.5298 28.8943 19.5468 28.314 19.5564 27.6729C19.603 24.5244 22.1059 21.9205 25.2539 21.7449C31.8182 21.3781 36.8964 19.2376 41.2353 15.0085L41.2723 14.9732C42.688 13.6756 44.8228 13.6756 46.238 14.9732L46.2751 15.0085C50.614 19.2376 55.6921 21.3781 62.2564 21.7445C65.4049 21.9205 67.9074 24.5244 67.954 27.6724C67.964 28.318 67.9805 28.8982 68.0054 29.4466ZM29.5257 42.5478C29.5257 50.3937 35.9084 56.7764 43.7543 56.7764C51.5997 56.7764 57.9829 50.3937 57.9829 42.5478C57.9829 34.702 51.5997 28.3193 43.7543 28.3193C35.9084 28.3193 29.5257 34.702 29.5257 42.5478ZM32.8761 42.5477C32.8761 36.5496 37.7561 31.6697 43.7546 31.6697C49.7527 31.6697 54.6326 36.5496 54.6326 42.5477C54.6326 48.5462 49.7527 53.4262 43.7546 53.4262C37.7561 53.4262 32.8761 48.5462 32.8761 42.5477ZM42.42 48.2923L50.2131 40.4991C50.8674 39.8448 50.8674 38.7842 50.2131 38.1304C49.5589 37.4761 48.4982 37.4761 47.8444 38.1304L41.2352 44.7392L39.4414 42.9454C38.7871 42.2911 37.7265 42.2911 37.0726 42.9454C36.4184 43.5996 36.4184 44.6603 37.0726 45.3141L40.0508 48.2923C40.3779 48.6198 40.8065 48.7832 41.2352 48.7832C41.6638 48.7832 42.0928 48.6194 42.42 48.2923Z" fill="url(#paint1_linear)"/>
</g>
<defs>
<linearGradient id="paint0_linear" x1="-2.83747" y1="-5.04144" x2="58.776" y2="64.3515" gradientUnits="userSpaceOnUse">
<stop stop-color="#EFEFEF"/>
<stop offset="1" stop-color="#989898"/>
</linearGradient>
<linearGradient id="paint1_linear" x1="14.4609" y1="9.6953" x2="67.0703" y2="68.9473" gradientUnits="userSpaceOnUse">
<stop stop-color="#EFEFEF"/>
<stop offset="1" stop-color="#989898"/>
</linearGradient>
<clipPath id="clip0">
<rect width="71" height="71" fill="white"/>
</clipPath>
</defs>
</svg>
