<svg width="47" height="47" viewBox="0 0 47 47" fill="none" xmlns="http://www.w3.org/2000/svg">
<g clip-path="url(#clip0)">
<path d="M46.0212 22.5209C46.5695 22.5209 47.0003 22.9517 47.0003 23.5C47.0003 24.0484 46.5695 24.4792 46.0212 24.4792H45.042V22.5209H46.0212Z" fill="#42506E"/>
<path d="M24.4795 22.5209H45.042V24.4792H24.4795V22.5209Z" fill="#42506E"/>
<path d="M42.1042 47H23.5C24.0483 47 24.4792 46.5692 24.4792 46.0208V45.0417H42.1042C43.7296 45.0417 45.0417 43.7296 45.0417 42.1042V24.4792H46.0208C46.5692 24.4792 47 24.0483 47 23.5V42.1042C47 44.8067 44.8067 47 42.1042 47Z" fill="#42506E"/>
<path d="M47 4.89583V23.5C47 22.9517 46.5692 22.5208 46.0208 22.5208H45.0417V4.89583C45.0417 3.27042 43.7296 1.95833 42.1042 1.95833H24.4792V0.979167C24.4792 0.430833 24.0483 0 23.5 0H42.1042C44.8067 0 47 2.19333 47 4.89583Z" fill="#42506E"/>
<path d="M39.167 11.75C39.7153 11.75 40.1462 12.1808 40.1462 12.7292C40.1462 13.2775 39.7153 13.7083 39.167 13.7083H31.3337C30.7853 13.7083 30.3545 13.2775 30.3545 12.7292C30.3545 12.1808 30.7853 11.75 31.3337 11.75H39.167Z" fill="#42506E"/>
<path d="M39.167 31.3334C39.7153 31.3334 40.1462 31.7642 40.1462 32.3125C40.1462 32.8609 39.7153 33.2917 39.167 33.2917H31.3337C30.7853 33.2917 30.3545 32.8609 30.3545 32.3125C30.3545 31.7642 30.7853 31.3334 31.3337 31.3334H39.167Z" fill="#42506E"/>
<path d="M39.167 37.2084C39.7153 37.2084 40.1462 37.6392 40.1462 38.1875C40.1462 38.7359 39.7153 39.1667 39.167 39.1667H31.3337C30.7853 39.1667 30.3545 38.7359 30.3545 38.1875C30.3545 37.6392 30.7853 37.2084 31.3337 37.2084H39.167Z" fill="#42506E"/>
<path d="M24.4788 45.0416V46.0208C24.4788 46.5691 24.048 47 23.4997 47C22.9513 47 22.5205 46.5691 22.5205 46.0208V45.0416H24.4788Z" fill="#42506E"/>
<path d="M22.5205 24.4791H24.4788V45.0416H22.5205V24.4791Z" fill="#42506E"/>
<path d="M22.5205 22.5209H24.4788V24.4792H22.5205V22.5209Z" fill="#42506E"/>
<path d="M22.5205 1.95837H24.4788V22.5209H22.5205V1.95837Z" fill="#42506E"/>
<path d="M24.4788 0.979167V1.95833H22.5205V0.979167C22.5205 0.430833 22.9513 0 23.4997 0C24.048 0 24.4788 0.430833 24.4788 0.979167Z" fill="#42506E"/>
<path d="M1.95801 22.5209H22.5205V24.4792H1.95801V22.5209Z" fill="#42506E"/>
<path d="M15.667 11.75C16.2153 11.75 16.6462 12.1808 16.6462 12.7292C16.6462 13.2775 16.2153 13.7083 15.667 13.7083H12.7295V11.75H15.667Z" fill="#42506E"/>
<path d="M15.3729 37.5021C15.7646 37.8742 15.7646 38.5008 15.3729 38.8729C15.1967 39.0688 14.9421 39.1667 14.6875 39.1667C14.4329 39.1667 14.1783 39.0688 14.0021 38.8729L11.75 36.6208L13.1208 35.25L15.3729 37.5021Z" fill="#42506E"/>
<path d="M14.0021 31.6271C14.3742 31.2355 15.0008 31.2355 15.3729 31.6271C15.7646 31.9992 15.7646 32.6259 15.3729 32.998L13.1208 35.25L11.75 33.8792L14.0021 31.6271Z" fill="#42506E"/>
<path d="M10.373 35.248L11.744 33.8771L13.1149 35.248L11.744 36.619L10.373 35.248Z" fill="#42506E"/>
<path d="M12.7288 13.7084V16.6459C12.7288 17.1942 12.298 17.625 11.7497 17.625C11.2013 17.625 10.7705 17.1942 10.7705 16.6459V13.7084H12.7288Z" fill="#42506E"/>
<path d="M10.7705 11.75H12.7288V13.7083H10.7705V11.75Z" fill="#42506E"/>
<path d="M12.7288 8.81254V11.75H10.7705V8.81254C10.7705 8.26421 11.2013 7.83337 11.7497 7.83337C12.298 7.83337 12.7288 8.26421 12.7288 8.81254Z" fill="#42506E"/>
<path d="M11.7497 33.8792L10.3788 35.25L8.12676 32.998C7.73509 32.6259 7.73509 31.9992 8.12676 31.6271C8.49884 31.2355 9.12551 31.2355 9.49759 31.6271L11.7497 33.8792Z" fill="#42506E"/>
<path d="M10.7712 11.75V13.7083H7.83366C7.28533 13.7083 6.85449 13.2775 6.85449 12.7292C6.85449 12.1808 7.28533 11.75 7.83366 11.75H10.7712Z" fill="#42506E"/>
<path d="M9.49759 38.8729C9.32134 39.0688 9.06676 39.1667 8.81217 39.1667C8.55759 39.1667 8.30301 39.0688 8.12676 38.8729C7.73509 38.5008 7.73509 37.8742 8.12676 37.5021L10.3788 35.25L11.7497 36.6208L9.49759 38.8729Z" fill="#42506E"/>
<path d="M1.95833 22.5209V24.4792H0.979167C0.430833 24.4792 0 24.0484 0 23.5C0 22.9517 0.430833 22.5209 0.979167 22.5209H1.95833Z" fill="#42506E"/>
<path d="M0 4.89583C0 2.19333 2.19333 0 4.89583 0H23.5C22.9517 0 22.5208 0.430833 22.5208 0.979167V1.95833H4.89583C3.27042 1.95833 1.95833 3.27042 1.95833 4.89583V22.5208H0.979167C0.430833 22.5208 0 22.9517 0 23.5V4.89583Z" fill="#42506E"/>
<path d="M1.95833 42.1042C1.95833 43.7296 3.27042 45.0417 4.89583 45.0417H22.5208V46.0208C22.5208 46.5692 22.9517 47 23.5 47H4.89583C2.19333 47 0 44.8067 0 42.1042V23.5C0 24.0483 0.430833 24.4792 0.979167 24.4792H1.95833V42.1042Z" fill="#42506E"/>
</g>
<defs>
<clipPath id="clip0">
<rect width="47" height="47" fill="white"/>
</clipPath>
</defs>
</svg>
