<svg width="232" height="200" viewBox="0 0 232 200" fill="none" xmlns="http://www.w3.org/2000/svg">
<g clip-path="url(#clip0)">
<g filter="url(#filter0_i)">
<path fill-rule="evenodd" clip-rule="evenodd" d="M116.136 108.673C180.16 108.479 232.015 84.1393 231.957 54.3091C231.899 24.4789 179.95 0.454189 115.926 0.648382C51.9018 0.842575 0.0469424 25.1822 0.104849 55.0124C0.162755 84.8426 52.1115 108.867 116.136 108.673ZM18.5801 32.424L41.1727 32.3554L41.2596 77.1085L18.667 77.1771L18.5801 32.424ZM52.6542 32.3206L73.148 32.2584L73.1873 52.4745L85.4937 32.221L107.222 32.1551L94.4194 51.1755L108.297 76.9052L82.8645 76.9823L73.1983 58.1844L73.2349 77.0115L52.741 77.0737L52.6542 32.3206ZM154.012 32.0132L112.654 32.1386L112.741 76.8917L154.099 76.7663L154.077 65.3465L133.46 65.4091L133.448 59.5449L150.115 59.4943L150.096 49.9264L133.43 49.9769L133.418 43.8041L154.035 43.7416L154.012 32.0132ZM158.05 76.7543L174.47 76.7045L176.679 70.0619L189.765 70.0223L192 76.6513L213.605 76.5858L199.691 31.8746L170.432 31.9634L158.05 76.7543Z" fill="#202C4A"/>
</g>
<path d="M182.688 47.9764C181.461 52.044 179.032 60.2716 179.132 60.6416L186.663 60.6188L182.688 47.9764Z" fill="#202B49"/>
</g>
<defs>
<filter id="filter0_i" x="0.104492" y="0.647217" width="231.852" height="110.027" filterUnits="userSpaceOnUse" color-interpolation-filters="sRGB">
<feFlood flood-opacity="0" result="BackgroundImageFix"/>
<feBlend mode="normal" in="SourceGraphic" in2="BackgroundImageFix" result="shape"/>
<feColorMatrix in="SourceAlpha" type="matrix" values="0 0 0 0 0 0 0 0 0 0 0 0 0 0 0 0 0 0 127 0" result="hardAlpha"/>
<feOffset dy="2"/>
<feGaussianBlur stdDeviation="5.5"/>
<feComposite in2="hardAlpha" operator="arithmetic" k2="-1" k3="1"/>
<feColorMatrix type="matrix" values="0 0 0 0 0 0 0 0 0 0 0 0 0 0 0 0 0 0 0.34 0"/>
<feBlend mode="normal" in2="shape" result="effect1_innerShadow"/>
</filter>
<clipPath id="clip0">
<rect width="232" height="200" fill="white"/>
</clipPath>
</defs>
</svg>
