<svg width="35" height="35" viewBox="0 0 35 35" fill="none" xmlns="http://www.w3.org/2000/svg">
<g clip-path="url(#clip0)">
<path d="M17.5 35C27.165 35 35 27.165 35 17.5C35 7.83502 27.165 0 17.5 0C7.83502 0 0 7.83502 0 17.5C0 27.165 7.83502 35 17.5 35Z" fill="#75B73B"/>
<path d="M24.6262 10.3788C23.6115 10.1251 22.1194 9.24872 21.1535 8.89742C17.3825 7.71898 12.3151 8.66172 10.901 13.022C10.7831 13.1399 10.5474 13.1399 10.4296 13.1399C7.60129 16.4395 9.48685 20.4463 9.25114 24.0995C9.17068 25.3873 8.49352 26.526 7.62207 27.4893L14.9558 34.8153C15.7866 34.9363 16.6359 35.0001 17.5003 35.0001C26.1434 35.0001 33.3223 28.734 34.7438 20.4969L24.6262 10.3788Z" fill="#52891D"/>
<path d="M17.0106 7.41342C11.6766 7.66717 7.46738 12.1094 7.48344 17.4493C7.48837 19.0757 7.88102 20.6109 8.57378 21.9675L7.51031 27.1296C7.45282 27.4089 7.70466 27.6535 7.98206 27.5877L13.0403 26.3894C14.3399 27.0368 15.7996 27.4106 17.3444 27.4342C22.7962 27.5175 27.342 23.1887 27.5121 17.7388C27.6941 11.897 22.8727 7.13417 17.0106 7.41342ZM23.0463 22.9644C21.565 24.4457 19.5953 25.2616 17.5003 25.2616C16.2736 25.2616 15.0991 24.9863 14.0094 24.4436L13.3052 24.0926L10.2037 24.8273L10.8565 21.6584L10.5096 20.9787C9.94383 19.8709 9.657 18.6731 9.657 17.4183C9.657 15.3232 10.4729 13.3537 11.9541 11.8723C13.4222 10.4041 15.424 9.57515 17.5004 9.57515C19.5952 9.57515 21.5649 10.391 23.0462 11.8723C24.5275 13.3536 25.3434 15.3233 25.3434 17.4181C25.3435 19.4946 24.5144 21.4963 23.0463 22.9644Z" fill="white"/>
<path d="M22.3613 19.5907L20.421 19.0336C20.1661 18.9605 19.8913 19.0329 19.7054 19.2223L19.2308 19.7056C19.0308 19.9096 18.7273 19.975 18.4625 19.8679C17.5446 19.4964 15.6138 17.7796 15.121 16.9212C14.9785 16.6734 15.0021 16.3639 15.1768 16.1376L15.591 15.6018C15.7533 15.3919 15.7874 15.1098 15.6802 14.8671L14.8639 13.0208C14.6684 12.5787 14.1033 12.4499 13.7341 12.7622C13.1927 13.2202 12.5501 13.9161 12.4721 14.6872C12.3344 16.0466 12.9175 17.7602 15.1219 19.8179C17.6688 22.1953 19.7084 22.5091 21.0365 22.1875C21.7898 22.0052 22.3918 21.2739 22.7714 20.675C23.0306 20.2664 22.8258 19.7242 22.3613 19.5907Z" fill="white"/>
<path d="M24.3363 10.0973L22.8171 11.6544C22.8944 11.7258 22.9714 11.7977 23.0462 11.8725C24.5275 13.3538 25.3433 15.3235 25.3433 17.4183C25.3433 19.4947 24.5143 21.4964 23.0462 22.9646C21.5649 24.4459 19.5952 25.2617 17.5002 25.2617C16.2735 25.2617 15.0991 24.9864 14.0093 24.4437L13.3051 24.0928L10.2036 24.8274L10.2678 24.5162L7.52148 27.3307C7.58205 27.5127 7.77476 27.6366 7.98182 27.5876L13.0401 26.3892C14.3397 27.0367 15.7993 27.4105 17.3441 27.4341C22.796 27.5174 27.3419 23.1886 27.5119 17.7387C27.6059 14.7217 26.3653 11.9927 24.3363 10.0973Z" fill="#D1D1D1"/>
<path d="M22.3619 19.5908L20.4216 19.0337C20.1667 18.9606 19.8919 19.033 19.706 19.2224L19.2314 19.7057C19.0314 19.9096 18.7279 19.9751 18.4631 19.8679C17.9329 19.6534 17.0651 18.9899 16.3313 18.3022L14.9824 19.6848C15.0287 19.7291 15.0748 19.7733 15.1226 19.818C17.6694 22.1954 19.7091 22.5092 21.0372 22.1876C21.7905 22.0053 22.3924 21.274 22.7721 20.6751C23.0312 20.2665 22.8264 19.7243 22.3619 19.5908Z" fill="#D1D1D1"/>
</g>
<defs>
<clipPath id="clip0">
<rect width="35" height="35" fill="white"/>
</clipPath>
</defs>
</svg>
