<svg width="144" height="216" viewBox="0 0 144 216" fill="none" xmlns="http://www.w3.org/2000/svg">
<path d="M8 13.5C7 15 4 22.5 4 24.5V30L25.5 31V22.5L31.5 19H37.5C38.6667 20.8333 41.1 25.1 41.5 27.5C42 30.5 36.5 33.5 35.5 34.5C34.5 35.5 26.5 45 25.5 46.5C24.7 47.7 25.1667 54.3333 25.5 57.5H44.5C45 55.3333 46 50.9 46 50.5C46 50.1 48.3333 47.6667 49.5 46.5L58 39L63.5 30V17.5L54.5 7L40 1.5C33.8333 2.16667 21.4 3.6 21 4C20.5 4.5 9 12 8 13.5Z" fill="#172340"/>
<path d="M46 64.5H26.5L25.5 83H46V64.5Z" fill="#172340"/>
<path d="M84 57C83 58.5 80 66 80 68V75.5L101.5 74.5V66L107.5 62.5H113.5C114.667 64.3333 117.1 68.6 117.5 71C118 74 114.5 79 113.5 80C112.5 81 103.5 89.5 102.5 91C101.7 92.2 101.667 102.333 102 105.5L122 106C122.5 103.833 123.5 96.9 123.5 96.5C123.5 96.1 127.333 93.6667 128.5 92.5L138 83.5L142.5 72L139.5 57L130.5 50.5L116 45C109.833 45.6667 97.4 47.1 97 47.5C96.5 48 85 55.5 84 57Z" fill="#172340"/>
<path d="M122.5 114L102.5 113.5L102 134H122L122.5 114Z" fill="#172340"/>
<path d="M10.5 125C9.5 126.5 2.5 135 2.5 137L2 151.5L26 150.5L28.5 139L34.5 135.5H40.5C41.6667 137.333 44.1 141.6 44.5 144C45 147 41.5 152 40.5 153C39.5 154 30.5 162.5 29.5 164C28.7 165.2 26.6667 180.833 27 184L50.5 183.5C51 181.333 51.5 174.4 51.5 174C51.5 173.6 57.8333 169.667 59 168.5L71 156L73.5 139L68.5 129.5L59 121.5L44.5 115.5C38.3333 116.167 29 117.5 23.5 118.5C19.5339 119.221 11.5 123.5 10.5 125Z" fill="#172340"/>
<path d="M49.5 192.5H27L28 213.5L50.5 214.5L49.5 192.5Z" fill="#172340"/>
<path d="M51.851 185H25.3338V173.093C25.3187 171.071 25.8252 169.083 26.7997 167.339C27.7874 165.608 28.9684 164.007 30.3177 162.57C31.6663 161.032 33.1174 159.647 34.6419 158.232C36.0776 156.906 37.4476 155.505 38.7463 154.032C39.9185 152.712 40.9371 151.251 41.7806 149.678C42.5136 148.313 42.8879 146.768 42.8653 145.201C42.8632 144.124 42.6949 143.054 42.3669 142.032C42.0614 141.085 41.5749 140.213 40.9372 139.47C40.2996 138.726 39.5241 138.127 38.6584 137.709C37.7062 137.256 36.6697 137.03 35.624 137.048C34.3625 136.987 33.1068 137.262 31.9741 137.848C31.1202 138.346 30.4032 139.066 29.8926 139.94C29.3454 140.92 28.9821 142.001 28.8225 143.125C28.6164 144.478 28.5134 145.846 28.5147 147.217V149.201C28.518 149.757 28.5572 150.312 28.632 150.863L28.9104 152.878H0.561031L0.414437 151.34C0.326486 150.432 0.238547 149.54 0.150596 148.694C0.0486299 147.744 -0.000324083 146.788 0.0040024 145.832C-0.0719712 141.207 0.934689 136.632 2.93569 132.51C4.91952 128.562 7.71312 125.126 11.1151 122.449C14.7988 119.591 18.9459 117.46 23.3549 116.156C28.3184 114.683 33.4563 113.958 38.6144 114.003C43.5734 113.95 48.5126 114.666 53.2728 116.126C57.4323 117.416 61.3285 119.502 64.7651 122.279C67.9448 124.903 70.5243 128.241 72.3141 132.048C74.1261 136.028 75.0438 140.391 74.9966 144.802C75.0529 148.035 74.4062 151.239 73.1057 154.17C71.9169 156.779 70.382 159.198 68.5469 161.355C66.7878 163.412 64.8494 165.292 62.7568 166.97C60.7633 168.508 58.9016 170.047 57.1719 171.324C55.7177 172.405 54.35 173.609 53.0823 174.923C52.7339 175.223 52.4457 175.592 52.2343 176.009C52.023 176.426 51.8927 176.884 51.851 177.354V185ZM28.7053 181.508H48.4795V177.2C48.5095 176.263 48.7213 175.341 49.1018 174.492C49.4824 173.643 50.0238 172.884 50.6929 172.262C52.0889 170.825 53.5885 169.503 55.1784 168.308C56.8934 166.985 58.7404 165.555 60.7193 163.985C62.6469 162.457 64.4244 160.73 66.0257 158.832C67.6515 156.923 69.0134 154.785 70.0714 152.478C71.1666 150.008 71.713 147.31 71.6692 144.586C71.7177 140.718 70.9151 136.891 69.3238 133.402C67.764 130.063 65.5038 127.139 62.7129 124.848C59.6055 122.346 56.0811 120.473 52.32 119.326C47.8984 117.967 43.3093 117.303 38.7023 117.356C33.8676 117.314 29.0512 117.987 24.3957 119.356C20.3765 120.536 16.5963 122.475 13.2406 125.079C10.2361 127.441 7.76794 130.473 6.01398 133.956C4.25383 137.567 3.36304 141.576 3.41942 145.632C3.41746 146.46 3.46151 147.287 3.55134 148.109C3.55134 148.463 3.62465 148.832 3.65396 149.201H25.2019V147.155C25.203 145.61 25.3206 144.066 25.5537 142.54C25.7654 140.973 26.2631 139.463 27.0195 138.094C27.823 136.708 28.954 135.563 30.303 134.771C31.9444 133.863 33.7843 133.422 35.6387 133.494C37.191 133.472 38.7283 133.814 40.1388 134.494C41.397 135.128 42.5269 136.011 43.4663 137.094C44.3976 138.191 45.1103 139.473 45.5625 140.863C46.0198 142.254 46.2526 143.715 46.2514 145.186C46.2689 147.335 45.7644 149.453 44.7856 151.34C43.8018 153.149 42.6212 154.832 41.2676 156.355C39.879 157.924 38.411 159.413 36.87 160.816C35.4042 162.17 34.0263 163.555 32.7363 164.955C31.5733 166.193 30.5547 167.572 29.702 169.062C29.0154 170.255 28.6506 171.622 28.6466 173.016L28.7053 181.508Z" fill="#303D61"/>
<path d="M52 216H38.5H25V190H52V216ZM28.3417 212.523H48.5991V193.477H28.4009L28.3417 212.523Z" fill="#303D61"/>
<path d="M46.8342 59H24.0004V48.8279C24.0062 47.1067 24.4618 45.4193 25.3187 43.9453C26.1549 42.497 27.156 41.1582 28.3004 39.9578C29.4303 38.7371 30.6387 37.5328 31.9098 36.3772C33.0917 35.3002 34.218 34.1594 35.284 32.9594C36.2334 31.902 37.0603 30.7331 37.7478 29.4764C38.317 28.4173 38.6092 27.2222 38.5952 26.0098C38.5951 25.1725 38.4571 24.3413 38.1872 23.5522C37.9556 22.8327 37.5874 22.1687 37.1043 21.5991C36.6022 21.0352 36.0002 20.5765 35.331 20.2483C34.5963 19.9073 33.7974 19.7405 32.9927 19.76C32.0166 19.7024 31.0429 19.91 30.1679 20.3622C29.5132 20.7486 28.9711 21.3108 28.5986 21.9898C28.1748 22.7474 27.8926 23.5812 27.7668 24.4473C27.6042 25.5243 27.5203 26.6124 27.5157 27.7024V29.33C27.5164 29.7604 27.5479 30.1901 27.6099 30.6157L27.9081 32.7641H3.50487L3.11253 28.8905C3.03529 28.101 2.99863 27.3079 3.00269 26.5143C2.94527 22.6512 3.80771 18.833 5.51362 15.3982C7.18112 12.1082 9.53462 9.24481 12.403 7.01638C15.4963 4.63438 18.9861 2.8634 22.6978 1.79199C26.8468 0.567943 31.1431 -0.0349254 35.4566 0.00168514C39.5977 -0.0359275 43.7218 0.556287 47.6974 1.75943C51.1987 2.82315 54.4774 4.55642 57.3645 6.8699C60.0551 9.04715 62.2337 11.8297 63.736 15.0076C65.2692 18.3222 66.0426 21.9595 65.9958 25.6354C66.0532 28.3452 65.5166 31.0331 64.4265 33.4965C63.4287 35.674 62.1338 37.6911 60.5817 39.4858C59.112 41.2 57.4824 42.7591 55.7167 44.1406C54.0689 45.4426 52.578 46.6307 51.0871 47.7049C49.9069 48.5914 48.7897 49.5651 47.7444 50.6182C47.2572 51.0251 46.9329 51.605 46.8342 52.2457V59ZM27.6099 55.2404H43.1934V52.1643C43.2212 51.3403 43.4093 50.5306 43.7464 49.7839C44.0835 49.0371 44.5626 48.3687 45.155 47.8188C46.3319 46.6395 47.5908 45.5516 48.9214 44.5637C50.3495 43.4896 51.8718 42.3177 53.5039 41.032C55.0718 39.7885 56.5173 38.3874 57.8196 36.8492C59.1411 35.3157 60.2455 33.5949 61.0995 31.7387C61.9558 29.7828 62.3794 27.6529 62.3393 25.5052C62.3765 22.3994 61.7269 19.3261 60.4404 16.5212C59.1759 13.8399 57.3407 11.4914 55.0733 9.65301C52.54 7.63738 49.6659 6.13044 46.5989 5.20981C42.9668 4.09833 39.1962 3.54988 35.4095 3.58227C31.4417 3.54079 27.4887 4.08887 23.6708 5.20981C20.381 6.1548 17.2856 7.7158 14.5373 9.81575C12.0962 11.7233 10.0875 14.162 8.65229 16.9606C7.23503 19.8642 6.51877 23.0813 6.56507 26.3353C6.56393 26.9984 6.59536 27.6611 6.65922 28.3209V28.8254H23.7807V27.5722C23.7773 26.2747 23.877 24.9792 24.0789 23.6987C24.2765 22.3551 24.7185 21.0626 25.3814 19.8902C26.0889 18.6982 27.0772 17.7125 28.2533 17.0258C29.6761 16.242 31.2727 15.8603 32.8828 15.919C34.2312 15.9001 35.5665 16.1949 36.7905 16.7816C37.8842 17.3221 38.8652 18.0797 39.6781 19.0114C40.4887 19.9592 41.1077 21.0661 41.4985 22.2664C41.8945 23.4492 42.0961 24.6926 42.0949 25.9447C42.1086 27.7949 41.6598 29.6173 40.7923 31.2342C39.9699 32.7524 38.9741 34.1623 37.8263 35.4332C36.6753 36.7294 35.46 37.9626 34.1854 39.1278C32.9927 40.2182 31.8471 41.3575 30.7799 42.4967C29.8401 43.4794 29.0133 44.5717 28.3161 45.7518C27.7803 46.6636 27.4979 47.7113 27.5 48.7791L27.6099 55.2404Z" fill="#303D61"/>
<path d="M47 85H24V63H47V85ZM27.606 81.3439H43.3783V66.6561H27.606V81.3439Z" fill="#303D61"/>
<path d="M123.352 107H99.6763V96.3044C99.6797 94.4846 100.15 92.6998 101.037 91.1396C101.919 89.5797 102.976 88.1371 104.183 86.8424C105.377 85.4868 106.687 84.2261 108.035 82.9519C109.383 81.6776 110.602 80.4576 111.719 79.1562C112.767 77.966 113.681 76.6514 114.441 75.2386C115.093 73.9951 115.425 72.593 115.404 71.1718C115.405 70.1987 115.254 69.2322 114.955 68.3116C114.68 67.455 114.243 66.6663 113.671 65.9935C113.095 65.3205 112.396 64.7765 111.617 64.3939C110.759 63.9817 109.824 63.7779 108.882 63.7974C107.747 63.7405 106.616 63.9876 105.595 64.5159C104.83 64.9728 104.185 65.6254 103.721 66.4137C103.237 67.3007 102.915 68.2754 102.771 69.2876C102.579 70.5108 102.485 71.7486 102.488 72.9883V74.6964C102.491 75.1998 102.525 75.7024 102.591 76.2011L102.835 77.9769H77.5029L77.3745 76.6213C77.2846 75.7808 77.2076 74.9946 77.1306 74.2219C77.0536 73.4492 77.0022 72.541 77.0022 71.6463C76.9491 67.4871 77.8616 63.3774 79.6599 59.6765C81.431 56.1208 83.9312 53.0272 86.9783 50.6211C90.2712 48.0463 93.9831 46.1304 97.9302 44.9683C102.351 43.6363 106.929 42.9745 111.527 43.0027C115.945 42.9523 120.346 43.5965 124.584 44.9141C128.305 46.0579 131.789 47.9294 134.856 50.4314C137.707 52.7789 140.013 55.7835 141.596 59.2156C143.226 62.7909 144.048 66.7165 143.997 70.6838C144.044 73.5922 143.469 76.4743 142.315 79.1156C141.253 81.4579 139.883 83.6302 138.245 85.5682C136.689 87.4172 134.969 89.1057 133.11 90.611C131.325 92.0343 129.669 93.3221 128.115 94.5421C126.817 95.5254 125.59 96.6083 124.443 97.782C123.815 98.3369 123.418 99.1306 123.339 99.9916L123.352 107ZM102.629 103.909H120.399V100.032C120.428 99.194 120.617 98.3706 120.954 97.6113C121.292 96.8519 121.771 96.1723 122.363 95.6131C123.617 94.3249 124.96 93.1376 126.382 92.0614C127.923 90.8685 129.566 89.5807 131.338 88.1573C133.065 86.7794 134.66 85.2266 136.101 83.5212C137.555 81.8024 138.774 79.8768 139.722 77.8007C140.681 75.5815 141.155 73.1632 141.109 70.7245C141.151 67.2335 140.435 63.7788 139.016 60.6254C137.612 57.6168 135.585 54.9805 133.084 52.9121C130.301 50.6579 127.144 48.9708 123.776 47.9371C119.815 46.712 115.705 46.1135 111.578 46.1612C107.238 46.1158 102.915 46.7276 98.739 47.9777C95.1313 49.0249 91.7397 50.7717 88.7373 53.129C86.0383 55.2569 83.8232 57.9939 82.2534 61.1405C80.6794 64.3945 79.8859 68.0066 79.9424 71.6599C79.9363 72.4069 79.9706 73.1537 80.0451 73.8966C80.0451 74.2355 80.1093 74.5744 80.1478 74.9133H99.5351V73.0019C99.5335 71.5992 99.6366 70.1987 99.8432 68.8131C100.038 67.3778 100.496 65.9964 101.191 64.7464C101.912 63.5067 102.92 62.4806 104.119 61.7641C105.584 60.9469 107.226 60.5496 108.882 60.6118C110.269 60.5933 111.642 60.9037 112.901 61.5201C114.032 62.0748 115.045 62.8669 115.877 63.848C116.709 64.8292 117.343 65.9788 117.741 67.2271C118.152 68.4781 118.361 69.7934 118.357 71.1176C118.368 73.0661 117.904 74.9847 117.009 76.6891C116.138 78.3197 115.087 79.8351 113.876 81.2032C112.661 82.629 111.375 83.9865 110.025 85.2699C108.741 86.49 107.457 87.7507 106.314 88.9978C105.277 90.1233 104.364 91.3693 103.592 92.7121C102.966 93.7883 102.637 95.0278 102.642 96.2909L102.629 103.909Z" fill="#303D61"/>
<path d="M124 135H100V112H124V135ZM102.966 131.969H121.021V115.018H102.966V131.969Z" fill="#303D61"/>
</svg>
