<svg width="71" height="71" viewBox="0 0 71 71" fill="none" xmlns="http://www.w3.org/2000/svg">
<g clip-path="url(#clip0)">
<g opacity="0.1">
<circle cx="35.9154" cy="35.9154" r="32.4154" stroke="url(#paint0_linear)" stroke-width="5"/>
<g filter="url(#filter0_dii)">
<path fill-rule="evenodd" clip-rule="evenodd" d="M36.1777 61.5859C50.2923 61.5859 61.7343 50.1438 61.7343 36.0293C61.7343 21.9147 50.2923 10.4727 36.1777 10.4727C22.0632 10.4727 10.6211 21.9147 10.6211 36.0293C10.6211 50.1438 22.0632 61.5859 36.1777 61.5859ZM35.9974 16.5938C36.892 16.5938 37.6172 15.8685 37.6172 14.974C37.6172 14.0794 36.892 13.3542 35.9974 13.3542C35.1029 13.3542 34.3777 14.0794 34.3777 14.974C34.3777 15.8685 35.1029 16.5938 35.9974 16.5938ZM35.9974 59.0672C36.892 59.0672 37.6172 58.342 37.6172 57.4474C37.6172 56.5528 36.892 55.8276 35.9974 55.8276C35.1029 55.8276 34.3777 56.5528 34.3777 57.4474C34.3777 58.342 35.1029 59.0672 35.9974 59.0672ZM17.0998 35.8505C17.0998 36.745 16.3746 37.4702 15.48 37.4702C14.5854 37.4702 13.8602 36.745 13.8602 35.8505C13.8602 34.9559 14.5854 34.2307 15.48 34.2307C16.3746 34.2307 17.0998 34.9559 17.0998 35.8505ZM56.5145 37.4702C57.4091 37.4702 58.1343 36.745 58.1343 35.8505C58.1343 34.9559 57.4091 34.2307 56.5145 34.2307C55.6199 34.2307 54.8947 34.9559 54.8947 35.8505C54.8947 36.745 55.6199 37.4702 56.5145 37.4702ZM53.4551 23.2524C53.4551 24.1469 52.7299 24.8722 51.8353 24.8722C50.9407 24.8722 50.2155 24.1469 50.2155 23.2524C50.2155 22.3578 50.9407 21.6326 51.8353 21.6326C52.7299 21.6326 53.4551 22.3578 53.4551 23.2524ZM51.8353 52.9494C52.7299 52.9494 53.4551 52.2242 53.4551 51.3296C53.4551 50.4351 52.7299 49.7099 51.8353 49.7099C50.9407 49.7099 50.2155 50.4351 50.2155 51.3296C50.2155 52.2242 50.9407 52.9494 51.8353 52.9494ZM39.0563 35.8509C39.0563 36.1718 39.0069 36.4812 38.9153 36.7719C40.61 38.5638 44.8971 42.8867 47.1877 45.1829L47.4006 47.0842L36.8253 38.797C36.5618 38.8709 36.2839 38.9105 35.9967 38.9105C34.3069 38.9105 32.9371 37.5407 32.9371 35.8509C32.9371 34.7105 33.561 33.7159 34.486 33.1896C34.6667 30.6019 34.9524 24.7785 35.0976 21.633L36.3574 20.1932L37.3377 33.1C38.3553 33.597 39.0563 34.6421 39.0563 35.8509ZM20.8793 52.9494C21.7738 52.9494 22.4991 52.2242 22.4991 51.3296C22.4991 50.4351 21.7738 49.7099 20.8793 49.7099C19.9847 49.7099 19.2595 50.4351 19.2595 51.3296C19.2595 52.2242 19.9847 52.9494 20.8793 52.9494ZM22.4991 23.2524C22.4991 24.1469 21.7738 24.8722 20.8793 24.8722C19.9847 24.8722 19.2595 24.1469 19.2595 23.2524C19.2595 22.3578 19.9847 21.6326 20.8793 21.6326C21.7738 21.6326 22.4991 22.3578 22.4991 23.2524Z" fill="url(#paint1_linear)"/>
<path fill-rule="evenodd" clip-rule="evenodd" d="M36.1777 61.5859C50.2923 61.5859 61.7343 50.1438 61.7343 36.0293C61.7343 21.9147 50.2923 10.4727 36.1777 10.4727C22.0632 10.4727 10.6211 21.9147 10.6211 36.0293C10.6211 50.1438 22.0632 61.5859 36.1777 61.5859ZM35.9974 16.5938C36.892 16.5938 37.6172 15.8685 37.6172 14.974C37.6172 14.0794 36.892 13.3542 35.9974 13.3542C35.1029 13.3542 34.3777 14.0794 34.3777 14.974C34.3777 15.8685 35.1029 16.5938 35.9974 16.5938ZM35.9974 59.0672C36.892 59.0672 37.6172 58.342 37.6172 57.4474C37.6172 56.5528 36.892 55.8276 35.9974 55.8276C35.1029 55.8276 34.3777 56.5528 34.3777 57.4474C34.3777 58.342 35.1029 59.0672 35.9974 59.0672ZM17.0998 35.8505C17.0998 36.745 16.3746 37.4702 15.48 37.4702C14.5854 37.4702 13.8602 36.745 13.8602 35.8505C13.8602 34.9559 14.5854 34.2307 15.48 34.2307C16.3746 34.2307 17.0998 34.9559 17.0998 35.8505ZM56.5145 37.4702C57.4091 37.4702 58.1343 36.745 58.1343 35.8505C58.1343 34.9559 57.4091 34.2307 56.5145 34.2307C55.6199 34.2307 54.8947 34.9559 54.8947 35.8505C54.8947 36.745 55.6199 37.4702 56.5145 37.4702ZM53.4551 23.2524C53.4551 24.1469 52.7299 24.8722 51.8353 24.8722C50.9407 24.8722 50.2155 24.1469 50.2155 23.2524C50.2155 22.3578 50.9407 21.6326 51.8353 21.6326C52.7299 21.6326 53.4551 22.3578 53.4551 23.2524ZM51.8353 52.9494C52.7299 52.9494 53.4551 52.2242 53.4551 51.3296C53.4551 50.4351 52.7299 49.7099 51.8353 49.7099C50.9407 49.7099 50.2155 50.4351 50.2155 51.3296C50.2155 52.2242 50.9407 52.9494 51.8353 52.9494ZM39.0563 35.8509C39.0563 36.1718 39.0069 36.4812 38.9153 36.7719C40.61 38.5638 44.8971 42.8867 47.1877 45.1829L47.4006 47.0842L36.8253 38.797C36.5618 38.8709 36.2839 38.9105 35.9967 38.9105C34.3069 38.9105 32.9371 37.5407 32.9371 35.8509C32.9371 34.7105 33.561 33.7159 34.486 33.1896C34.6667 30.6019 34.9524 24.7785 35.0976 21.633L36.3574 20.1932L37.3377 33.1C38.3553 33.597 39.0563 34.6421 39.0563 35.8509ZM20.8793 52.9494C21.7738 52.9494 22.4991 52.2242 22.4991 51.3296C22.4991 50.4351 21.7738 49.7099 20.8793 49.7099C19.9847 49.7099 19.2595 50.4351 19.2595 51.3296C19.2595 52.2242 19.9847 52.9494 20.8793 52.9494ZM22.4991 23.2524C22.4991 24.1469 21.7738 24.8722 20.8793 24.8722C19.9847 24.8722 19.2595 24.1469 19.2595 23.2524C19.2595 22.3578 19.9847 21.6326 20.8793 21.6326C21.7738 21.6326 22.4991 22.3578 22.4991 23.2524Z" fill="url(#paint2_linear)"/>
</g>
</g>
<circle cx="43.3162" cy="43.6841" r="24.8162" stroke="url(#paint3_linear)" stroke-width="5"/>
<path fill-rule="evenodd" clip-rule="evenodd" d="M43.5219 63.1883C54.0673 63.1883 62.616 54.6396 62.616 44.0942C62.616 33.5487 54.0673 25 43.5219 25C32.9765 25 24.4277 33.5487 24.4277 44.0942C24.4277 54.6396 32.9765 63.1883 43.5219 63.1883ZM43.3871 29.5717C44.0555 29.5717 44.5973 29.0298 44.5973 28.3615C44.5973 27.6931 44.0555 27.1513 43.3871 27.1513C42.7188 27.1513 42.1769 27.6931 42.1769 28.3615C42.1769 29.0298 42.7188 29.5717 43.3871 29.5717ZM43.3871 61.3051C44.0555 61.3051 44.5973 60.7633 44.5973 60.095C44.5973 59.4266 44.0555 58.8848 43.3871 58.8848C42.7188 58.8848 42.1769 59.4266 42.1769 60.095C42.1769 60.7633 42.7188 61.3051 43.3871 61.3051ZM29.2682 43.9594C29.2682 44.6278 28.7264 45.1696 28.058 45.1696C27.3896 45.1696 26.8478 44.6278 26.8478 43.9594C26.8478 43.291 27.3896 42.7492 28.058 42.7492C28.7264 42.7492 29.2682 43.291 29.2682 43.9594ZM58.7162 45.1696C59.3846 45.1696 59.9264 44.6278 59.9264 43.9594C59.9264 43.291 59.3846 42.7492 58.7162 42.7492C58.0479 42.7492 57.506 43.291 57.506 43.9594C57.506 44.6278 58.0479 45.1696 58.7162 45.1696ZM56.4301 34.5464C56.4301 35.2148 55.8883 35.7566 55.2199 35.7566C54.5515 35.7566 54.0097 35.2148 54.0097 34.5464C54.0097 33.8781 54.5515 33.3363 55.2199 33.3363C55.8883 33.3363 56.4301 33.8781 56.4301 34.5464ZM55.2199 56.734C55.8883 56.734 56.4301 56.1922 56.4301 55.5238C56.4301 54.8555 55.8883 54.3136 55.2199 54.3136C54.5515 54.3136 54.0097 54.8555 54.0097 55.5238C54.0097 56.1922 54.5515 56.734 55.2199 56.734ZM45.6735 43.9598C45.6735 44.1994 45.6366 44.4304 45.5683 44.6475C46.8346 45.9864 50.0373 49.2159 51.7486 50.9314L51.9076 52.3519L44.0072 46.1608C43.8102 46.2161 43.6023 46.2458 43.3876 46.2458C42.1251 46.2458 41.1016 45.2223 41.1016 43.9598C41.1016 43.1083 41.5673 42.3655 42.2578 41.9721C42.3928 40.0393 42.6063 35.6873 42.7148 33.3367L43.6561 32.261L44.3884 41.9041C45.1493 42.2752 45.6735 43.0563 45.6735 43.9598ZM32.0915 56.734C32.7599 56.734 33.3017 56.1922 33.3017 55.5238C33.3017 54.8555 32.7599 54.3136 32.0915 54.3136C31.4231 54.3136 30.8813 54.8555 30.8813 55.5238C30.8813 56.1922 31.4231 56.734 32.0915 56.734ZM33.3017 34.5464C33.3017 35.2148 32.7599 35.7566 32.0915 35.7566C31.4231 35.7566 30.8813 35.2148 30.8813 34.5464C30.8813 33.8781 31.4231 33.3363 32.0915 33.3363C32.7599 33.3363 33.3017 33.8781 33.3017 34.5464Z" fill="url(#paint4_linear)"/>
<path fill-rule="evenodd" clip-rule="evenodd" d="M43.5219 63.1883C54.0673 63.1883 62.616 54.6396 62.616 44.0942C62.616 33.5487 54.0673 25 43.5219 25C32.9765 25 24.4277 33.5487 24.4277 44.0942C24.4277 54.6396 32.9765 63.1883 43.5219 63.1883ZM43.3871 29.5717C44.0555 29.5717 44.5973 29.0298 44.5973 28.3615C44.5973 27.6931 44.0555 27.1513 43.3871 27.1513C42.7188 27.1513 42.1769 27.6931 42.1769 28.3615C42.1769 29.0298 42.7188 29.5717 43.3871 29.5717ZM43.3871 61.3051C44.0555 61.3051 44.5973 60.7633 44.5973 60.095C44.5973 59.4266 44.0555 58.8848 43.3871 58.8848C42.7188 58.8848 42.1769 59.4266 42.1769 60.095C42.1769 60.7633 42.7188 61.3051 43.3871 61.3051ZM29.2682 43.9594C29.2682 44.6278 28.7264 45.1696 28.058 45.1696C27.3896 45.1696 26.8478 44.6278 26.8478 43.9594C26.8478 43.291 27.3896 42.7492 28.058 42.7492C28.7264 42.7492 29.2682 43.291 29.2682 43.9594ZM58.7162 45.1696C59.3846 45.1696 59.9264 44.6278 59.9264 43.9594C59.9264 43.291 59.3846 42.7492 58.7162 42.7492C58.0479 42.7492 57.506 43.291 57.506 43.9594C57.506 44.6278 58.0479 45.1696 58.7162 45.1696ZM56.4301 34.5464C56.4301 35.2148 55.8883 35.7566 55.2199 35.7566C54.5515 35.7566 54.0097 35.2148 54.0097 34.5464C54.0097 33.8781 54.5515 33.3363 55.2199 33.3363C55.8883 33.3363 56.4301 33.8781 56.4301 34.5464ZM55.2199 56.734C55.8883 56.734 56.4301 56.1922 56.4301 55.5238C56.4301 54.8555 55.8883 54.3136 55.2199 54.3136C54.5515 54.3136 54.0097 54.8555 54.0097 55.5238C54.0097 56.1922 54.5515 56.734 55.2199 56.734ZM45.6735 43.9598C45.6735 44.1994 45.6366 44.4304 45.5683 44.6475C46.8346 45.9864 50.0373 49.2159 51.7486 50.9314L51.9076 52.3519L44.0072 46.1608C43.8102 46.2161 43.6023 46.2458 43.3876 46.2458C42.1251 46.2458 41.1016 45.2223 41.1016 43.9598C41.1016 43.1083 41.5673 42.3655 42.2578 41.9721C42.3928 40.0393 42.6063 35.6873 42.7148 33.3367L43.6561 32.261L44.3884 41.9041C45.1493 42.2752 45.6735 43.0563 45.6735 43.9598ZM32.0915 56.734C32.7599 56.734 33.3017 56.1922 33.3017 55.5238C33.3017 54.8555 32.7599 54.3136 32.0915 54.3136C31.4231 54.3136 30.8813 54.8555 30.8813 55.5238C30.8813 56.1922 31.4231 56.734 32.0915 56.734ZM33.3017 34.5464C33.3017 35.2148 32.7599 35.7566 32.0915 35.7566C31.4231 35.7566 30.8813 35.2148 30.8813 34.5464C30.8813 33.8781 31.4231 33.3363 32.0915 33.3363C32.7599 33.3363 33.3017 33.8781 33.3017 34.5464Z" fill="url(#paint5_linear)"/>
</g>
<defs>
<filter id="filter0_dii" x="-166.379" y="-166.527" width="287.113" height="287.113" filterUnits="userSpaceOnUse" color-interpolation-filters="sRGB">
<feFlood flood-opacity="0" result="BackgroundImageFix"/>
<feColorMatrix in="SourceAlpha" type="matrix" values="0 0 0 0 0 0 0 0 0 0 0 0 0 0 0 0 0 0 127 0"/>
<feOffset dx="-59" dy="-59"/>
<feGaussianBlur stdDeviation="59"/>
<feColorMatrix type="matrix" values="0 0 0 0 0.529412 0 0 0 0 0.380392 0 0 0 0 0.0588235 0 0 0 0.2 0"/>
<feBlend mode="normal" in2="BackgroundImageFix" result="effect1_dropShadow"/>
<feBlend mode="normal" in="SourceGraphic" in2="effect1_dropShadow" result="shape"/>
<feColorMatrix in="SourceAlpha" type="matrix" values="0 0 0 0 0 0 0 0 0 0 0 0 0 0 0 0 0 0 127 0" result="hardAlpha"/>
<feOffset dx="-2" dy="2"/>
<feGaussianBlur stdDeviation="1"/>
<feComposite in2="hardAlpha" operator="arithmetic" k2="-1" k3="1"/>
<feColorMatrix type="matrix" values="0 0 0 0 0.529412 0 0 0 0 0.380392 0 0 0 0 0.0588235 0 0 0 0.5 0"/>
<feBlend mode="normal" in2="shape" result="effect2_innerShadow"/>
<feColorMatrix in="SourceAlpha" type="matrix" values="0 0 0 0 0 0 0 0 0 0 0 0 0 0 0 0 0 0 127 0" result="hardAlpha"/>
<feOffset dx="2" dy="-2"/>
<feGaussianBlur stdDeviation="1"/>
<feComposite in2="hardAlpha" operator="arithmetic" k2="-1" k3="1"/>
<feColorMatrix type="matrix" values="0 0 0 0 1 0 0 0 0 1 0 0 0 0 0.160784 0 0 0 0.3 0"/>
<feBlend mode="normal" in2="effect2_innerShadow" result="effect3_innerShadow"/>
</filter>
<linearGradient id="paint0_linear" x1="0.999998" y1="1.17383" x2="59.1506" y2="-4.45491" gradientUnits="userSpaceOnUse">
<stop stop-color="#FFC738"/>
<stop offset="1" stop-color="#FF9B00"/>
</linearGradient>
<linearGradient id="paint1_linear" x1="10.6211" y1="10.4727" x2="61.7343" y2="61.5859" gradientUnits="userSpaceOnUse">
<stop stop-color="#EAA81B"/>
<stop offset="1" stop-color="#FFBA1D"/>
</linearGradient>
<linearGradient id="paint2_linear" x1="14.6509" y1="3.21408" x2="58.2202" y2="14.4166" gradientUnits="userSpaceOnUse">
<stop stop-color="#FFC738"/>
<stop offset="1" stop-color="#FF9B00"/>
</linearGradient>
<linearGradient id="paint3_linear" x1="16" y1="16.5039" x2="61.4943" y2="12.1002" gradientUnits="userSpaceOnUse">
<stop stop-color="#FFC738"/>
<stop offset="1" stop-color="#FF9B00"/>
</linearGradient>
<linearGradient id="paint4_linear" x1="24.4277" y1="25" x2="62.616" y2="63.1883" gradientUnits="userSpaceOnUse">
<stop stop-color="#EAA81B"/>
<stop offset="1" stop-color="#FFBA1D"/>
</linearGradient>
<linearGradient id="paint5_linear" x1="27.4386" y1="19.5769" x2="59.9905" y2="27.9466" gradientUnits="userSpaceOnUse">
<stop stop-color="#FFC738"/>
<stop offset="1" stop-color="#FF9B00"/>
</linearGradient>
<clipPath id="clip0">
<rect width="71" height="71" fill="white"/>
</clipPath>
</defs>
</svg>
