<svg width="40" height="40" viewBox="0 0 40 40" fill="none" xmlns="http://www.w3.org/2000/svg">
<path d="M25.5667 13.2258C25.5667 16.6845 22.8277 19.4516 19.4938 19.4516C16.1599 19.4516 13.4209 16.6845 13.4209 13.2258C13.4209 9.76711 16.1599 7 19.4938 7C22.8277 7 25.5667 9.76711 25.5667 13.2258Z" stroke="#FF9B00" stroke-width="2"/>
<path d="M25.5667 13.2258C25.5667 16.6845 22.8277 19.4516 19.4938 19.4516C16.1599 19.4516 13.4209 16.6845 13.4209 13.2258C13.4209 9.76711 16.1599 7 19.4938 7C22.8277 7 25.5667 9.76711 25.5667 13.2258Z" stroke="url(#paint0_linear)" stroke-width="2"/>
<path d="M30.871 30.4462C30.871 31.4508 30.7005 31.9425 30.4945 32.2125C30.3057 32.4598 29.9588 32.6867 29.1638 32.8309C28.3576 32.9771 27.2568 33.0096 25.7339 32.998C25.1806 32.9937 24.5687 32.9836 23.9032 32.9726C22.7898 32.9543 21.5266 32.9334 20.1378 32.9334C18.9067 32.9334 17.7446 32.9533 16.6905 32.9714C16.02 32.9828 15.3931 32.9936 14.8198 32.998C13.3026 33.0096 12.1145 32.9779 11.1955 32.8279C10.2718 32.6771 9.76811 32.4286 9.48212 32.1289C9.21603 31.85 9 31.3794 9 30.4462C9 26.9035 10.7213 24.4601 12.9412 22.8676C15.1973 21.2491 17.9256 20.5486 19.7332 20.5486C21.5739 20.5486 24.4093 21.1581 26.7554 22.7234C29.0579 24.2596 30.871 26.6941 30.871 30.4462Z" stroke="#FF9B00" stroke-width="2"/>
<path d="M30.871 30.4462C30.871 31.4508 30.7005 31.9425 30.4945 32.2125C30.3057 32.4598 29.9588 32.6867 29.1638 32.8309C28.3576 32.9771 27.2568 33.0096 25.7339 32.998C25.1806 32.9937 24.5687 32.9836 23.9032 32.9726C22.7898 32.9543 21.5266 32.9334 20.1378 32.9334C18.9067 32.9334 17.7446 32.9533 16.6905 32.9714C16.02 32.9828 15.3931 32.9936 14.8198 32.998C13.3026 33.0096 12.1145 32.9779 11.1955 32.8279C10.2718 32.6771 9.76811 32.4286 9.48212 32.1289C9.21603 31.85 9 31.3794 9 30.4462C9 26.9035 10.7213 24.4601 12.9412 22.8676C15.1973 21.2491 17.9256 20.5486 19.7332 20.5486C21.5739 20.5486 24.4093 21.1581 26.7554 22.7234C29.0579 24.2596 30.871 26.6941 30.871 30.4462Z" stroke="url(#paint1_linear)" stroke-width="2"/>
<defs>
<linearGradient id="paint0_linear" x1="12.4209" y1="6" x2="24.2221" y2="4.88307" gradientUnits="userSpaceOnUse">
<stop stop-color="#FFC738"/>
<stop offset="1" stop-color="#FF9B00"/>
</linearGradient>
<linearGradient id="paint1_linear" x1="8" y1="19.5486" x2="27.5931" y2="16.4193" gradientUnits="userSpaceOnUse">
<stop stop-color="#FFC738"/>
<stop offset="1" stop-color="#FF9B00"/>
</linearGradient>
</defs>
</svg>
