<svg width="34" height="45" viewBox="0 0 34 45" fill="none" xmlns="http://www.w3.org/2000/svg">
<g clip-path="url(#clip0)">
<path d="M6.17749 36.4168C5.72935 36.2013 5.38449 35.8342 5.23218 35.3809L3.28899 29.6044C3.06352 28.934 3.1454 28.226 3.51971 27.6106C3.89402 26.9952 4.51571 26.5465 5.27 26.3474L11.7703 24.6317C12.5343 24.4299 13.3527 24.6554 13.8551 25.2058C14.3569 25.7556 14.4366 26.5129 14.0582 27.135L11.9156 30.6577C18.7595 33.9492 27.339 31.676 31.0406 25.5902L31.7865 24.3641C32.0439 23.9407 32.6385 23.7832 33.1146 24.0122C33.5906 24.2411 33.7678 24.7698 33.5103 25.1931L32.7645 26.4193C30.7223 29.7768 27.332 32.2263 23.2179 33.3164C19.104 34.4063 14.7589 34.0067 10.9831 32.1907C10.0324 31.7335 9.67736 30.6738 10.1914 29.8287L12.3342 26.3059C12.3341 26.306 12.3343 26.3057 12.3342 26.3059C12.3332 26.3046 12.3321 26.3028 12.3309 26.3016C12.33 26.3019 12.3291 26.3021 12.328 26.3023L5.82761 28.0182C5.57592 28.0846 5.36849 28.2343 5.24357 28.4397C5.11864 28.645 5.09134 28.8813 5.16658 29.105L7.10977 34.8816L7.11062 34.8841C7.11241 34.8844 7.11436 34.8847 7.11608 34.8848C7.11589 34.8851 7.11617 34.8846 7.11608 34.8848L7.62742 34.0441C7.88492 33.6208 8.47962 33.4633 8.9557 33.6923C9.43162 33.9212 9.60894 34.4499 9.35145 34.8733L8.84046 35.7134C8.46205 36.3355 7.7057 36.6907 6.91362 36.6182C6.64995 36.5941 6.40088 36.5243 6.17749 36.4168Z" fill="#FFC130"/>
</g>
<g clip-path="url(#clip1)">
<path d="M27.8225 7.60272C28.2706 7.81825 28.6155 8.18533 28.7678 8.63859L30.711 14.4152C30.9365 15.0855 30.8546 15.7936 30.4803 16.409C30.106 17.0244 29.4843 17.473 28.73 17.6721L22.2297 19.3878C21.4657 19.5896 20.6473 19.3642 20.1449 18.8137C19.6431 18.2639 19.5634 17.5066 19.9418 16.8845L22.0844 13.3619C15.2405 10.0703 6.66097 12.3436 2.95935 18.4293L2.21355 19.6555C1.95605 20.0788 1.36151 20.2363 0.885434 20.0074C0.409354 19.7784 0.232197 19.2497 0.489691 18.8264L1.2355 17.6002C3.2777 14.2427 6.66803 11.7932 10.7821 10.7031C14.896 9.61322 19.2411 10.0129 23.0169 11.8288C23.9676 12.286 24.3226 13.3457 23.8086 14.1909L21.6658 17.7137C21.6659 17.7135 21.6657 17.7138 21.6658 17.7137C21.6668 17.7149 21.6679 17.7168 21.6691 17.7179C21.67 17.7176 21.6709 17.7175 21.672 17.7172L28.1724 16.0013C28.4241 15.9349 28.6315 15.7853 28.7564 15.5799C28.8814 15.3745 28.9087 15.1382 28.8334 14.9145L26.8902 9.13797L26.8894 9.13543C26.8876 9.13515 26.8856 9.13479 26.8839 9.13474C26.8841 9.13444 26.8838 9.13489 26.8839 9.13474L26.3726 9.97543C26.1151 10.3988 25.5204 10.5562 25.0443 10.3273C24.5684 10.0984 24.3911 9.56961 24.6486 9.14627L25.1595 8.30618C25.5379 7.68404 26.2943 7.32881 27.0864 7.40134C27.35 7.4254 27.5991 7.49528 27.8225 7.60272Z" fill="#FFC130"/>
</g>
<defs>
<clipPath id="clip0">
<rect width="24.4847" height="22.9654" fill="white" transform="matrix(0.90119 0.433424 -0.519666 0.854369 11.9346 13.7766)"/>
</clipPath>
<clipPath id="clip1">
<rect width="24.4847" height="22.9654" fill="white" transform="matrix(-0.90119 -0.433424 0.519666 -0.854369 22.0654 30.2429)"/>
</clipPath>
</defs>
</svg>
