<svg width="71" height="71" viewBox="0 0 71 71" fill="none" xmlns="http://www.w3.org/2000/svg">
<path opacity="0.1" fill-rule="evenodd" clip-rule="evenodd" d="M49.8204 67.9487H9.97657C6.68096 67.9487 4 65.2698 4 61.9766V5.97205C4 2.67893 6.68096 0 9.97657 0H35.8751V13.9348C35.8751 17.2279 38.556 19.9068 41.8516 19.9068H55.797V61.9766C55.797 65.2698 53.116 67.9487 49.8204 67.9487ZM41.8516 28.0023H17.9453C16.8442 28.0023 15.9531 28.8927 15.9531 29.993C15.9531 31.0933 16.8442 31.9837 17.9453 31.9837H41.8516C42.9528 31.9837 43.8438 31.0933 43.8438 29.993C43.8438 28.8927 42.9528 28.0023 41.8516 28.0023ZM41.8516 35.965H17.9453C16.8442 35.965 15.9531 36.8554 15.9531 37.9557C15.9531 39.056 16.8442 39.9464 17.9453 39.9464H41.8516C42.9528 39.9464 43.8438 39.056 43.8438 37.9557C43.8438 36.8554 42.9528 35.965 41.8516 35.965ZM41.8516 43.9278H17.9453C16.8442 43.9278 15.9531 44.8181 15.9531 45.9185C15.9531 47.0188 16.8442 47.9091 17.9453 47.9091H41.8516C42.9528 47.9091 43.8438 47.0188 43.8438 45.9185C43.8438 44.8181 42.9528 43.9278 41.8516 43.9278ZM33.8829 51.8905H17.9453C16.8442 51.8905 15.9531 52.7809 15.9531 53.8812C15.9531 54.9815 16.8442 55.8719 17.9453 55.8719H33.8829C34.984 55.8719 35.8751 54.9815 35.8751 53.8812C35.8751 52.7809 34.984 51.8905 33.8829 51.8905ZM54.6829 15.0561H42.1552C41.0775 15.0561 40.202 14.1469 40.202 13.0278V0.0182604L54.6829 15.0561Z" fill="url(#paint0_linear)"/>
<path fill-rule="evenodd" clip-rule="evenodd" d="M61.9603 70.3268H30.6905C28.104 70.3268 26 68.2244 26 65.6399V21.6869C26 19.1025 28.104 17 30.6905 17H51.0159V27.9362C51.0159 30.5206 53.1199 32.6231 55.7063 32.6231H66.6508V65.6399C66.6508 68.2244 64.5467 70.3268 61.9603 70.3268ZM55.7063 38.9765H36.9444C36.0802 38.9765 35.3809 39.6753 35.3809 40.5388C35.3809 41.4023 36.0802 42.1011 36.9444 42.1011H55.7063C56.5705 42.1011 57.2698 41.4023 57.2698 40.5388C57.2698 39.6753 56.5705 38.9765 55.7063 38.9765ZM55.7063 45.2257H36.9444C36.0802 45.2257 35.3809 45.9245 35.3809 46.788C35.3809 47.6516 36.0802 48.3503 36.9444 48.3503H55.7063C56.5705 48.3503 57.2698 47.6516 57.2698 46.788C57.2698 45.9245 56.5705 45.2257 55.7063 45.2257ZM55.7063 51.475H36.9444C36.0802 51.475 35.3809 52.1737 35.3809 53.0373C35.3809 53.9008 36.0802 54.5996 36.9444 54.5996H55.7063C56.5705 54.5996 57.2698 53.9008 57.2698 53.0373C57.2698 52.1737 56.5705 51.475 55.7063 51.475ZM49.4524 57.7242H36.9444C36.0802 57.7242 35.3809 58.423 35.3809 59.2865C35.3809 60.15 36.0802 60.8488 36.9444 60.8488H49.4524C50.3166 60.8488 51.0159 60.15 51.0159 59.2865C51.0159 58.423 50.3166 57.7242 49.4524 57.7242ZM66.3647 28.8155H56.5329C55.6871 28.8155 55 28.102 55 27.2237V17.0137L66.3647 28.8155Z" fill="url(#paint1_linear)"/>
<defs>
<linearGradient id="paint0_linear" x1="-1.31025" y1="-5.12312" x2="61.7424" y2="58.4472" gradientUnits="userSpaceOnUse">
<stop stop-color="#989898"/>
<stop offset="1" stop-color="#EFEFEF"/>
</linearGradient>
<linearGradient id="paint1_linear" x1="21.1046" y1="12.9793" x2="69.8912" y2="70.7565" gradientUnits="userSpaceOnUse">
<stop stop-color="#989898"/>
<stop offset="1" stop-color="#EFEFEF"/>
</linearGradient>
</defs>
</svg>
