<svg width="35" height="35" viewBox="0 0 35 35" fill="none" xmlns="http://www.w3.org/2000/svg">
<rect width="35" height="35" rx="8" fill="#F77C00"/>
<path d="M17.4256 17.255C21.0477 17.255 23.9938 14.3091 23.9938 10.6861C23.9938 7.06347 21.0477 4.11761 17.4256 4.11761C13.8034 4.11761 10.8574 7.06347 10.8574 10.6861C10.8574 14.3091 13.8034 17.255 17.4256 17.255ZM17.4256 7.40172C19.2367 7.40172 20.7096 8.87484 20.7096 10.6861C20.7096 12.4974 19.2367 13.9707 17.4256 13.9707C15.6144 13.9707 14.1414 12.4974 14.1414 10.6861C14.1414 8.87484 15.6144 7.40172 17.4256 7.40172Z" fill="white"/>
<path d="M26.1332 17.0726C25.4911 16.4304 24.4531 16.4304 23.8113 17.0726C20.2908 20.5934 14.5599 20.5934 11.0378 17.0726C10.396 16.4304 9.35797 16.4304 8.71592 17.0726C8.07386 17.7145 8.07386 18.7527 8.71592 19.3964C10.7586 21.4391 13.348 22.6037 16.018 22.9071L11.3366 27.5891C10.6948 28.2313 10.6948 29.269 11.3366 29.9111C11.9788 30.5534 13.0164 30.5534 13.6585 29.9111L17.4238 26.1457L21.1891 29.9111C21.5094 30.2313 21.9294 30.3926 22.3499 30.3926C22.7704 30.3926 23.1905 30.2313 23.5107 29.9111C24.1527 29.2689 24.1527 28.2312 23.5107 27.5891L18.8293 22.907C21.4992 22.6037 24.0888 21.4391 26.1314 19.3964C26.7736 18.754 26.7736 17.7145 26.1332 17.0726Z" fill="white"/>
</svg>
