<svg width="34" height="34" viewBox="0 0 34 34" fill="none" xmlns="http://www.w3.org/2000/svg">
<path d="M30.3571 3.64285H26.7143V1.21431C26.7143 0.543653 26.1706 0 25.5 0C24.8293 0 24.2857 0.543653 24.2857 1.21431V3.64285H9.71426V1.21431C9.71426 0.543653 9.1706 0 8.50002 0C7.82943 0 7.28571 0.543653 7.28571 1.21431V3.64285H3.64285C1.63096 3.64285 0 5.27381 0 7.28571V30.3571C0 32.369 1.63096 34 3.64285 34H30.3571C32.369 34 34 32.369 34 30.3571V7.28571C34 5.27381 32.369 3.64285 30.3571 3.64285ZM31.5714 30.3571C31.5714 31.0278 31.0277 31.5715 30.3571 31.5715H3.64285C2.9722 31.5715 2.42855 31.0278 2.42855 30.3571V14.5714H31.5714V30.3571ZM31.5714 12.1429H2.42855V7.28571C2.42855 6.61505 2.9722 6.0714 3.64285 6.0714H7.28571V8.49995C7.28571 9.1706 7.82936 9.71426 8.50002 9.71426C9.17067 9.71426 9.71432 9.1706 9.71432 8.49995V6.0714H24.2857V8.49995C24.2857 9.1706 24.8294 9.71426 25.5001 9.71426C26.1707 9.71426 26.7144 9.1706 26.7144 8.49995V6.0714H30.3572C31.0279 6.0714 31.5715 6.61505 31.5715 7.28571L31.5714 12.1429Z" fill="white" fill-opacity="0.5"/>
<path d="M9.48973 17.0179H7.04803C6.37375 17.0179 5.82715 17.561 5.82715 18.231C5.82715 18.901 6.37375 19.4441 7.04803 19.4441H9.48973C10.164 19.4441 10.7106 18.901 10.7106 18.231C10.7106 17.561 10.164 17.0179 9.48973 17.0179Z" fill="white" fill-opacity="0.5"/>
<path d="M18.0366 17.0179H15.5949C14.9206 17.0179 14.374 17.561 14.374 18.231C14.374 18.901 14.9206 19.4441 15.5949 19.4441H18.0366C18.7109 19.4441 19.2575 18.901 19.2575 18.231C19.2575 17.561 18.7109 17.0179 18.0366 17.0179Z" fill="white" fill-opacity="0.5"/>
<path d="M26.5815 17.0179H24.1398C23.4655 17.0179 22.9189 17.561 22.9189 18.231C22.9189 18.901 23.4655 19.4441 24.1398 19.4441H26.5815C27.2558 19.4441 27.8024 18.901 27.8024 18.231C27.8023 17.561 27.2557 17.0179 26.5815 17.0179Z" fill="white" fill-opacity="0.5"/>
<path d="M9.48973 21.8701H7.04803C6.37375 21.8701 5.82715 22.4132 5.82715 23.0832C5.82715 23.7531 6.37375 24.2962 7.04803 24.2962H9.48973C10.164 24.2962 10.7106 23.7531 10.7106 23.0832C10.7106 22.4132 10.164 21.8701 9.48973 21.8701Z" fill="white" fill-opacity="0.5"/>
<path d="M18.0366 21.8701H15.5949C14.9206 21.8701 14.374 22.4132 14.374 23.0832C14.374 23.7531 14.9206 24.2962 15.5949 24.2962H18.0366C18.7109 24.2962 19.2575 23.7531 19.2575 23.0832C19.2575 22.4132 18.7109 21.8701 18.0366 21.8701Z" fill="white" fill-opacity="0.5"/>
<path d="M26.5815 21.8701H24.1398C23.4655 21.8701 22.9189 22.4132 22.9189 23.0832C22.9189 23.7531 23.4655 24.2962 24.1398 24.2962H26.5815C27.2558 24.2962 27.8024 23.7531 27.8024 23.0832C27.8023 22.4132 27.2557 21.8701 26.5815 21.8701Z" fill="white" fill-opacity="0.5"/>
<path d="M9.48973 26.7223H7.04803C6.37375 26.7223 5.82715 27.2654 5.82715 27.9353C5.82715 28.6053 6.37375 29.1483 7.04803 29.1483H9.48973C10.164 29.1483 10.7106 28.6052 10.7106 27.9353C10.7106 27.2653 10.164 26.7223 9.48973 26.7223Z" fill="white" fill-opacity="0.5"/>
<path d="M18.0366 26.7223H15.5949C14.9206 26.7223 14.374 27.2654 14.374 27.9353C14.374 28.6053 14.9206 29.1484 15.5949 29.1484H18.0366C18.7109 29.1484 19.2575 28.6053 19.2575 27.9353C19.2575 27.2654 18.7109 26.7223 18.0366 26.7223Z" fill="white" fill-opacity="0.5"/>
<path d="M26.5815 26.7223H24.1398C23.4655 26.7223 22.9189 27.2654 22.9189 27.9353C22.9189 28.6053 23.4655 29.1484 24.1398 29.1484H26.5815C27.2558 29.1484 27.8024 28.6053 27.8024 27.9353C27.8024 27.2654 27.2557 26.7223 26.5815 26.7223Z" fill="white" fill-opacity="0.5"/>
</svg>
