<svg width="230" height="200" viewBox="0 0 230 200" fill="none" xmlns="http://www.w3.org/2000/svg">
<g clip-path="url(#clip0)">
<mask id="mask0" mask-type="alpha" maskUnits="userSpaceOnUse" x="0" y="0" width="300" height="134">
<rect width="300" height="134" fill="url(#paint0_linear)"/>
<rect width="300" height="134" fill="url(#paint1_linear)"/>
</mask>
<g mask="url(#mask0)">
<g filter="url(#filter0_i)">
<path d="M28.359 127.587C28.617 127.021 29.1954 125.825 29.4443 125.567C29.7554 125.244 28.3139 125.049 28.9361 124.403C29.5584 123.758 30.1807 123.112 30.0062 122.896C29.8317 122.679 29.5889 122.732 28.9136 123.134C28.2382 123.536 28.7013 122.161 29.7408 121.679C30.7804 121.198 30.7844 120.05 30.4885 119.86C30.1926 119.67 30.1813 119.035 30.5873 118.564C30.9933 118.093 28.0989 117.068 27.0746 117.037C26.0503 117.006 25.0791 117.217 24.6466 117.567C24.214 117.916 23.1937 116.737 23.1141 116.372C23.0345 116.007 22.0898 116.341 21.4715 115.838C20.8532 115.336 21.2897 113.839 20.2389 113.686C19.1881 113.533 19.1158 114.951 18.1598 114.65C17.395 114.409 16.8576 113.15 16.6844 112.551C17.1612 112.404 18.142 112.003 18.2514 111.572C18.388 111.032 17.0944 110.932 16.5975 110.404C16.1006 109.875 15.1864 109.182 14.8833 107.21C14.6407 105.632 13.2193 106.384 12.5388 106.957C12.2556 107.019 11.5547 106.993 11.0176 106.397C10.3463 105.651 9.27289 104.229 9.38302 103.568C9.49314 102.907 8.22607 102.929 8.84834 102.283C9.34615 101.767 8.55774 100.563 8.10131 100.025C8.32775 99.5085 8.81857 98.4161 8.97037 98.1791C9.16011 97.8829 8.08274 97.6083 9.33856 96.952C10.3432 96.427 10.2985 96.1055 10.1506 96.0104C10.5325 96.012 11.2614 95.9719 11.1218 95.7985C10.9473 95.5817 8.18558 95.1649 8.4171 94.4773C8.64862 93.7897 9.11167 92.4145 9.73394 91.7691C10.3562 91.1237 12.5799 87.3256 11.4229 86.6862C10.266 86.0467 8.94582 85.825 8.81314 85.2169C8.68046 84.6087 9.37106 83.6936 9.04864 83.3817C8.72623 83.0698 8.25588 82.6627 8.1232 82.0546C7.99052 81.4464 7.07237 81.9016 7.34569 80.8226C7.61901 79.7436 6.69356 78.4166 7.32711 78.4057C7.96066 78.3949 5.22214 75.1699 5.06292 74.4401C4.9037 73.7104 5.56777 72.6736 5.38201 71.8222C5.19626 70.9708 3.61803 71.3151 2.97718 69.5437C2.33633 67.7722 3.36461 66.656 3.285 66.2911C3.20539 65.9262 3.51653 65.6035 3.86946 64.8894C4.90901 64.4078 5.56909 64.5186 5.53128 63.7623C5.49346 63.0061 5.68316 62.7099 6.22186 62.8472C6.76056 62.9845 7.53475 61.2866 7.92152 62.4763C8.30828 63.6661 8.19813 64.3271 8.71028 64.3428C9.22242 64.3585 9.31729 64.2104 9.6815 64.1309L9.6818 64.1309C10.0461 64.0514 10.7743 63.8925 11.3393 64.1515C11.9046 64.4105 12.9706 64.0503 15.1367 65.2342C17.3027 66.4182 17.5037 66.7565 18.581 67.0311C19.4429 67.2508 20.7508 68.4265 21.297 68.9869C21.498 69.3253 21.8591 70.1641 21.6951 70.8114C21.4901 71.6205 20.8638 73.4136 20.621 73.4665C20.3782 73.5195 19.2551 74.7839 18.595 74.6731C17.9349 74.5623 15.5221 74.579 15.1579 74.6585C14.7937 74.7379 13.3256 74.4212 13.0032 74.1092C12.6807 73.7973 12.1003 74.0514 11.4402 73.9406C10.7801 73.8298 10.0557 72.8411 9.69145 72.9205C9.32724 73 9.89246 73.2589 10.469 74.1525C11.0455 75.046 12.1606 76.0769 12.5248 75.9974C12.8891 75.918 14.4786 76.2085 14.1257 76.9225C13.7727 77.6364 13.8788 78.1229 13.9319 78.3662C13.9744 78.5608 14.5387 79.5929 14.8156 80.0847C14.7649 80.4355 14.7904 81.135 15.2972 81.1263C15.9308 81.1155 16.4316 80.4965 16.5643 81.1047C16.697 81.713 16.7348 82.4691 17.3153 82.215C17.8957 81.961 18.3926 82.4897 18.8252 82.1405C19.2577 81.7913 19.7434 81.6855 19.2465 81.1567C18.7495 80.628 19.3566 80.4955 18.5067 80.6809C17.6569 80.8663 17.6988 80.4752 17.2284 80.068C16.758 79.6609 17.0426 79.2164 16.9895 78.9733C16.9365 78.7301 16.8456 77.7305 17.4108 77.9894C17.976 78.2484 18.6474 78.9938 18.8902 78.9409C19.133 78.8879 19.4972 78.8084 19.9145 78.9722C20.3318 79.136 20.8174 79.0303 20.8705 79.2734C20.9235 79.5166 21.303 78.9241 21.3713 78.6544C21.4396 78.3846 21.4702 77.3586 21.1743 77.1683C20.8784 76.9781 20.4233 76.058 20.761 75.8569C21.0987 75.6558 21.5995 75.0369 21.5465 74.7936C21.4934 74.5504 22.0626 73.6617 22.3585 73.852C22.6543 74.0423 22.8062 72.9898 22.9277 72.9633C23.0491 72.9368 22.8102 71.8422 23.3754 72.1011C23.9407 72.36 23.9407 72.36 24.3049 72.2806C24.6691 72.2011 24.8323 71.7833 25.3292 72.3119C25.8261 72.8406 26.1903 72.7611 26.1637 72.6395C26.1372 72.5179 26.3422 71.7087 26.4105 71.4389C26.4788 71.1692 26.2248 70.5875 25.9972 70.1275C25.7697 69.6675 25.7166 69.4242 25.3259 69.3821C24.9351 69.3399 24.628 68.515 24.7494 68.4885C24.8708 68.462 24.6585 67.489 24.9013 67.436C25.1441 67.3831 25.0532 66.3835 24.9736 66.0187C24.894 65.6538 24.6929 65.3153 24.5185 65.0986L24.518 65.0981C24.3437 64.8816 24.1693 64.6649 23.8737 64.4748C23.5778 64.2845 23.0922 64.3905 23.2819 64.0942C23.4716 63.798 23.4716 63.798 23.8889 63.9618C24.3062 64.1256 24.5755 64.1942 24.6969 64.1678L25.1826 64.0618L25.911 63.9029C26.3966 63.7969 27.0832 64.0296 27.2577 64.2463C27.4322 64.4629 27.6332 64.8013 27.7811 64.8965C27.929 64.9916 28.1566 65.4516 28.3045 65.5468C28.4229 65.6229 28.46 66.065 28.4637 66.2765C28.3019 66.3118 27.9106 66.4227 27.6405 66.5836C27.3028 66.7847 27.2232 66.4198 26.9386 66.8641C26.6122 67.6998 25.9786 67.7106 26.449 68.1177C26.9193 68.5247 27.2152 68.715 27.458 68.662C27.7008 68.6091 27.4693 69.2969 27.8866 69.4606C28.1243 69.5786 28.6916 69.769 29.0588 69.587C29.5179 69.3594 29.9086 69.4015 30.03 69.3751C30.1514 69.3486 30.4892 69.1477 30.4361 68.9043C30.383 68.661 30.034 68.2274 30.2238 67.9312C30.4135 67.635 30.5767 67.2171 30.2808 67.0268C30.0441 66.8746 30.3365 66.5051 30.5124 66.3393C30.7551 66.2863 31.3166 66.0618 31.6202 65.5879C31.9997 64.9954 32.7964 64.5667 33.081 64.1224C33.3656 63.6781 33.4645 62.3823 34.098 62.3715C34.7316 62.3607 34.853 62.3342 35.3804 61.8369C35.9078 61.3396 35.6802 60.8796 36.3556 60.4774C37.0309 60.0752 36.9513 59.7103 37.2207 59.779C37.49 59.8476 37.2054 60.292 37.4064 60.6304C37.6074 60.9688 37.6452 61.7249 38.036 61.7672C38.4267 61.8094 38.7909 61.7299 38.844 61.9731C38.8971 62.2164 39.0032 62.7029 39.2195 62.5283C39.4357 62.3537 39.3031 61.7456 39.3714 61.4758C39.4397 61.2061 39.6295 60.9099 39.9937 60.8304C40.3579 60.7509 40.1569 60.4125 40.5476 60.4547C40.9384 60.4969 40.9118 60.3752 41.3974 60.2693C41.6668 60.3379 42.2487 60.4403 42.4217 60.3006C42.638 60.126 42.7063 59.8563 42.6798 59.7347C42.6532 59.6131 43.8447 58.0789 44.1406 58.2692C44.4365 58.4595 45.017 58.2054 45.0282 58.8401C45.0395 59.4747 44.5121 59.9719 45.0508 60.1093C45.5895 60.2467 45.4946 60.3949 45.8323 60.1937C46.1699 59.9925 45.7832 58.8028 46.4167 58.792C47.0503 58.7811 47.6726 58.1357 47.4715 57.7973C47.2705 57.4589 47.1757 57.607 46.6522 56.9567C46.1288 56.3064 46.087 56.6978 45.9543 56.0897C45.8217 55.4815 45.7686 55.2383 45.4727 55.048C45.1768 54.8577 45.3095 55.4658 44.6912 54.9637C44.0729 54.4615 44.0995 54.5831 43.7087 54.5409C43.318 54.4988 43.2496 54.7685 42.9956 54.1869C42.7415 53.6052 42.3507 53.563 42.6088 52.9971C42.8669 52.4311 42.2904 51.5375 43.1515 51.9868C44.0126 52.436 44.388 52.9911 44.8584 53.3981C45.3287 53.8052 45.8522 54.4555 46.095 54.4025C46.3378 54.3495 47.5253 53.963 48.0374 53.9787C48.5496 53.9944 50.9889 54.0993 51.7551 54.6966C52.5213 55.2939 52.7642 55.2411 53.3294 55.4999C53.8946 55.7588 54.2853 55.801 54.9985 56.1551C55.7117 56.5092 55.7535 56.1178 56.1289 56.673C56.5044 57.2282 56.2616 57.2812 57.0696 57.4871C57.8777 57.693 57.0544 58 57.6196 58.259C58.1848 58.5179 58.4203 56.6828 58.3142 56.1962C58.208 55.7096 57.7908 55.546 57.4949 55.3556C57.199 55.1653 56.5542 54.5415 56.5694 54.0285C56.5847 53.5155 56.2092 52.9603 55.8715 53.1614C55.5339 53.3625 55.439 53.5107 54.8207 53.0085C54.2024 52.5062 54.0432 51.7765 54.4074 51.6971C54.7716 51.6176 54.9195 51.7127 54.692 51.2527C54.4644 50.7926 54.3471 49.6716 54.3205 49.5499C54.294 49.4283 54.6734 48.8358 54.351 48.5239C54.0286 48.212 54.0551 48.3336 53.6644 48.2914C53.2736 48.2493 53.0461 47.7892 53.1828 47.2498C53.3194 46.7103 53.7672 45.8481 54.01 45.7951C54.2528 45.7421 54.822 44.8534 54.8638 44.4621C54.8972 44.149 54.9361 43.0447 54.9514 42.5317L54.8758 41.0192L54.8114 40.1413C54.8317 39.4573 54.9316 38.1274 55.1683 38.2796C55.4642 38.4699 55.1265 38.6711 55.855 38.5121C56.5834 38.3532 56.921 38.1521 57.1904 38.2208C57.4597 38.2894 57.327 37.6813 57.8657 37.8186C58.4044 37.9559 58.4727 37.6862 58.7686 37.8765C59.0645 38.0667 59.4022 37.8657 59.7246 38.1776C60.047 38.4895 60.1684 38.4631 60.2215 38.7062L60.4603 39.8008C60.6195 40.5306 60.4981 40.5571 60.4411 41.4615C60.384 42.3659 60.6686 41.9215 60.2739 43.027C60.1525 43.0535 59.5302 43.6989 59.8526 44.0108C60.175 44.3227 60.0802 44.4708 60.4026 44.7827C60.725 45.0946 61.2106 44.9885 61.3167 45.4751C61.4229 45.9617 61.6922 46.0304 61.6504 46.4217C61.6086 46.8131 61.3811 46.3531 61.6617 47.0564C61.9423 47.7596 61.8627 47.3947 61.9689 47.8813C62.075 48.3678 62.0067 48.6375 61.9118 48.7856C61.8169 48.9337 61.9231 49.4203 62.071 49.5154C62.219 49.6105 62.1772 50.0019 62.2302 50.2452C62.2727 50.4398 62.4527 50.8762 62.5374 51.0701C62.5235 51.2005 62.5062 51.51 62.5487 51.7046L62.6813 52.3128C62.8065 52.4978 63.0379 52.8976 62.962 53.0161C62.8671 53.1642 62.6243 53.2172 62.9998 53.7724C63.3002 54.2165 63.6712 54.5178 63.8191 54.6129L64.7333 55.3054C64.8407 55.4094 65.0124 55.6522 64.8394 55.7919C64.6231 55.9665 64.6079 56.4796 64.513 56.6276C64.4181 56.7757 64.107 57.0985 64.4294 57.4104C64.6874 57.6599 64.8049 57.9655 64.8314 58.0872C64.8301 58.4697 64.7357 59.2803 64.3684 59.4624C63.9093 59.6899 64.0573 59.7851 63.8523 60.5943C63.6473 61.4035 63.6851 62.1598 63.3209 62.2392C62.9567 62.3187 63.2526 62.509 62.5241 62.6679C61.7957 62.8268 61.1774 62.3246 61.1887 62.9593C61.2 63.5939 60.6613 63.4566 61.3745 63.8107C62.0876 64.1647 62.4518 64.0853 62.9374 63.9793C63.423 63.8734 63.6924 63.942 64.2045 63.9577C64.7167 63.9734 64.6901 63.8518 64.7585 63.582C64.8268 63.3123 64.6145 62.3393 65.1267 62.3549C65.6388 62.3706 65.8969 61.8046 66.0866 61.5084C66.2763 61.2122 66.3181 60.8208 66.2385 60.4559C66.1589 60.091 66.4057 58.8905 66.6485 58.8375C66.8913 58.7845 67.1912 57.8272 66.9902 57.4888C66.7892 57.1504 66.6299 56.4206 66.3075 56.1087C65.9851 55.7968 65.5565 54.9984 65.7728 54.8238C65.9891 54.6492 65.8299 53.9194 66.342 53.9351C66.8542 53.9508 66.7215 53.3426 67.3285 53.2102C67.9355 53.0777 68.0038 52.808 68.2732 52.8767C68.5425 52.9453 68.9067 52.8659 69.1608 53.4475C69.4149 54.0292 69.7791 53.9497 69.8587 54.3146L70.0975 55.4092C70.2037 55.8957 69.7711 56.2449 70.067 56.4352C70.3629 56.6255 70.7118 57.059 70.7271 56.546C70.7424 56.033 70.5831 55.3033 70.826 55.2503C71.0688 55.1973 71.1106 54.806 70.9361 54.5892C70.7616 54.3724 70.28 53.3308 70.132 53.2356L69.5403 52.8551C69.3923 52.7599 69.0281 52.8394 68.5578 52.4323C68.0874 52.0253 67.9926 52.1734 67.7232 52.1047C67.4539 52.0361 67.4273 51.9145 67.0897 52.1155C66.752 52.3166 66.6571 52.4647 66.3195 52.6658C65.9818 52.8669 66.0767 52.7188 65.7124 52.7983C65.3482 52.8777 65.4431 52.7296 65.1054 52.9307C64.7678 53.1318 64.8208 53.3751 64.6198 53.0367C64.4188 52.6983 64.7187 51.7409 64.2749 51.4555C63.831 51.1701 63.5239 50.3452 63.7667 50.2922C63.9609 50.2498 63.7517 49.446 63.6227 49.0494L64.2072 47.6478C63.9215 47.1155 63.2803 45.9643 63.0011 45.6174C62.6522 45.1838 62.6256 45.0622 62.2767 44.6287C61.9277 44.1951 61.5522 43.64 61.7685 43.4654C61.9848 43.2908 61.6776 42.4659 62.1102 42.1167C62.5427 41.7675 62.5845 41.376 63.0854 40.7571C63.5862 40.1382 63.6015 39.6252 63.5219 39.2603C63.4582 38.9684 63.0858 38.0388 62.9076 37.6105C62.8545 37.3673 62.8424 36.9622 63.2187 37.2878C63.6891 37.6949 63.6625 37.5731 63.7952 38.1813C63.9279 38.7895 64.3299 39.4663 64.1136 39.6409C63.8974 39.8155 64.4208 40.4658 64.1097 40.7885C63.7985 41.1112 64.1057 41.9362 64.2802 42.1529C64.4546 42.3696 64.4128 42.761 64.4394 42.8827C64.4659 43.0043 64.4772 43.6389 64.8945 43.8027C65.3118 43.9665 65.3914 44.3314 66.3626 44.1195C67.3338 43.9076 67.4552 43.8812 67.846 43.9233C68.2367 43.9654 68.0204 44.14 68.3163 44.3303C68.6122 44.5206 68.5704 44.912 69.056 44.806C69.5416 44.7001 69.6895 44.7952 69.8793 44.499C70.069 44.2028 70.0159 43.9595 69.7731 44.0125C69.5303 44.0655 69.4773 43.8222 69.1814 43.6319C68.8855 43.4416 69.0487 43.0238 68.5365 43.0081C68.0244 42.9924 67.9295 43.1405 67.3909 43.0032C66.8522 42.8659 66.488 42.9455 66.139 42.5118L66.1386 42.5113C65.7898 42.0779 65.4411 41.6446 65.3615 41.2799C65.2819 40.915 65.3237 40.5236 65.5665 40.4707C65.8093 40.4177 66.0256 40.2431 66.2949 40.3118C66.5643 40.3804 66.7653 40.7188 67.0346 40.7875C67.3039 40.8561 67.8426 40.9934 68.0058 40.5756C68.169 40.1577 68.2374 39.888 68.0894 39.7928C67.9415 39.6976 68.0098 39.428 67.5507 39.6555C67.0916 39.883 67.1182 40.0046 66.9702 39.9095C66.8223 39.8144 66.4999 39.5025 66.8376 39.3014C67.1077 39.1406 67.284 38.8218 67.3384 38.6825C67.3928 38.5432 67.5987 38.2434 67.9872 38.1586C68.4728 38.0527 68.5677 37.9046 69.3492 37.989C70.1307 38.0733 70.4531 38.3853 71.0183 38.6441C71.5835 38.903 71.758 39.1198 72.0804 39.4317C72.4029 39.7436 72.6569 40.3253 73.0212 40.2458C73.3854 40.1664 73.6016 39.9918 74.0607 39.7642C74.5198 39.5366 74.6677 39.6318 75.0319 39.5523C75.3961 39.4728 75.491 39.3247 75.4645 39.2031C75.4379 39.0815 75.142 38.8912 74.8992 38.9442C74.6564 38.9971 74.1708 39.1031 73.9963 38.8863C73.8219 38.6696 73.7953 38.5479 73.6209 38.3312C73.4464 38.1144 73.9207 37.3738 73.1658 37.4111C72.4108 37.4484 71.8303 37.7025 71.6559 37.4857L71.6557 37.4855C71.4813 37.2688 71.3069 37.0522 71.2538 36.8089L71.0415 35.8359C70.9619 35.471 71.1669 34.6618 70.7497 34.498C70.3324 34.3342 70.2262 33.8477 70.268 33.4563C70.3098 33.0649 69.8925 32.9012 69.9609 32.6314C70.0292 32.3617 69.9761 32.1184 70.1924 31.9438C70.4087 31.7692 71.7328 30.8432 72.1236 30.8854C72.5143 30.9276 73.2162 30.647 73.8232 30.5146C74.4302 30.3821 74.8627 30.0329 74.9576 29.8847C75.0335 29.7663 75.5735 29.7929 75.834 29.821C75.9237 29.8438 76.1465 29.8547 76.3196 29.715C76.5358 29.5404 76.6725 29.001 76.7939 28.9745C76.9153 28.948 77.4692 28.5723 77.5906 28.5458C77.6878 28.5246 78.099 28.3499 78.2925 28.2653L78.0537 27.1706C78.0993 26.9908 78.091 26.5254 77.6935 26.1025C77.1966 25.5738 78.2142 19.7454 79.4548 19.6022C80.6954 19.4589 85.9237 16.0248 85.9276 14.8772C85.9316 13.7296 87.829 10.7673 88.4851 12.0257C89.1412 13.2842 86.2918 14.7977 88.3557 14.3475L88.3559 14.3474C90.4197 13.8972 92.6048 13.4204 92.366 12.3258C92.1271 11.2311 91.1294 11.3214 91.5088 10.7289C91.8883 10.1365 92.8177 10.316 93.8308 9.71269C94.8438 9.10943 93.5807 7.98342 93.907 7.14771C94.2334 6.312 94.1273 5.82549 94.67 4.81517C95.1041 4.00692 96.3939 2.61274 96.9846 2.01668C97.6991 1.98821 99.1925 1.99366 99.4504 2.24319C99.7728 2.5551 100.85 2.82971 100.213 3.98814C99.5751 5.14657 100.706 5.66444 101.313 5.532C101.92 5.39957 102.675 5.36227 102.538 5.90175C102.401 6.44124 101.938 7.81645 102.556 8.31862C103.175 8.8208 104.256 7.9478 104.393 7.40832C104.529 6.86884 109.12 4.59305 110.823 7.15211C112.526 9.71118 113.33 11.0645 113.083 12.2652C112.837 13.4659 112.912 14.9785 112.047 15.6769C111.182 16.3753 110.951 17.0629 110.207 17.7348C109.463 18.4067 109.285 19.3377 108.784 19.9565C108.283 20.5753 108.093 20.8718 107.862 21.5593C107.68 22.0994 106.402 24.4762 105.753 25.6585C105.84 25.6366 106.012 25.6124 106.325 25.5897C107.201 25.5259 108.958 24.2508 109.242 23.8064C109.527 23.362 110.16 23.351 110.529 22.124C110.823 21.1425 112.513 21.3089 113.321 21.5148C113.303 21.4337 113.448 21.283 114.171 21.3294C114.293 21.3373 114.387 21.342 114.458 21.3443C114.441 21.3203 114.426 21.2975 114.413 21.2765C114.596 21.3072 114.806 21.3555 114.458 21.3443C114.621 21.5768 114.982 21.917 115.423 21.8209C116.03 21.6885 117.19 21.1804 117.407 21.0058C117.623 20.8312 118.541 20.376 119.471 20.5555C120.214 20.6991 121.128 20.5761 121.493 20.4966C121.848 20.3766 122.55 20.2149 122.517 20.528C122.475 20.9193 122.016 21.147 122.122 21.6334C122.228 22.1199 123.655 22.8281 124.019 22.7486C124.383 22.6691 126.917 22.6259 127.16 22.5729L128.86 22.2021C129.062 22.158 129.435 21.9238 129.308 21.3399C129.148 20.6101 127.646 18.3894 128.618 18.1775C129.589 17.9656 129.9 17.643 130.518 18.1452C131.137 18.6474 131.095 19.0387 132.066 18.8268C133.037 18.6149 133.565 18.1176 134.373 18.3236C135.181 18.5296 135.962 18.6138 136.432 19.0209C136.903 19.428 136.982 19.7929 137.115 20.401C137.248 21.0091 136.477 25.6368 139.678 27.4867C142.24 28.9666 142.789 26.9779 142.744 25.7985C142.541 24.866 142.392 23.2506 143.423 24.2487C144.713 25.4964 144.937 27.1039 146.155 25.6914C147.373 24.2789 147.767 23.1736 150.112 23.4266C152.456 23.6795 153.291 24.0071 153.284 22.2249C153.276 20.4426 152.951 17.2009 154.324 17.6658C155.697 18.1306 157.048 17.3264 158.679 17.2252C159.984 17.1443 162.134 17.3209 163.045 17.4192L165.913 18.3225L168.034 21.0455C168.585 21.4349 169.979 22.1501 171.144 21.8958L174.301 21.2071C175.515 20.9422 180.253 18.7616 181.365 20.9401C182.476 23.1186 179.558 24.902 182.24 24.9538C184.386 24.9953 188.673 23.9325 190.549 23.396L193.569 23.2468C194.512 23.2958 196.452 23.6371 196.664 24.6101C196.929 25.8264 196.528 21.0721 197.89 20.9024C199.252 20.7326 200.174 19.1297 203.433 20.0753C206.691 21.0208 207.769 21.2954 208.562 22.0144C209.196 22.5895 210.373 24.2948 210.883 25.0756C212.196 28.5691 214.539 35.771 213.404 36.6303C212.268 37.4896 210.584 37.5004 209.883 37.3984C210.672 37.9058 212.308 39.1882 212.542 40.2586C212.834 41.5965 215.121 42.7538 213.365 44.029C210.026 45.9807 206.009 49.3714 204.418 50.8228C203.938 51.7344 202.974 53.5332 202.953 53.4359C202.927 53.3143 201.421 52.2412 200.798 52.8867C200.301 53.403 199.357 54.0507 198.947 54.31L197.607 55.7489C198.108 55.13 198.778 54.1175 197.448 55.0192C195.786 56.1462 195.195 55.7657 194.937 56.3316C194.679 56.8976 194.003 57.2998 194.014 57.9344C194.026 58.5691 193.218 58.3631 193.51 59.701C193.743 60.7713 194.15 61.4724 194.325 61.6892C194.269 62.211 194.281 63.3551 194.776 63.7569C195.394 64.2591 195.971 65.1526 195.28 66.0678C194.59 66.983 194.692 68.6171 194.677 69.1301C194.661 69.6431 194.066 70.4101 193.633 70.7593C193.2 71.1085 193.238 71.8648 193.033 72.674C192.828 73.4833 191.884 73.8168 191.747 74.3563C191.61 74.8957 192.213 75.9109 191.496 76.7045C190.779 77.498 190.775 78.6456 190.263 78.63C189.751 78.6143 189.064 78.3818 188.583 77.3402C188.101 76.2985 186.095 71.7669 186.178 70.9842C186.262 70.2014 185.591 65.3785 186.255 64.3417C186.919 63.3049 188.259 61.8659 188.57 61.5432C188.881 61.2205 190.331 59.1204 190.615 58.6761C190.9 58.2317 192.482 56.7398 192.634 55.6873C192.786 54.6348 194.167 52.8045 194.008 52.0747C193.849 51.3449 194.259 49.7265 193.815 49.441C193.46 49.2127 192.45 50.3759 191.99 50.986C191.721 51.8939 191.064 53.7364 190.578 53.8423C189.971 53.9748 190.289 55.4343 189.159 54.9164C188.029 54.3985 187.657 52.6958 187.699 52.3044C187.741 51.913 186.42 51.6914 185.867 52.0671C185.313 52.4428 183.549 51.9357 183.734 52.7871C183.92 53.6385 182.406 54.8607 182.36 56.3997C182.315 57.9387 181.905 59.5571 182.375 59.9642C182.845 60.3712 181.844 61.6091 180.846 61.6994C179.848 61.7897 180.281 61.4405 178.839 61.2453C177.398 61.0502 176.905 59.3739 175.512 60.5696C174.12 61.7653 173.027 62.0037 171.57 62.3215C170.113 62.6394 167.701 62.6561 167.078 63.3016C166.456 63.947 166.122 63.0005 165.105 64.7513C164.088 66.5022 162.73 69.6018 161.755 70.9613C160.779 72.3209 159.542 75.394 158.893 75.9178C158.244 76.4416 157.137 77.193 158.267 77.7108C159.397 78.2287 161.362 79.0742 162.55 78.6877C163.737 78.3012 165.558 77.9038 166.689 78.4217C167.819 78.9396 168.013 77.4957 168.377 77.4163C168.669 77.3527 168.703 80.658 168.684 82.3187C168.265 82.5374 167.375 83.5472 167.162 85.8361C166.896 88.6973 166.072 93.0819 166 94.4992C165.927 95.9166 164.694 97.8421 163.856 98.6621C163.017 99.4821 164.344 101.486 161.916 102.016C159.488 102.546 158.111 103.228 157.645 101.674C157.178 100.119 158.101 98.5161 159.319 97.1036C160.537 95.6911 161.227 94.776 160.803 92.8299C160.378 90.8839 161.148 94.4111 157.525 93.5451C153.902 92.6791 153.883 94.3397 152.248 91.5109C150.613 88.6821 151.194 88.428 147.924 86.848C144.654 85.2679 143.721 82.1585 142.154 83.1375C140.587 84.1164 137.632 85.1435 137.844 86.1165C138.056 87.0895 139.771 90.2832 138.959 91.2249C138.147 92.1665 135.817 95.478 132.49 94.8023C129.163 94.1266 130.502 96.7652 126.981 97.5333C123.46 98.3014 124.405 97.9678 121.321 97.2391C118.237 96.5104 119.075 95.6903 116.256 96.1779C113.438 96.6656 111.947 95.0797 110.702 96.3705C106.825 99.0002 105.816 98.4558 103.266 99.0121C100.717 99.5683 103.748 100.054 99.2256 102.06C94.7032 104.066 94.9765 102.987 92.427 103.543C89.8776 104.099 93.7697 105.034 88.0074 103.106C82.2451 101.177 83.7776 102.372 81.183 100.39C78.5885 98.4077 82.2763 96.0741 77.5416 97.1071C72.8069 98.1401 72.4805 98.9756 70.0073 96.9669C67.5342 94.9583 67.724 94.6621 65.5082 96.1648C63.2924 97.6675 64.4155 96.403 61.3878 98.8475C57.343 103.043 58.6559 101.482 57.4757 103.651C56.2955 105.82 58.9664 105.237 58.3779 107.786C54.2744 109.497 51.6121 110.197 50.7939 110.333C50.5423 110.345 49.7401 110.283 48.5443 109.932C47.0496 109.493 40.7785 110.479 40.6226 112.679C40.4667 114.879 38.5966 113.886 40.2996 116.445C42.0025 119.004 43.4819 119.956 43.7473 121.172C44.0126 122.388 43.5343 124.276 42.8059 124.435C42.0775 124.594 42.8589 124.678 43.0407 126.677C43.2225 128.676 46.2841 128.136 44.4703 130.315C42.6566 132.495 42.2851 130.792 40.5855 131.163C38.8858 131.534 37.5842 133.729 34.6672 131.435C29.8158 127.269 28.3855 127.709 28.359 127.587Z" fill="#1D2946"/>
</g>
<path d="M28.359 127.587C28.617 127.021 29.1954 125.825 29.4443 125.567C29.7554 125.244 28.3139 125.049 28.9361 124.403C29.5584 123.758 30.1807 123.112 30.0062 122.896C29.8317 122.679 29.5889 122.732 28.9136 123.134C28.2382 123.536 28.7013 122.161 29.7408 121.679C30.7804 121.198 30.7844 120.05 30.4885 119.86C30.1926 119.67 30.1813 119.035 30.5873 118.564C30.9933 118.093 28.0989 117.068 27.0746 117.037C26.0503 117.006 25.0791 117.217 24.6466 117.567C24.214 117.916 23.1937 116.737 23.1141 116.372C23.0345 116.007 22.0898 116.341 21.4715 115.838C20.8532 115.336 21.2897 113.839 20.2389 113.686C19.1881 113.533 19.1158 114.951 18.1598 114.65C17.395 114.409 16.8576 113.15 16.6844 112.551C17.1612 112.404 18.142 112.003 18.2514 111.572C18.388 111.032 17.0944 110.932 16.5975 110.404C16.1006 109.875 15.1864 109.182 14.8833 107.21C14.6407 105.632 13.2193 106.384 12.5388 106.957C12.2556 107.019 11.5547 106.993 11.0176 106.397C10.3463 105.651 9.27289 104.229 9.38302 103.568C9.49314 102.907 8.22607 102.929 8.84834 102.283C9.34615 101.767 8.55774 100.563 8.10131 100.025C8.32775 99.5085 8.81857 98.4161 8.97037 98.1791C9.16011 97.8829 8.08274 97.6083 9.33856 96.952C10.3432 96.427 10.2985 96.1055 10.1506 96.0104C10.5325 96.012 11.2614 95.9719 11.1218 95.7985C10.9473 95.5817 8.18558 95.1649 8.4171 94.4773C8.64862 93.7897 9.11167 92.4145 9.73394 91.7691C10.3562 91.1237 12.5799 87.3256 11.4229 86.6862C10.266 86.0467 8.94582 85.825 8.81314 85.2169C8.68046 84.6087 9.37106 83.6936 9.04864 83.3817C8.72623 83.0698 8.25588 82.6627 8.1232 82.0546C7.99052 81.4464 7.07237 81.9016 7.34569 80.8226C7.61901 79.7436 6.69356 78.4166 7.32711 78.4057C7.96066 78.3949 5.22214 75.1699 5.06292 74.4401C4.9037 73.7104 5.56777 72.6736 5.38201 71.8222C5.19626 70.9708 3.61803 71.3151 2.97718 69.5437C2.33633 67.7722 3.36461 66.656 3.285 66.2911C3.20539 65.9262 3.51653 65.6035 3.86946 64.8894C4.90901 64.4078 5.56909 64.5186 5.53128 63.7623C5.49346 63.0061 5.68316 62.7099 6.22186 62.8472C6.76056 62.9845 7.53475 61.2866 7.92152 62.4763C8.30828 63.6661 8.19813 64.3271 8.71028 64.3428C9.22242 64.3585 9.31729 64.2104 9.6815 64.1309L9.6818 64.1309C10.0461 64.0514 10.7743 63.8925 11.3393 64.1515C11.9046 64.4105 12.9706 64.0503 15.1367 65.2342C17.3027 66.4182 17.5037 66.7565 18.581 67.0311C19.4429 67.2508 20.7508 68.4265 21.297 68.9869C21.498 69.3253 21.8591 70.1641 21.6951 70.8114C21.4901 71.6205 20.8638 73.4136 20.621 73.4665C20.3782 73.5195 19.2551 74.7839 18.595 74.6731C17.9349 74.5623 15.5221 74.579 15.1579 74.6585C14.7937 74.7379 13.3256 74.4212 13.0032 74.1092C12.6807 73.7973 12.1003 74.0514 11.4402 73.9406C10.7801 73.8298 10.0557 72.8411 9.69145 72.9205C9.32724 73 9.89246 73.2589 10.469 74.1525C11.0455 75.046 12.1606 76.0769 12.5248 75.9974C12.8891 75.918 14.4786 76.2085 14.1257 76.9225C13.7727 77.6364 13.8788 78.1229 13.9319 78.3662C13.9744 78.5608 14.5387 79.5929 14.8156 80.0847C14.7649 80.4355 14.7904 81.135 15.2972 81.1263C15.9308 81.1155 16.4316 80.4965 16.5643 81.1047C16.697 81.713 16.7348 82.4691 17.3153 82.215C17.8957 81.961 18.3926 82.4897 18.8252 82.1405C19.2577 81.7913 19.7434 81.6855 19.2465 81.1567C18.7495 80.628 19.3566 80.4955 18.5067 80.6809C17.6569 80.8663 17.6988 80.4752 17.2284 80.068C16.758 79.6609 17.0426 79.2164 16.9895 78.9733C16.9365 78.7301 16.8456 77.7305 17.4108 77.9894C17.976 78.2484 18.6474 78.9938 18.8902 78.9409C19.133 78.8879 19.4972 78.8084 19.9145 78.9722C20.3318 79.136 20.8174 79.0303 20.8705 79.2734C20.9235 79.5166 21.303 78.9241 21.3713 78.6544C21.4396 78.3846 21.4702 77.3586 21.1743 77.1683C20.8784 76.9781 20.4233 76.058 20.761 75.8569C21.0987 75.6558 21.5995 75.0369 21.5465 74.7936C21.4934 74.5504 22.0626 73.6617 22.3585 73.852C22.6543 74.0423 22.8062 72.9898 22.9277 72.9633C23.0491 72.9368 22.8102 71.8422 23.3754 72.1011C23.9407 72.36 23.9407 72.36 24.3049 72.2806C24.6691 72.2011 24.8323 71.7833 25.3292 72.3119C25.8261 72.8406 26.1903 72.7611 26.1637 72.6395C26.1372 72.5179 26.3422 71.7087 26.4105 71.4389C26.4788 71.1692 26.2248 70.5875 25.9972 70.1275C25.7697 69.6675 25.7166 69.4242 25.3259 69.3821C24.9351 69.3399 24.628 68.515 24.7494 68.4885C24.8708 68.462 24.6585 67.489 24.9013 67.436C25.1441 67.3831 25.0532 66.3835 24.9736 66.0187C24.894 65.6538 24.6929 65.3153 24.5185 65.0986L24.518 65.0981C24.3437 64.8816 24.1693 64.6649 23.8737 64.4748C23.5778 64.2845 23.0922 64.3905 23.2819 64.0942C23.4716 63.798 23.4716 63.798 23.8889 63.9618C24.3062 64.1256 24.5755 64.1942 24.6969 64.1678L25.1826 64.0618L25.911 63.9029C26.3966 63.7969 27.0832 64.0296 27.2577 64.2463C27.4322 64.4629 27.6332 64.8013 27.7811 64.8965C27.929 64.9916 28.1566 65.4516 28.3045 65.5468C28.4229 65.6229 28.46 66.065 28.4637 66.2765C28.3019 66.3118 27.9106 66.4227 27.6405 66.5836C27.3028 66.7847 27.2232 66.4198 26.9386 66.8641C26.6122 67.6998 25.9786 67.7106 26.449 68.1177C26.9193 68.5247 27.2152 68.715 27.458 68.662C27.7008 68.6091 27.4693 69.2969 27.8866 69.4606C28.1243 69.5786 28.6916 69.769 29.0588 69.587C29.5179 69.3594 29.9086 69.4015 30.03 69.3751C30.1514 69.3486 30.4892 69.1477 30.4361 68.9043C30.383 68.661 30.034 68.2274 30.2238 67.9312C30.4135 67.635 30.5767 67.2171 30.2808 67.0268C30.0441 66.8746 30.3365 66.5051 30.5124 66.3393C30.7551 66.2863 31.3166 66.0618 31.6202 65.5879C31.9997 64.9954 32.7964 64.5667 33.081 64.1224C33.3656 63.6781 33.4645 62.3823 34.098 62.3715C34.7316 62.3607 34.853 62.3342 35.3804 61.8369C35.9078 61.3396 35.6802 60.8796 36.3556 60.4774C37.0309 60.0752 36.9513 59.7103 37.2207 59.779C37.49 59.8476 37.2054 60.292 37.4064 60.6304C37.6074 60.9688 37.6452 61.7249 38.036 61.7672C38.4267 61.8094 38.7909 61.7299 38.844 61.9731C38.8971 62.2164 39.0032 62.7029 39.2195 62.5283C39.4357 62.3537 39.3031 61.7456 39.3714 61.4758C39.4397 61.2061 39.6295 60.9099 39.9937 60.8304C40.3579 60.7509 40.1569 60.4125 40.5476 60.4547C40.9384 60.4969 40.9118 60.3752 41.3974 60.2693C41.6668 60.3379 42.2487 60.4403 42.4217 60.3006C42.638 60.126 42.7063 59.8563 42.6798 59.7347C42.6532 59.6131 43.8447 58.0789 44.1406 58.2692C44.4365 58.4595 45.017 58.2054 45.0282 58.8401C45.0395 59.4747 44.5121 59.9719 45.0508 60.1093C45.5895 60.2467 45.4946 60.3949 45.8323 60.1937C46.1699 59.9925 45.7832 58.8028 46.4167 58.792C47.0503 58.7811 47.6726 58.1357 47.4715 57.7973C47.2705 57.4589 47.1757 57.607 46.6522 56.9567C46.1288 56.3064 46.087 56.6978 45.9543 56.0897C45.8217 55.4815 45.7686 55.2383 45.4727 55.048C45.1768 54.8577 45.3095 55.4658 44.6912 54.9637C44.0729 54.4615 44.0995 54.5831 43.7087 54.5409C43.318 54.4988 43.2496 54.7685 42.9956 54.1869C42.7415 53.6052 42.3507 53.563 42.6088 52.9971C42.8669 52.4311 42.2904 51.5375 43.1515 51.9868C44.0126 52.436 44.388 52.9911 44.8584 53.3981C45.3287 53.8052 45.8522 54.4555 46.095 54.4025C46.3378 54.3495 47.5253 53.963 48.0374 53.9787C48.5496 53.9944 50.9889 54.0993 51.7551 54.6966C52.5213 55.2939 52.7642 55.2411 53.3294 55.4999C53.8946 55.7588 54.2853 55.801 54.9985 56.1551C55.7117 56.5092 55.7535 56.1178 56.1289 56.673C56.5044 57.2282 56.2616 57.2812 57.0696 57.4871C57.8777 57.693 57.0544 58 57.6196 58.259C58.1848 58.5179 58.4203 56.6828 58.3142 56.1962C58.208 55.7096 57.7908 55.546 57.4949 55.3556C57.199 55.1653 56.5542 54.5415 56.5694 54.0285C56.5847 53.5155 56.2092 52.9603 55.8715 53.1614C55.5339 53.3625 55.439 53.5107 54.8207 53.0085C54.2024 52.5062 54.0432 51.7765 54.4074 51.6971C54.7716 51.6176 54.9195 51.7127 54.692 51.2527C54.4644 50.7926 54.3471 49.6716 54.3205 49.5499C54.294 49.4283 54.6734 48.8358 54.351 48.5239C54.0286 48.212 54.0551 48.3336 53.6644 48.2914C53.2736 48.2493 53.0461 47.7892 53.1828 47.2498C53.3194 46.7103 53.7672 45.8481 54.01 45.7951C54.2528 45.7421 54.822 44.8534 54.8638 44.4621C54.8972 44.149 54.9361 43.0447 54.9514 42.5317L54.8758 41.0192L54.8114 40.1413C54.8317 39.4573 54.9316 38.1274 55.1683 38.2796C55.4642 38.4699 55.1265 38.6711 55.855 38.5121C56.5834 38.3532 56.921 38.1521 57.1904 38.2208C57.4597 38.2894 57.327 37.6813 57.8657 37.8186C58.4044 37.9559 58.4727 37.6862 58.7686 37.8765C59.0645 38.0667 59.4022 37.8657 59.7246 38.1776C60.047 38.4895 60.1684 38.4631 60.2215 38.7062L60.4603 39.8008C60.6195 40.5306 60.4981 40.5571 60.4411 41.4615C60.384 42.3659 60.6686 41.9215 60.2739 43.027C60.1525 43.0535 59.5302 43.6989 59.8526 44.0108C60.175 44.3227 60.0802 44.4708 60.4026 44.7827C60.725 45.0946 61.2106 44.9885 61.3167 45.4751C61.4229 45.9617 61.6922 46.0304 61.6504 46.4217C61.6086 46.8131 61.3811 46.3531 61.6617 47.0564C61.9423 47.7596 61.8627 47.3947 61.9689 47.8813C62.075 48.3678 62.0067 48.6375 61.9118 48.7856C61.8169 48.9337 61.9231 49.4203 62.071 49.5154C62.219 49.6105 62.1772 50.0019 62.2302 50.2452C62.2727 50.4398 62.4527 50.8762 62.5374 51.0701C62.5235 51.2005 62.5062 51.51 62.5487 51.7046L62.6813 52.3128C62.8065 52.4978 63.0379 52.8976 62.962 53.0161C62.8671 53.1642 62.6243 53.2172 62.9998 53.7724C63.3002 54.2165 63.6712 54.5178 63.8191 54.6129L64.7333 55.3054C64.8407 55.4094 65.0124 55.6522 64.8394 55.7919C64.6231 55.9665 64.6079 56.4796 64.513 56.6276C64.4181 56.7757 64.107 57.0985 64.4294 57.4104C64.6874 57.6599 64.8049 57.9655 64.8314 58.0872C64.8301 58.4697 64.7357 59.2803 64.3684 59.4624C63.9093 59.6899 64.0573 59.7851 63.8523 60.5943C63.6473 61.4035 63.6851 62.1598 63.3209 62.2392C62.9567 62.3187 63.2526 62.509 62.5241 62.6679C61.7957 62.8268 61.1774 62.3246 61.1887 62.9593C61.2 63.5939 60.6613 63.4566 61.3745 63.8107C62.0876 64.1647 62.4518 64.0853 62.9374 63.9793C63.423 63.8734 63.6924 63.942 64.2045 63.9577C64.7167 63.9734 64.6901 63.8518 64.7585 63.582C64.8268 63.3123 64.6145 62.3393 65.1267 62.3549C65.6388 62.3706 65.8969 61.8046 66.0866 61.5084C66.2763 61.2122 66.3181 60.8208 66.2385 60.4559C66.1589 60.091 66.4057 58.8905 66.6485 58.8375C66.8913 58.7845 67.1912 57.8272 66.9902 57.4888C66.7892 57.1504 66.6299 56.4206 66.3075 56.1087C65.9851 55.7968 65.5565 54.9984 65.7728 54.8238C65.9891 54.6492 65.8299 53.9194 66.342 53.9351C66.8542 53.9508 66.7215 53.3426 67.3285 53.2102C67.9355 53.0777 68.0038 52.808 68.2732 52.8767C68.5425 52.9453 68.9067 52.8659 69.1608 53.4475C69.4149 54.0292 69.7791 53.9497 69.8587 54.3146L70.0975 55.4092C70.2037 55.8957 69.7711 56.2449 70.067 56.4352C70.3629 56.6255 70.7118 57.059 70.7271 56.546C70.7424 56.033 70.5831 55.3033 70.826 55.2503C71.0688 55.1973 71.1106 54.806 70.9361 54.5892C70.7616 54.3724 70.28 53.3308 70.132 53.2356L69.5403 52.8551C69.3923 52.7599 69.0281 52.8394 68.5578 52.4323C68.0874 52.0253 67.9926 52.1734 67.7232 52.1047C67.4539 52.0361 67.4273 51.9145 67.0897 52.1155C66.752 52.3166 66.6571 52.4647 66.3195 52.6658C65.9818 52.8669 66.0767 52.7188 65.7124 52.7983C65.3482 52.8777 65.4431 52.7296 65.1054 52.9307C64.7678 53.1318 64.8208 53.3751 64.6198 53.0367C64.4188 52.6983 64.7187 51.7409 64.2749 51.4555C63.831 51.1701 63.5239 50.3452 63.7667 50.2922C63.9609 50.2498 63.7517 49.446 63.6227 49.0494L64.2072 47.6478C63.9215 47.1155 63.2803 45.9643 63.0011 45.6174C62.6522 45.1838 62.6256 45.0622 62.2767 44.6287C61.9277 44.1951 61.5522 43.64 61.7685 43.4654C61.9848 43.2908 61.6776 42.4659 62.1102 42.1167C62.5427 41.7675 62.5845 41.376 63.0854 40.7571C63.5862 40.1382 63.6015 39.6252 63.5219 39.2603C63.4582 38.9684 63.0858 38.0388 62.9076 37.6105C62.8545 37.3673 62.8424 36.9622 63.2187 37.2878C63.6891 37.6949 63.6625 37.5731 63.7952 38.1813C63.9279 38.7895 64.3299 39.4663 64.1136 39.6409C63.8974 39.8155 64.4208 40.4658 64.1097 40.7885C63.7985 41.1112 64.1057 41.9362 64.2802 42.1529C64.4546 42.3696 64.4128 42.761 64.4394 42.8827C64.4659 43.0043 64.4772 43.6389 64.8945 43.8027C65.3118 43.9665 65.3914 44.3314 66.3626 44.1195C67.3338 43.9076 67.4552 43.8812 67.846 43.9233C68.2367 43.9654 68.0204 44.14 68.3163 44.3303C68.6122 44.5206 68.5704 44.912 69.056 44.806C69.5416 44.7001 69.6895 44.7952 69.8793 44.499C70.069 44.2028 70.0159 43.9595 69.7731 44.0125C69.5303 44.0655 69.4773 43.8222 69.1814 43.6319C68.8855 43.4416 69.0487 43.0238 68.5365 43.0081C68.0244 42.9924 67.9295 43.1405 67.3909 43.0032C66.8522 42.8659 66.488 42.9455 66.139 42.5118L66.1386 42.5113C65.7898 42.0779 65.4411 41.6446 65.3615 41.2799C65.2819 40.915 65.3237 40.5236 65.5665 40.4707C65.8093 40.4177 66.0256 40.2431 66.2949 40.3118C66.5643 40.3804 66.7653 40.7188 67.0346 40.7875C67.3039 40.8561 67.8426 40.9934 68.0058 40.5756C68.169 40.1577 68.2374 39.888 68.0894 39.7928C67.9415 39.6976 68.0098 39.428 67.5507 39.6555C67.0916 39.883 67.1182 40.0046 66.9702 39.9095C66.8223 39.8144 66.4999 39.5025 66.8376 39.3014C67.1077 39.1406 67.284 38.8218 67.3384 38.6825C67.3928 38.5432 67.5987 38.2434 67.9872 38.1586C68.4728 38.0527 68.5677 37.9046 69.3492 37.989C70.1307 38.0733 70.4531 38.3853 71.0183 38.6441C71.5835 38.903 71.758 39.1198 72.0804 39.4317C72.4029 39.7436 72.6569 40.3253 73.0212 40.2458C73.3854 40.1664 73.6016 39.9918 74.0607 39.7642C74.5198 39.5366 74.6677 39.6318 75.0319 39.5523C75.3961 39.4728 75.491 39.3247 75.4645 39.2031C75.4379 39.0815 75.142 38.8912 74.8992 38.9442C74.6564 38.9971 74.1708 39.1031 73.9963 38.8863C73.8219 38.6696 73.7953 38.5479 73.6209 38.3312C73.4464 38.1144 73.9207 37.3738 73.1658 37.4111C72.4108 37.4484 71.8303 37.7025 71.6559 37.4857L71.6557 37.4855C71.4813 37.2688 71.3069 37.0522 71.2538 36.8089L71.0415 35.8359C70.9619 35.471 71.1669 34.6618 70.7497 34.498C70.3324 34.3342 70.2262 33.8477 70.268 33.4563C70.3098 33.0649 69.8925 32.9012 69.9609 32.6314C70.0292 32.3617 69.9761 32.1184 70.1924 31.9438C70.4087 31.7692 71.7328 30.8432 72.1236 30.8854C72.5143 30.9276 73.2162 30.647 73.8232 30.5146C74.4302 30.3821 74.8627 30.0329 74.9576 29.8847C75.0335 29.7663 75.5735 29.7929 75.834 29.821C75.9237 29.8438 76.1465 29.8547 76.3196 29.715C76.5358 29.5404 76.6725 29.001 76.7939 28.9745C76.9153 28.948 77.4692 28.5723 77.5906 28.5458C77.6878 28.5246 78.099 28.3499 78.2925 28.2653L78.0537 27.1706C78.0993 26.9908 78.091 26.5254 77.6935 26.1025C77.1966 25.5738 78.2142 19.7454 79.4548 19.6022C80.6954 19.4589 85.9237 16.0248 85.9276 14.8772C85.9316 13.7296 87.829 10.7673 88.4851 12.0257C89.1412 13.2842 86.2918 14.7977 88.3557 14.3475L88.3559 14.3474C90.4197 13.8972 92.6048 13.4204 92.366 12.3258C92.1271 11.2311 91.1294 11.3214 91.5088 10.7289C91.8883 10.1365 92.8177 10.316 93.8308 9.71269C94.8438 9.10943 93.5807 7.98342 93.907 7.14771C94.2334 6.312 94.1273 5.82549 94.67 4.81517C95.1041 4.00692 96.3939 2.61274 96.9846 2.01668C97.6991 1.98821 99.1925 1.99366 99.4504 2.24319C99.7728 2.5551 100.85 2.82971 100.213 3.98814C99.5751 5.14657 100.706 5.66444 101.313 5.532C101.92 5.39957 102.675 5.36227 102.538 5.90175C102.401 6.44124 101.938 7.81645 102.556 8.31862C103.175 8.8208 104.256 7.9478 104.393 7.40832C104.529 6.86884 109.12 4.59305 110.823 7.15211C112.526 9.71118 113.33 11.0645 113.083 12.2652C112.837 13.4659 112.912 14.9785 112.047 15.6769C111.182 16.3753 110.951 17.0629 110.207 17.7348C109.463 18.4067 109.285 19.3377 108.784 19.9565C108.283 20.5753 108.093 20.8718 107.862 21.5593C107.68 22.0994 106.402 24.4762 105.753 25.6585C105.84 25.6366 106.012 25.6124 106.325 25.5897C107.201 25.5259 108.958 24.2508 109.242 23.8064C109.527 23.362 110.16 23.351 110.529 22.124C110.823 21.1425 112.513 21.3089 113.321 21.5148C113.303 21.4337 113.448 21.283 114.171 21.3294C114.293 21.3373 114.387 21.342 114.458 21.3443C114.441 21.3203 114.426 21.2975 114.413 21.2765C114.596 21.3072 114.806 21.3555 114.458 21.3443C114.621 21.5768 114.982 21.917 115.423 21.8209C116.03 21.6885 117.19 21.1804 117.407 21.0058C117.623 20.8312 118.541 20.376 119.471 20.5555C120.214 20.6991 121.128 20.5761 121.493 20.4966C121.848 20.3766 122.55 20.2149 122.517 20.528C122.475 20.9193 122.016 21.147 122.122 21.6334C122.228 22.1199 123.655 22.8281 124.019 22.7486C124.383 22.6691 126.917 22.6259 127.16 22.5729L128.86 22.2021C129.062 22.158 129.435 21.9238 129.308 21.3399C129.148 20.6101 127.646 18.3894 128.618 18.1775C129.589 17.9656 129.9 17.643 130.518 18.1452C131.137 18.6474 131.095 19.0387 132.066 18.8268C133.037 18.6149 133.565 18.1176 134.373 18.3236C135.181 18.5296 135.962 18.6138 136.432 19.0209C136.903 19.428 136.982 19.7929 137.115 20.401C137.248 21.0091 136.477 25.6368 139.678 27.4867C142.24 28.9666 142.789 26.9779 142.744 25.7985C142.541 24.866 142.392 23.2506 143.423 24.2487C144.713 25.4964 144.937 27.1039 146.155 25.6914C147.373 24.2789 147.767 23.1736 150.112 23.4266C152.456 23.6795 153.291 24.0071 153.284 22.2249C153.276 20.4426 152.951 17.2009 154.324 17.6658C155.697 18.1306 157.048 17.3264 158.679 17.2252C159.984 17.1443 162.134 17.3209 163.045 17.4192L165.913 18.3225L168.034 21.0455C168.585 21.4349 169.979 22.1501 171.144 21.8958L174.301 21.2071C175.515 20.9422 180.253 18.7616 181.365 20.9401C182.476 23.1186 179.558 24.902 182.24 24.9538C184.386 24.9953 188.673 23.9325 190.549 23.396L193.569 23.2468C194.512 23.2958 196.452 23.6371 196.664 24.6101C196.929 25.8264 196.528 21.0721 197.89 20.9024C199.252 20.7326 200.174 19.1297 203.433 20.0753C206.691 21.0208 207.769 21.2954 208.562 22.0144C209.196 22.5895 210.373 24.2948 210.883 25.0756C212.196 28.5691 214.539 35.771 213.404 36.6303C212.268 37.4896 210.584 37.5004 209.883 37.3984C210.672 37.9058 212.308 39.1882 212.542 40.2586C212.834 41.5965 215.121 42.7538 213.365 44.029C210.026 45.9807 206.009 49.3714 204.418 50.8228C203.938 51.7344 202.974 53.5332 202.953 53.4359C202.927 53.3143 201.421 52.2412 200.798 52.8867C200.301 53.403 199.357 54.0507 198.947 54.31L197.607 55.7489C198.108 55.13 198.778 54.1175 197.448 55.0192C195.786 56.1462 195.195 55.7657 194.937 56.3316C194.679 56.8976 194.003 57.2998 194.014 57.9344C194.026 58.5691 193.218 58.3631 193.51 59.701C193.743 60.7713 194.15 61.4724 194.325 61.6892C194.269 62.211 194.281 63.3551 194.776 63.7569C195.394 64.2591 195.971 65.1526 195.28 66.0678C194.59 66.983 194.692 68.6171 194.677 69.1301C194.661 69.6431 194.066 70.4101 193.633 70.7593C193.2 71.1085 193.238 71.8648 193.033 72.674C192.828 73.4833 191.884 73.8168 191.747 74.3563C191.61 74.8957 192.213 75.9109 191.496 76.7045C190.779 77.498 190.775 78.6456 190.263 78.63C189.751 78.6143 189.064 78.3818 188.583 77.3402C188.101 76.2985 186.095 71.7669 186.178 70.9842C186.262 70.2014 185.591 65.3785 186.255 64.3417C186.919 63.3049 188.259 61.8659 188.57 61.5432C188.881 61.2205 190.331 59.1204 190.615 58.6761C190.9 58.2317 192.482 56.7398 192.634 55.6873C192.786 54.6348 194.167 52.8045 194.008 52.0747C193.849 51.3449 194.259 49.7265 193.815 49.441C193.46 49.2127 192.45 50.3759 191.99 50.986C191.721 51.8939 191.064 53.7364 190.578 53.8423C189.971 53.9748 190.289 55.4343 189.159 54.9164C188.029 54.3985 187.657 52.6958 187.699 52.3044C187.741 51.913 186.42 51.6914 185.867 52.0671C185.313 52.4428 183.549 51.9357 183.734 52.7871C183.92 53.6385 182.406 54.8607 182.36 56.3997C182.315 57.9387 181.905 59.5571 182.375 59.9642C182.845 60.3712 181.844 61.6091 180.846 61.6994C179.848 61.7897 180.281 61.4405 178.839 61.2453C177.398 61.0502 176.905 59.3739 175.512 60.5696C174.12 61.7653 173.027 62.0037 171.57 62.3215C170.113 62.6394 167.701 62.6561 167.078 63.3016C166.456 63.947 166.122 63.0005 165.105 64.7513C164.088 66.5022 162.73 69.6018 161.755 70.9613C160.779 72.3209 159.542 75.394 158.893 75.9178C158.244 76.4416 157.137 77.193 158.267 77.7108C159.397 78.2287 161.362 79.0742 162.55 78.6877C163.737 78.3012 165.558 77.9038 166.689 78.4217C167.819 78.9396 168.013 77.4957 168.377 77.4163C168.669 77.3527 168.703 80.658 168.684 82.3187C168.265 82.5374 167.375 83.5472 167.162 85.8361C166.896 88.6973 166.072 93.0819 166 94.4992C165.927 95.9166 164.694 97.8421 163.856 98.6621C163.017 99.4821 164.344 101.486 161.916 102.016C159.488 102.546 158.111 103.228 157.645 101.674C157.178 100.119 158.101 98.5161 159.319 97.1036C160.537 95.6911 161.227 94.776 160.803 92.8299C160.378 90.8839 161.148 94.4111 157.525 93.5451C153.902 92.6791 153.883 94.3397 152.248 91.5109C150.613 88.6821 151.194 88.428 147.924 86.848C144.654 85.2679 143.721 82.1585 142.154 83.1375C140.587 84.1164 137.632 85.1435 137.844 86.1165C138.056 87.0895 139.771 90.2832 138.959 91.2249C138.147 92.1665 135.817 95.478 132.49 94.8023C129.163 94.1266 130.502 96.7652 126.981 97.5333C123.46 98.3014 124.405 97.9678 121.321 97.2391C118.237 96.5104 119.075 95.6903 116.256 96.1779C113.438 96.6656 111.947 95.0797 110.702 96.3705C106.825 99.0002 105.816 98.4558 103.266 99.0121C100.717 99.5683 103.748 100.054 99.2256 102.06C94.7032 104.066 94.9765 102.987 92.427 103.543C89.8776 104.099 93.7697 105.034 88.0074 103.106C82.2451 101.177 83.7776 102.372 81.183 100.39C78.5885 98.4077 82.2763 96.0741 77.5416 97.1071C72.8069 98.1401 72.4805 98.9756 70.0073 96.9669C67.5342 94.9583 67.724 94.6621 65.5082 96.1648C63.2924 97.6675 64.4155 96.403 61.3878 98.8475C57.343 103.043 58.6559 101.482 57.4757 103.651C56.2955 105.82 58.9664 105.237 58.3779 107.786C54.2744 109.497 51.6121 110.197 50.7939 110.333C50.5423 110.345 49.7401 110.283 48.5443 109.932C47.0496 109.493 40.7785 110.479 40.6226 112.679C40.4667 114.879 38.5966 113.886 40.2996 116.445C42.0025 119.004 43.4819 119.956 43.7473 121.172C44.0126 122.388 43.5343 124.276 42.8059 124.435C42.0775 124.594 42.8589 124.678 43.0407 126.677C43.2225 128.676 46.2841 128.136 44.4703 130.315C42.6566 132.495 42.2851 130.792 40.5855 131.163C38.8858 131.534 37.5842 133.729 34.6672 131.435C29.8158 127.269 28.3855 127.709 28.359 127.587Z" stroke="#172340" stroke-width="3"/>
</g>
</g>
<defs>
<filter id="filter0_i" x="-10.4053" y="-22.6716" width="238.291" height="165.799" filterUnits="userSpaceOnUse" color-interpolation-filters="sRGB">
<feFlood flood-opacity="0" result="BackgroundImageFix"/>
<feBlend mode="normal" in="SourceGraphic" in2="BackgroundImageFix" result="shape"/>
<feColorMatrix in="SourceAlpha" type="matrix" values="0 0 0 0 0 0 0 0 0 0 0 0 0 0 0 0 0 0 127 0" result="hardAlpha"/>
<feOffset dy="4"/>
<feGaussianBlur stdDeviation="2"/>
<feComposite in2="hardAlpha" operator="arithmetic" k2="-1" k3="1"/>
<feColorMatrix type="matrix" values="0 0 0 0 0 0 0 0 0 0 0 0 0 0 0 0 0 0 0.55 0"/>
<feBlend mode="normal" in2="shape" result="effect1_innerShadow"/>
</filter>
<linearGradient id="paint0_linear" x1="341.531" y1="112.638" x2="-5.36332" y2="-1.61115" gradientUnits="userSpaceOnUse">
<stop stop-color="#60719D" stop-opacity="0.1"/>
<stop offset="0.546875" stop-color="#3B496E" stop-opacity="0.725913"/>
<stop offset="0.998777" stop-color="#2A375A"/>
</linearGradient>
<linearGradient id="paint1_linear" x1="448.534" y1="110.006" x2="-0.000282357" y2="109.099" gradientUnits="userSpaceOnUse">
<stop stop-color="#1A2643"/>
<stop offset="1" stop-color="#1A2643" stop-opacity="0"/>
</linearGradient>
<clipPath id="clip0">
<rect width="230" height="200" fill="white"/>
</clipPath>
</defs>
</svg>
