<svg width="35" height="35" viewBox="0 0 35 35" fill="none" xmlns="http://www.w3.org/2000/svg">
<g clip-path="url(#clip0)">
<rect width="35" height="35" rx="8" fill="#CC1D1D"/>
<path d="M24.6766 22.4043H23.2696L23.2765 21.5979C23.2765 21.2392 23.5744 20.9466 23.939 20.9466H24.0292C24.3939 20.9466 24.6931 21.2393 24.6931 21.5979L24.6766 22.4043ZM19.4016 20.6762C19.0459 20.6762 18.7539 20.9131 18.7539 21.2028V25.1242C18.7539 25.4139 19.0459 25.6495 19.4016 25.6495C19.7601 25.6495 20.0521 25.4139 20.0521 25.1242V21.2024C20.0521 20.9131 19.7601 20.6762 19.4016 20.6762ZM27.9665 18.4831V25.9426C27.9665 27.7322 26.3949 29.196 24.4731 29.196H10.1105C8.18837 29.196 6.61719 27.7318 6.61719 25.9426V18.4831C6.61719 16.6935 8.18846 15.229 10.1105 15.229H24.4735C26.3948 15.229 27.9665 16.6939 27.9665 18.4831ZM11.0682 26.7527L11.0675 18.8949L12.8478 18.8955V17.7308L8.10168 17.7236V18.868L9.58341 18.8724V26.7524L11.0682 26.7527ZM16.4055 20.0656H14.921V24.2615C14.921 24.8686 14.9578 25.1722 14.919 25.279C14.7978 25.6043 14.2551 25.9497 14.044 25.3143C14.0082 25.2028 14.0398 24.8669 14.0392 24.29L14.0323 20.0653H12.5561L12.5616 24.2233C12.5622 24.8607 12.5468 25.336 12.5664 25.5523C12.6025 25.9337 12.5891 26.3787 12.9483 26.632C13.6157 27.1076 14.8959 26.5613 15.2161 25.8823L15.2134 26.7486L16.4051 26.7503L16.4055 20.0656ZM21.1544 24.8703L21.1516 21.3779C21.1502 20.0466 20.142 19.2494 18.7721 20.3264L18.7783 17.7297L17.2952 17.7321L17.2879 26.6939L18.5073 26.6761L18.6182 26.1176C20.177 27.5306 21.157 26.563 21.1544 24.8703ZM25.8009 24.4076L24.6873 24.4135C24.6873 24.4573 24.6853 24.5073 24.6845 24.5624V25.1757C24.6845 25.5037 24.4101 25.7709 24.0764 25.7709H23.8584C23.5241 25.7709 23.2496 25.5037 23.2496 25.1757V25.1077V24.4325V23.5622H25.7985V22.6151C25.7985 21.9233 25.7803 21.2314 25.7224 20.8357C25.5403 19.5836 23.7607 19.3851 22.8613 20.0259C22.5789 20.2262 22.3637 20.494 22.2377 20.8544C22.1113 21.2145 22.0487 21.7057 22.0487 22.3306V24.4128C22.0496 27.8743 26.3081 27.385 25.8009 24.4076ZM20.091 13.1019C20.1671 13.2861 20.2859 13.4347 20.448 13.5475C20.6068 13.6576 20.8114 13.7138 21.0554 13.7138C21.2693 13.7138 21.459 13.6566 21.6236 13.5387C21.7885 13.4214 21.9277 13.2467 22.0406 13.0128L22.0123 13.588H23.6669V6.64054H22.3642V12.0477C22.3642 12.34 22.1194 12.5797 21.8208 12.5797C21.5243 12.5797 21.2788 12.34 21.2788 12.0477V6.64054H19.9196V11.3263C19.9196 11.9233 19.9303 12.3213 19.9485 12.5233C19.968 12.7238 20.0145 12.9159 20.091 13.1019ZM15.0767 9.17807C15.0767 8.51109 15.1332 7.99058 15.2447 7.61525C15.357 7.24092 15.5601 6.9401 15.8529 6.71368C16.1455 6.48554 16.5202 6.3717 16.9748 6.3717C17.3573 6.3717 17.6855 6.44611 17.9599 6.5913C18.2343 6.73749 18.4475 6.92683 18.5942 7.16106C18.745 7.39601 18.8462 7.63769 18.901 7.88482C18.9567 8.13504 18.9836 8.51345 18.9836 9.02234V10.7796C18.9836 11.4241 18.9575 11.898 18.9069 12.1993C18.8569 12.5012 18.7489 12.781 18.5815 13.0431C18.4162 13.3028 18.2027 13.4969 17.9437 13.6207C17.6827 13.7461 17.3842 13.8073 17.046 13.8073C16.6693 13.8073 16.3511 13.7559 16.0897 13.6482C15.8274 13.5414 15.6242 13.3803 15.4799 13.1665C15.3332 12.9523 15.2309 12.6916 15.1693 12.3876C15.1066 12.0834 15.077 11.6268 15.077 11.0176L15.0767 9.17807ZM16.3721 11.9382C16.3721 12.3311 16.6692 12.6524 17.0304 12.6524C17.3916 12.6524 17.6868 12.3315 17.6868 11.9382V8.23943C17.6868 7.84648 17.3916 7.52521 17.0304 7.52521C16.6692 7.52521 16.3721 7.84611 16.3721 8.23943V11.9382ZM11.7926 13.8056H13.3542L13.3556 8.47702L15.2003 3.91232H13.4927L12.512 7.30343L11.5172 3.9035H9.82783L11.7902 8.48011L11.7926 13.8056Z" fill="white"/>
</g>
<defs>
<clipPath id="clip0">
<rect width="35" height="35" fill="white"/>
</clipPath>
</defs>
</svg>
