<svg width="30" height="30" viewBox="0 0 30 30" fill="none" xmlns="http://www.w3.org/2000/svg">
<path d="M14.5469 0C8.73133 0 4 4.73133 4 10.5469C4 12.5118 4.54428 14.4293 5.57436 16.0929L13.9465 29.5845C14.1069 29.843 14.3894 30 14.6933 30C14.6956 30 14.6979 30 14.7003 30C15.0068 29.9976 15.2899 29.8357 15.4473 29.5727L23.6061 15.9504C24.5794 14.322 25.0938 12.4535 25.0938 10.5469C25.0938 4.73133 20.3624 0 14.5469 0ZM22.0976 15.0479L14.68 27.4328L7.06838 15.1668C6.21098 13.7821 5.74609 12.1846 5.74609 10.5469C5.74609 5.70059 9.70059 1.74609 14.5469 1.74609C19.3932 1.74609 23.3418 5.70059 23.3418 10.5469C23.3418 12.136 22.9076 13.6927 22.0976 15.0479Z" fill="url(#paint0_linear)"/>
<path d="M14.2734 5.27344C11.3657 5.27344 9 7.6391 9 10.5469C9 13.4361 11.3272 15.8203 14.2734 15.8203C17.256 15.8203 19.5469 13.4043 19.5469 10.5469C19.5469 7.6391 17.1812 5.27344 14.2734 5.27344ZM14.2734 14.0742C12.3248 14.0742 10.7461 12.4903 10.7461 10.5469C10.7461 8.60836 12.3349 7.01953 14.2734 7.01953C16.212 7.01953 17.7949 8.60836 17.7949 10.5469C17.7949 12.4619 16.253 14.0742 14.2734 14.0742Z" fill="url(#paint1_linear)"/>
<defs>
<linearGradient id="paint0_linear" x1="4" y1="0.0746784" x2="21.6484" y2="-1.12646" gradientUnits="userSpaceOnUse">
<stop stop-color="#FFC738"/>
<stop offset="1" stop-color="#FF9B00"/>
</linearGradient>
<linearGradient id="paint1_linear" x1="9" y1="5.29969" x2="17.7828" y2="4.44956" gradientUnits="userSpaceOnUse">
<stop stop-color="#FFC738"/>
<stop offset="1" stop-color="#FF9B00"/>
</linearGradient>
</defs>
</svg>
