<svg width="62" height="62" viewBox="0 0 62 62" fill="none" xmlns="http://www.w3.org/2000/svg">
<g clip-path="url(#clip0)">
<g clip-path="url(#clip1)">
<path d="M32.0961 50.367L32.0961 42.7056C32.0961 41.666 32.9388 40.824 33.9776 40.824C37.6848 40.824 39.7015 37.0221 39.9814 29.5169L33.9776 29.5169C32.9389 29.5169 32.0961 28.6738 32.0961 27.6354L32.0961 11.458C32.0961 10.4189 32.9388 9.5769 33.9776 9.5769L49.9845 9.5769C51.0231 9.5769 51.8661 10.4198 51.8661 11.458L51.8661 27.6356C51.8661 31.233 51.5029 34.5342 50.79 37.4497C50.0576 40.4385 48.9333 43.0515 47.4492 45.2169C45.9228 47.4421 44.0119 49.1883 41.7727 50.4043C39.5166 51.6282 36.894 52.2493 33.9769 52.2493C32.9389 52.2485 32.0961 51.4057 32.0961 50.367ZM7.83034 40.8234C6.79159 40.8234 5.94922 41.666 5.94922 42.7041L5.94922 50.3671C5.94922 51.4057 6.79159 52.2478 7.83034 52.2478C10.746 52.2478 13.3699 51.6266 15.6246 50.4029C17.8649 49.1869 19.7757 47.4422 21.3019 45.2154C22.787 43.0501 23.9111 40.4369 24.6435 37.4467C25.3568 34.5312 25.7192 31.2298 25.7192 27.634L25.7192 11.4564C25.7192 10.4173 24.876 9.57532 23.8377 9.57532L7.83034 9.57532C6.79159 9.57532 5.94922 10.4181 5.94922 11.4564L5.94922 27.634C5.94922 28.673 6.79159 29.5155 7.83034 29.5155L13.7498 29.5155C13.4733 37.0213 11.4856 40.8234 7.83034 40.8234Z" fill="#172340"/>
</g>
</g>
<defs>
<clipPath id="clip0">
<rect width="60.8986" height="60.8986" fill="white" transform="translate(60.8984 61.525) rotate(-179.881)"/>
</clipPath>
<clipPath id="clip1">
<rect width="45.9169" height="45.9169" fill="white" transform="translate(5.94922 7.9541)"/>
</clipPath>
</defs>
</svg>
