<svg width="62" height="29" viewBox="0 0 62 29" fill="none" xmlns="http://www.w3.org/2000/svg">
<path d="M17.5714 21V22.8401C17.5714 23.6921 16.5741 24.1538 15.9245 23.6026L5.87179 15.073C5.41033 14.6815 5.39969 13.973 5.84918 13.5678L15.9018 4.50516C16.5452 3.92518 17.5714 4.38172 17.5714 5.24789V13.3333C17.5714 13.8856 18.0191 14.3333 18.5714 14.3333H43.4286C43.9809 14.3333 44.4286 14.781 44.4286 15.3333V22.8401C44.4286 23.6921 45.4259 24.1538 46.0756 23.6026L56.1282 15.073C56.5897 14.6815 56.6003 13.973 56.1508 13.5678L46.0982 4.50516C45.4548 3.92518 44.4286 4.38172 44.4286 5.24789V7.66667" stroke="url(#paint0_linear)" stroke-width="3" stroke-linecap="round" stroke-linejoin="round"/>
<defs>
<linearGradient id="paint0_linear" x1="22.3333" y1="0.730147" x2="41.6611" y2="21.9022" gradientUnits="userSpaceOnUse">
<stop stop-color="#FF9B00"/>
<stop offset="1" stop-color="#FFC738"/>
</linearGradient>
</defs>
</svg>
