<svg width="35" height="35" viewBox="0 0 35 35" fill="none" xmlns="http://www.w3.org/2000/svg">
<g clip-path="url(#clip0)">
<path d="M2.18805 2.38152C-0.562362 5.23839 0.000555057 8.27318 0.000555057 17.4928C0.000555057 25.149 -1.33528 32.8242 5.65597 34.6311C7.8391 35.1926 27.1824 35.1926 29.3626 34.6282C32.2735 33.8771 34.6418 31.5161 34.9655 27.3992C35.0108 26.8246 35.0108 8.1711 34.9641 7.58485C34.6199 3.19964 31.9205 0.672349 28.3637 0.160474C27.5485 0.0423492 27.3851 0.00734916 23.2026 5.74926e-05C8.36701 0.00734916 5.11493 -0.653276 2.18805 2.38152V2.38152Z" fill="url(#paint0_linear)"/>
<path d="M17.4965 4.5776C12.2013 4.5776 7.17295 4.10655 5.25232 9.03572C4.45899 11.0716 4.5742 13.7155 4.5742 17.5013C4.5742 20.8234 4.46774 23.9457 5.25232 25.9655C7.16857 30.8976 12.2377 30.4251 17.4936 30.4251C22.5642 30.4251 27.7923 30.953 29.7363 25.9655C30.5311 23.9093 30.4144 21.3047 30.4144 17.5013C30.4144 12.4526 30.6929 9.19322 28.2444 6.74614C25.7652 4.26697 22.4125 4.5776 17.4907 4.5776H17.4965ZM16.3386 6.90655C27.384 6.88905 28.7898 5.66114 28.014 22.7193C27.7384 28.7524 23.1446 28.0903 17.4979 28.0903C7.20211 28.0903 6.90607 27.7957 6.90607 17.4955C6.90607 7.07572 7.72274 6.91239 16.3386 6.90364V6.90655ZM24.3944 9.05176C23.5384 9.05176 22.8442 9.74593 22.8442 10.602C22.8442 11.458 23.5384 12.1522 24.3944 12.1522C25.2504 12.1522 25.9446 11.458 25.9446 10.602C25.9446 9.74593 25.2504 9.05176 24.3944 9.05176V9.05176ZM17.4965 10.8645C13.8317 10.8645 10.8611 13.8366 10.8611 17.5013C10.8611 21.1661 13.8317 24.1368 17.4965 24.1368C21.1613 24.1368 24.1304 21.1661 24.1304 17.5013C24.1304 13.8366 21.1613 10.8645 17.4965 10.8645V10.8645ZM17.4965 13.1934C23.1913 13.1934 23.1986 21.8093 17.4965 21.8093C11.8032 21.8093 11.7944 13.1934 17.4965 13.1934Z" fill="white"/>
</g>
<defs>
<linearGradient id="paint0_linear" x1="2.25517" y1="32.7646" x2="34.784" y2="4.61128" gradientUnits="userSpaceOnUse">
<stop stop-color="#FFDD55"/>
<stop offset="0.5" stop-color="#FF543E"/>
<stop offset="1" stop-color="#C837AB"/>
</linearGradient>
<clipPath id="clip0">
<rect width="35" height="35" fill="white"/>
</clipPath>
</defs>
</svg>
