<svg width="35" height="35" viewBox="0 0 35 35" fill="none" xmlns="http://www.w3.org/2000/svg">
<path d="M17.5 35C27.165 35 35 27.165 35 17.5C35 7.83502 27.165 0 17.5 0C7.83502 0 0 7.83502 0 17.5C0 27.165 7.83502 35 17.5 35Z" fill="#6F3FAA"/>
<path d="M25.0918 9.60039C20.8322 8.57158 16.565 7.36818 12.1967 8.89711C9.36837 9.9577 9.36837 13.0217 9.48622 15.6143C9.48622 16.3213 8.66133 17.2642 9.01482 18.0891C9.72186 20.4459 10.3111 22.8028 12.7859 23.9813C13.1394 24.217 12.7859 24.6883 13.0216 25.0419C12.9037 25.0419 12.668 25.1597 12.668 25.2776C12.668 25.8424 12.9215 26.7064 12.7531 27.2634L20.2731 34.7802C28.0038 33.5491 34.046 27.256 34.8961 19.4048L25.0918 9.60039Z" fill="#512D84"/>
<path d="M26.7573 12.2996L26.7516 12.2765C26.284 10.3861 24.1759 8.35776 22.24 7.93578L22.2182 7.93127C19.0869 7.33395 15.912 7.33395 12.7814 7.93127L12.7589 7.93578C10.8237 8.35776 8.71552 10.3863 8.24732 12.2765L8.24213 12.2996C7.66408 14.9394 7.66408 17.6166 8.24213 20.2565L8.24732 20.2796C8.69563 22.0892 10.6467 24.0244 12.5104 24.5566V26.6667C12.5104 27.4305 13.4411 27.8056 13.9703 27.2544L16.1082 25.0321C16.572 25.058 17.0359 25.0725 17.4998 25.0725C19.0759 25.0725 20.6528 24.9234 22.2181 24.6248L22.2399 24.6203C24.1759 24.1983 26.2839 22.1698 26.7515 20.2796L26.7573 20.2565C27.3353 17.6166 27.3353 14.9395 26.7573 12.2996ZM25.0654 19.8737C24.7532 21.107 23.1526 22.6402 21.8808 22.9234C20.216 23.2401 18.5378 23.3754 16.8614 23.3289C16.828 23.328 16.7959 23.341 16.7728 23.3649C16.5348 23.6091 15.2118 24.9674 15.2118 24.9674L13.5515 26.6714C13.4301 26.798 13.2168 26.7118 13.2168 26.5372V23.0416C13.2168 22.9838 13.1756 22.9348 13.1188 22.9236C13.1185 22.9234 13.1182 22.9234 13.1179 22.9234C11.8461 22.6401 10.2461 21.1069 9.93334 19.8737C9.41306 17.4875 9.41306 15.0685 9.93334 12.6824C10.2461 11.4491 11.8461 9.91595 13.1179 9.63267C16.0256 9.07964 18.9738 9.07964 21.8809 9.63267C23.1533 9.91595 24.7532 11.4491 25.0654 12.6824C25.5863 15.0686 25.5863 17.4876 25.0654 19.8737Z" fill="white"/>
<path d="M20.2662 21.4873C20.0707 21.4279 19.8844 21.388 19.7113 21.3163C17.9181 20.5724 16.2679 19.6126 14.9608 18.1414C14.2175 17.3049 13.6357 16.3603 13.1439 15.3608C12.9107 14.8868 12.7141 14.3942 12.5138 13.9048C12.3311 13.4585 12.6002 12.9975 12.8835 12.6612C13.1493 12.3456 13.4915 12.1041 13.862 11.9261C14.1511 11.7872 14.4363 11.8673 14.6475 12.1123C15.1041 12.6423 15.5235 13.1993 15.863 13.8135C16.0718 14.1914 16.0145 14.6532 15.636 14.9103C15.544 14.9728 15.4602 15.0462 15.3746 15.1167C15.2994 15.1786 15.2287 15.2411 15.1771 15.3248C15.083 15.478 15.0785 15.6588 15.1391 15.8254C15.6057 17.1079 16.3924 18.1053 17.6833 18.6425C17.8899 18.7284 18.0973 18.8285 18.3353 18.8008C18.7339 18.7542 18.8629 18.317 19.1422 18.0886C19.4152 17.8654 19.7641 17.8625 20.0581 18.0485C20.3523 18.2348 20.6373 18.4345 20.9208 18.6365C21.199 18.8347 21.4759 19.0285 21.7325 19.2546C21.9792 19.4719 22.0642 19.757 21.9252 20.0518C21.6709 20.5919 21.3008 21.0411 20.7669 21.328C20.6162 21.4088 20.4362 21.4349 20.2662 21.4873C20.0707 21.4279 20.4362 21.4349 20.2662 21.4873Z" fill="white"/>
<path d="M17.5037 11.3085C19.8491 11.3743 21.7755 12.9308 22.1883 15.2495C22.2587 15.6446 22.2837 16.0485 22.315 16.4496C22.3282 16.6182 22.2326 16.7785 22.0506 16.7807C21.8627 16.783 21.7781 16.6256 21.7658 16.4571C21.7417 16.1234 21.7249 15.7881 21.6789 15.4572C21.4362 13.71 20.043 12.2645 18.3039 11.9544C18.0422 11.9077 17.7745 11.8955 17.5093 11.8677C17.3418 11.8501 17.1224 11.84 17.0852 11.6316C17.0541 11.457 17.2015 11.3179 17.3678 11.309C17.4129 11.3063 17.4583 11.3084 17.5037 11.3085C19.8492 11.3743 17.4583 11.3084 17.5037 11.3085Z" fill="white"/>
<path d="M21.069 15.9292C21.0651 15.9585 21.0631 16.0274 21.0459 16.0922C20.9837 16.3276 20.6266 16.3571 20.5445 16.1195C20.5201 16.049 20.5165 15.9688 20.5163 15.8929C20.5155 15.3962 20.4076 14.8999 20.157 14.4677C19.8995 14.0234 19.506 13.6501 19.0447 13.424C18.7656 13.2875 18.464 13.2025 18.1581 13.152C18.0245 13.1298 17.8894 13.1165 17.7551 13.0978C17.5923 13.0751 17.5054 12.9714 17.5132 12.8111C17.5204 12.6608 17.6302 12.5526 17.794 12.562C18.3322 12.5925 18.8521 12.7089 19.3307 12.9623C20.3037 13.4776 20.8596 14.291 21.0219 15.3771C21.0292 15.4264 21.041 15.4751 21.0447 15.5245C21.0539 15.6463 21.0597 15.7683 21.069 15.9292C21.0651 15.9584 21.0597 15.7683 21.069 15.9292Z" fill="white"/>
<path d="M19.6104 15.8722C19.4142 15.8757 19.3092 15.767 19.2889 15.5873C19.2749 15.4619 19.2636 15.3347 19.2337 15.2126C19.1748 14.9722 19.047 14.7495 18.8448 14.6022C18.7494 14.5327 18.6412 14.482 18.5279 14.4492C18.384 14.4076 18.2344 14.4191 18.0909 14.3839C17.935 14.3457 17.8487 14.2194 17.8733 14.0732C17.8956 13.94 18.025 13.8361 18.1706 13.8467C19.0799 13.9123 19.7298 14.3824 19.8226 15.4529C19.8292 15.5285 19.8368 15.6082 19.8201 15.6806C19.7912 15.8042 19.6996 15.8662 19.6104 15.8722C19.4141 15.8757 19.6996 15.8662 19.6104 15.8722Z" fill="white"/>
<path d="M26.7576 12.2996L26.7518 12.2765C26.4897 11.2169 25.7119 10.114 24.7381 9.27478L23.4216 10.4415C24.2044 11.0653 24.8752 11.9294 25.0657 12.6824C25.5866 15.0686 25.5866 17.4875 25.0657 19.8738C24.7535 21.107 23.1529 22.6402 21.8812 22.9235C20.2163 23.2401 18.5382 23.3754 16.8617 23.329C16.8284 23.328 16.7963 23.341 16.7731 23.3649C16.5352 23.6091 15.2121 24.9674 15.2121 24.9674L13.5518 26.6715C13.4304 26.7981 13.2171 26.712 13.2171 26.5372V23.0416C13.2171 22.9838 13.1759 22.9348 13.1192 22.9236C13.1188 22.9236 13.1186 22.9235 13.1182 22.9235C12.3955 22.7625 11.567 22.1976 10.9288 21.5138L9.62793 22.6666C10.4404 23.5504 11.4883 24.2649 12.5105 24.5568V26.6669C12.5105 27.4307 13.4412 27.8058 13.9705 27.2546L16.1084 25.0323C16.5722 25.0582 17.036 25.0727 17.4999 25.0727C19.0761 25.0727 20.653 24.9236 22.2183 24.625L22.2401 24.6206C24.176 24.1986 26.2841 22.1702 26.7517 20.2799L26.7574 20.2568C27.3355 17.6167 27.3355 14.9396 26.7576 12.2996Z" fill="#D1D1D1"/>
<path d="M20.2663 21.4873C20.4363 21.4349 20.0708 21.4279 20.2663 21.4873V21.4873Z" fill="white"/>
<path d="M21.7328 19.2543C21.4762 19.0284 21.1992 18.8344 20.9211 18.6362C20.6377 18.4342 20.3526 18.2344 20.0585 18.0482C19.7644 17.8622 19.4156 17.8651 19.1426 18.0883C18.8633 18.3167 18.7343 18.7539 18.3357 18.8005C18.0977 18.8281 17.8902 18.7281 17.6837 18.6422C16.8894 18.3118 16.2867 17.8065 15.8313 17.1685L14.8633 18.0264C14.8962 18.0644 14.9275 18.1035 14.961 18.1411C16.2681 19.6123 17.9184 20.5721 19.7114 21.316C19.8844 21.3878 20.0708 21.4277 20.2663 21.487C20.0708 21.4276 20.4364 21.4347 20.2663 21.487C20.4364 21.4347 20.6163 21.4084 20.7672 21.3276C21.3012 21.0407 21.6712 20.5915 21.9255 20.0514C22.0645 19.7567 21.9796 19.4716 21.7328 19.2543Z" fill="#D1D1D1"/>
<path d="M17.5131 11.3089C17.5106 11.3089 17.5082 11.3087 17.5057 11.3087C17.5033 11.3085 17.5064 11.3087 17.5131 11.3089Z" fill="white"/>
<path d="M17.5068 11.3085C17.5088 11.3085 17.5107 11.3087 17.5127 11.3087C17.6429 11.3132 19.7598 11.3698 17.5068 11.3085Z" fill="white"/>
<path d="M20.8697 12.7035L20.457 13.0693C21.1056 13.7002 21.5528 14.5365 21.6806 15.4567C21.7265 15.7877 21.7434 16.1229 21.7676 16.4566C21.7798 16.6253 21.8643 16.7826 22.0524 16.7804C22.2344 16.7781 22.3299 16.618 22.3167 16.4492C22.2854 16.0482 22.2604 15.6442 22.1901 15.2492C22.0094 14.2342 21.5386 13.3653 20.8697 12.7035Z" fill="#D1D1D1"/>
<path d="M21.0226 15.3766C20.9044 14.5852 20.576 13.9393 20.0307 13.4473L19.6191 13.812C19.8319 14.0008 20.016 14.2227 20.1578 14.4673C20.4083 14.8996 20.5163 15.3958 20.5171 15.8925C20.5172 15.9684 20.5209 16.0487 20.5453 16.1193C20.6275 16.357 20.9845 16.3275 21.0467 16.092C21.0639 16.027 21.0659 15.9582 21.0698 15.929C21.0659 15.9583 21.0604 15.7681 21.0698 15.929C21.0604 15.7681 21.0546 15.646 21.0454 15.5241C21.0418 15.4745 21.0299 15.4259 21.0226 15.3766Z" fill="#D1D1D1"/>
<path d="M21.0694 15.9292C21.0604 15.7683 21.0657 15.9584 21.0694 15.9292V15.9292Z" fill="white"/>
<path d="M19.6093 15.8722C19.6123 15.872 19.6152 15.8704 19.618 15.8701C19.61 15.8701 19.5976 15.8703 19.585 15.8708C19.5932 15.871 19.6007 15.8722 19.6093 15.8722Z" fill="white"/>
<path d="M19.6105 15.8726C19.6017 15.8727 19.5939 15.8715 19.5854 15.8712C19.5429 15.8723 19.4991 15.8745 19.6105 15.8726Z" fill="white"/>
<path d="M19.619 15.8701C19.6161 15.8704 19.6132 15.872 19.6104 15.8722C19.6326 15.8706 19.6307 15.8701 19.619 15.8701Z" fill="white"/>
<path d="M19.1962 14.1863L18.7773 14.5576C18.8004 14.5716 18.8231 14.5862 18.845 14.6022C19.0472 14.7495 19.175 14.9722 19.2339 15.2126C19.2638 15.3347 19.2749 15.4617 19.2891 15.5872C19.3084 15.759 19.406 15.8646 19.5855 15.8708C19.5985 15.8704 19.6114 15.8702 19.6195 15.8701C19.7059 15.8605 19.7925 15.8 19.8202 15.6805C19.837 15.6082 19.8293 15.5283 19.8227 15.4528C19.7706 14.8543 19.5443 14.4437 19.1962 14.1863Z" fill="#D1D1D1"/>
</svg>
