<svg width="30" height="30" viewBox="0 0 30 30" fill="none" xmlns="http://www.w3.org/2000/svg">
<g clip-path="url(#clip0)">
<path fill-rule="evenodd" clip-rule="evenodd" d="M23.1346 11.3081C22.9041 10.8335 23.1035 10.2621 23.5798 10.0324C24.0546 9.80218 24.6296 10.0004 24.8596 10.4762C25.6163 12.0331 26 13.7116 26 15.463C26 21.7834 20.8408 26.9261 14.5 26.9261C8.15923 26.9261 3 21.7834 3 15.463C3 9.14264 8.15923 4 14.5 4C17.0898 4 19.6262 4.87922 21.6419 6.47605C22.0565 6.80419 22.1255 7.40542 21.7958 7.81821C21.4662 8.23124 20.8623 8.30003 20.4493 7.97143C18.7468 6.62321 16.6897 5.9105 14.5 5.9105C9.21583 5.9105 4.91667 10.1958 4.91667 15.463C4.91667 20.7302 9.21583 25.0156 14.5 25.0156C19.7842 25.0156 24.0833 20.7302 24.0833 15.463C24.0833 14.0019 23.7642 12.6045 23.1346 11.3081ZM13.5415 8.77618C13.5415 8.24888 13.9708 7.82093 14.4998 7.82093C15.0288 7.82093 15.4582 8.24888 15.4582 8.77618V14.5077H19.2915C19.8205 14.5077 20.2498 14.9356 20.2498 15.4629C20.2498 15.9902 19.8205 16.4182 19.2915 16.4182H14.4998C13.9708 16.4182 13.5415 15.9902 13.5415 15.4629V8.77618Z" fill="url(#paint0_linear)"/>
</g>
<defs>
<linearGradient id="paint0_linear" x1="3" y1="4.05707" x2="22.1518" y2="2.19728" gradientUnits="userSpaceOnUse">
<stop stop-color="#FFC738"/>
<stop offset="1" stop-color="#FF9B00"/>
</linearGradient>
<clipPath id="clip0">
<rect width="23" height="22.9261" fill="white" transform="translate(3 4)"/>
</clipPath>
</defs>
</svg>
