<svg width="230" height="200" viewBox="0 0 230 200" fill="none" xmlns="http://www.w3.org/2000/svg">
<g clip-path="url(#clip0)">
<mask id="mask0" mask-type="alpha" maskUnits="userSpaceOnUse" x="6" y="0" width="304" height="127">
<rect x="6" width="304" height="127" fill="url(#paint0_linear)"/>
<rect x="6" width="304" height="127" fill="url(#paint1_linear)"/>
</mask>
<g mask="url(#mask0)">
<g filter="url(#filter0_i)">
<path d="M83.0002 29C82.0002 29 44.0002 12 41.5002 12H35C34 12 33.5 16 32.0002 18C30.5004 20 40.5 24 41.5002 25.5C42.3004 26.7 55.5001 36 62 40.5L43 50.5C34.3333 48 16.8 43.2 16 44C15 45 13.0002 46.5 12.0002 47.5C11.0002 48.5 11.5002 54.5 12.0002 56C12.5002 57.5 25.5002 61.5 27.0002 62.5C28.5002 63.5 32.0002 65 32.0002 66.5C32.0002 67.7 27.0002 69.3333 24.5002 70C25.3335 71.8333 27.0002 75.7 27.0002 76.5C27.0002 77.5 30.5002 82.5 32.0002 83C33.2002 83.4 62.5002 67.8333 77.0002 60C76.5002 67 75.2002 82.1 74.0002 86.5C72.8002 90.9 72.5002 99.3333 72.5002 103L75.5002 107C77.1669 106.5 81.0002 105.5 83.0002 105.5C85.0002 105.5 83.8335 103.833 83.0002 103L106 48.5L115 44C118 42.5 137.5 34 139 33C140.5 32 146 22 147.5 19.5C148.7 17.5 147 14.3333 146 13L135 8.5C123.834 13.3333 101.2 23.2 100 24C98.5002 25 84.0002 29 83.0002 29Z" fill="#1E2A48"/>
</g>
<path d="M23.3686 68.0936C22.1215 68.6782 21.5677 70.1577 22.119 71.4252L27.7713 83.737C28.049 84.3501 28.5574 84.8283 29.1838 85.0653C29.4582 85.1665 29.7494 85.2192 30.0423 85.22C30.4089 85.2243 30.7709 85.1464 31.1047 84.9952L74.1424 64.9088L70.1294 105.879C70.0518 106.686 70.3583 107.48 70.956 108.021C72.8357 109.596 75.1813 110.498 77.6242 110.585C78.298 110.587 78.968 110.503 79.6216 110.338C83.1134 109.431 85.8278 106.309 87.6889 100.968L104.75 50.5917L138.293 34.9575C148.167 30.3542 153.275 20.9764 149.885 13.635C147.959 9.79749 144.258 7.17995 140.02 6.65655C135.311 5.92689 130.495 6.6589 126.21 8.7556L87.5009 26.8928L45.9875 10.4032C40.7594 8.40292 36.6139 8.44178 33.7006 10.5465C31.2554 12.5545 29.8587 15.5796 29.9087 18.7564C29.9317 19.5624 30.3325 20.3089 30.9898 20.7716L58.919 40.2242L42.8693 47.8139L16.0143 40.8613C14.9138 40.5854 13.766 41.0819 13.2049 42.0751L6.47067 54.1967C6.12122 54.839 6.06435 55.6025 6.31489 56.2904C6.56385 56.9791 7.09586 57.5251 7.77516 57.7901L27.6472 66.122L23.3686 68.0936ZM35.0942 17.4993C35.2462 16.4236 35.7898 15.4455 36.6199 14.7544C38.0647 13.7144 40.6935 13.8752 44.2032 15.2087L81.1727 29.8524L64.2608 37.7448L35.0942 17.4993ZM12.2343 54.1889L16.6561 46.3364L42.4998 52.8771C43.0567 53.0206 43.6451 52.9689 44.1699 52.7305L128.346 13.4451C131.693 11.7953 135.458 11.2021 139.146 11.7454C141.732 11.9929 144.033 13.5031 145.303 15.7851C147.411 20.3741 143.221 27.0563 136.157 30.3445L106.993 44.0058L108.779 38.7403C109.23 37.3857 108.504 35.9184 107.158 35.4649C105.811 35.0113 104.355 35.7428 103.904 37.0974L82.9149 99.3747C81.6654 102.91 80.117 105.019 78.3969 105.471C77.3314 105.674 76.23 105.46 75.3141 104.877L80.5275 51.4358C80.6639 50.0308 79.6438 48.7803 78.2469 48.6431C76.8515 48.5042 75.6095 49.5329 75.4723 50.9379L74.6654 59.1063L31.2218 79.3429L27.6815 71.6958L34.8191 68.3576C35.7379 67.9529 36.332 67.0411 36.3349 66.0327C36.3379 65.0235 35.7492 64.1083 34.8328 63.6991L12.2343 54.1889Z" fill="#1C2845"/>
</g>
</g>
<defs>
<filter id="filter0_i" x="11.4229" y="8.5" width="136.49" height="98.5" filterUnits="userSpaceOnUse" color-interpolation-filters="sRGB">
<feFlood flood-opacity="0" result="BackgroundImageFix"/>
<feBlend mode="normal" in="SourceGraphic" in2="BackgroundImageFix" result="shape"/>
<feColorMatrix in="SourceAlpha" type="matrix" values="0 0 0 0 0 0 0 0 0 0 0 0 0 0 0 0 0 0 127 0" result="hardAlpha"/>
<feOffset/>
<feGaussianBlur stdDeviation="5"/>
<feComposite in2="hardAlpha" operator="arithmetic" k2="-1" k3="1"/>
<feColorMatrix type="matrix" values="0 0 0 0 0 0 0 0 0 0 0 0 0 0 0 0 0 0 1 0"/>
<feBlend mode="normal" in2="shape" result="effect1_innerShadow"/>
</filter>
<linearGradient id="paint0_linear" x1="352.085" y1="106.754" x2="5.42158" y2="-15.3183" gradientUnits="userSpaceOnUse">
<stop stop-color="#60719D" stop-opacity="0.1"/>
<stop offset="0.546875" stop-color="#3B496E" stop-opacity="0.725913"/>
<stop offset="0.998777" stop-color="#2A375A"/>
</linearGradient>
<linearGradient id="paint1_linear" x1="460.515" y1="104.26" x2="5.99998" y2="103.277" gradientUnits="userSpaceOnUse">
<stop stop-color="#1A2643"/>
<stop offset="1" stop-color="#1A2643" stop-opacity="0"/>
</linearGradient>
<clipPath id="clip0">
<rect width="230" height="200" fill="white"/>
</clipPath>
</defs>
</svg>
