<svg width="35" height="35" viewBox="0 0 35 35" fill="none" xmlns="http://www.w3.org/2000/svg">
<rect width="35" height="35" rx="8" fill="#4D76A1"/>
<g clip-path="url(#clip0)">
<path d="M28.621 22.5644C28.5601 22.4625 28.1836 21.6443 26.3717 19.9626C24.4749 18.2017 24.7297 18.4876 27.0144 15.4428C28.4058 13.5884 28.9621 12.456 28.788 11.9718C28.6224 11.5104 27.599 11.6321 27.599 11.6321L24.196 11.6519C24.196 11.6519 23.944 11.618 23.7558 11.7298C23.5732 11.8402 23.4557 12.095 23.4557 12.095C23.4557 12.095 22.9163 13.5304 22.1972 14.7506C20.6812 17.3254 20.0739 17.4613 19.8262 17.3014C19.2501 16.9291 19.3945 15.8037 19.3945 15.0054C19.3945 12.5098 19.7724 11.4693 18.657 11.2004C18.2861 11.1112 18.0143 11.0517 17.0673 11.0418C15.8528 11.0291 14.8237 11.0461 14.2419 11.3306C13.854 11.5203 13.5553 11.9435 13.7379 11.9676C13.963 11.9973 14.4726 12.1049 14.743 12.4729C15.0926 12.9472 15.0799 14.0145 15.0799 14.0145C15.0799 14.0145 15.2809 16.9517 14.6113 17.3169C14.1513 17.5675 13.5214 17.0565 12.1695 14.7194C11.4773 13.5233 10.9536 12.1997 10.9536 12.1997C10.9536 12.1997 10.8531 11.9534 10.6733 11.8218C10.4553 11.6618 10.1495 11.6109 10.1495 11.6109L6.9136 11.6307C6.9136 11.6307 6.42806 11.6449 6.24971 11.8558C6.09116 12.044 6.23697 12.4319 6.23697 12.4319C6.23697 12.4319 8.77079 18.3588 11.6387 21.347C14.2702 24.0861 17.257 23.9063 17.257 23.9063H18.6103C18.6103 23.9063 19.0193 23.861 19.2274 23.6359C19.4199 23.4293 19.4129 23.0414 19.4129 23.0414C19.4129 23.0414 19.386 21.2253 20.2296 20.9577C21.0606 20.6944 22.1279 22.713 23.2589 23.4901C24.1139 24.0776 24.7636 23.9488 24.7636 23.9488L27.7887 23.9063C27.7887 23.9063 29.3712 23.8086 28.621 22.5644Z" fill="white"/>
</g>
<defs>
<clipPath id="clip0">
<rect width="22.6471" height="22.6471" fill="white" transform="translate(6.17578 6.17645)"/>
</clipPath>
</defs>
</svg>
