<svg width="30" height="30" viewBox="0 0 30 30" fill="none" xmlns="http://www.w3.org/2000/svg">
<path d="M24.2133 6H6.09105C4.93797 6 4 6.98416 4 8.19402V21.3581C4 22.5679 4.93797 23.5521 6.09105 23.5521H24.2133C25.3664 23.5521 26.3043 22.5679 26.3043 21.3581V8.19402C26.3043 6.98416 25.3664 6 24.2133 6ZM24.2133 7.46266C24.308 7.46266 24.3981 7.48328 24.4805 7.51928L15.1522 16.0023L5.82385 7.51928C5.90621 7.48333 5.9963 7.46266 6.091 7.46266H24.2133ZM24.2133 22.0894H6.09105C5.70647 22.0894 5.39402 21.7616 5.39402 21.358V9.06461L14.6954 17.5228C14.8268 17.6421 14.9895 17.7014 15.1522 17.7014C15.3148 17.7014 15.4775 17.6421 15.6089 17.5228L24.9103 9.06461V21.3581C24.9103 21.7616 24.5979 22.0894 24.2133 22.0894Z" fill="url(#paint0_linear)"/>
<defs>
<linearGradient id="paint0_linear" x1="4" y1="6.04369" x2="22.4682" y2="3.77203" gradientUnits="userSpaceOnUse">
<stop stop-color="#FFC738"/>
<stop offset="1" stop-color="#FF9B00"/>
</linearGradient>
</defs>
</svg>
