<svg width="110" height="100" viewBox="0 0 110 100" fill="none" xmlns="http://www.w3.org/2000/svg">
<g clip-path="url(#clip0)" filter="url(#filter0_d)">
<path fill-rule="evenodd" clip-rule="evenodd" d="M15 28.2047C12.2386 28.2047 10 30.4433 10 33.2047V77C10 79.7615 12.2386 82 15 82H89.5355C92.297 82 94.5355 79.7615 94.5355 77V33.2047C94.5355 30.4433 92.297 28.2047 89.5355 28.2047H15ZM16.2871 33.7938V43.1459H18.8061V33.7938H16.2871ZM20.552 33.7938V43.1459H23.0711V38.9275H23.0984L26.9865 43.1459H29.9848L25.5353 38.2377L29.8342 33.7938H26.8496L23.0984 37.7999H23.0711V33.7938H20.552ZM30.2985 43.1459V33.7938H37.1163V35.6775H32.708V37.455H36.8015V39.3387H32.708V41.2622H37.1163V43.1459H30.2985ZM41.9151 33.7938L37.3972 43.1459H39.9163L40.7514 41.2489H45.0639L45.899 43.1459H48.4181L43.9002 33.7938H41.9151ZM41.5728 39.3785L42.8871 36.3407H42.9145L44.2288 39.3785H41.5728ZM16.2871 54.753V45.401H23.0228V47.2846H18.8061V49.1683H22.7216V51.0387H18.8061V54.753H16.2871ZM26.8609 45.401L22.343 54.753H24.8621L25.6972 52.8561H30.0097L30.8448 54.753H33.3639L28.846 45.401H26.8609ZM26.5186 50.9857L27.8329 47.9479H27.8603L29.1746 50.9857H26.5186ZM33.9758 54.753V45.401H36.0704L39.1508 50.7602L42.2311 45.401H44.271V54.753H41.9984V49.6724L39.7942 53.3734H38.4252L36.2484 49.7255V54.753H33.9758ZM46.0479 45.401V54.753H48.567V45.401H46.0479ZM50.3128 54.753V45.401H52.8319V52.7234H57.1307V54.753H50.3128ZM58.9628 50.6142V54.753H61.4818V50.6142L65.1919 45.401H62.3854L60.2634 48.4387L58.1413 45.401H55.2526L58.9628 50.6142Z" fill="url(#paint0_linear)"/>
<path d="M18.9648 71.1129H16.4032V73.6746H18.9648V71.1129Z" fill="#172340"/>
<path d="M24.0889 71.1129H21.5272V73.6746H24.0889V71.1129Z" fill="#172340"/>
<path d="M29.2129 71.1129H26.6512V73.6746H29.2129V71.1129Z" fill="#172340"/>
<path d="M34.3345 71.1129H31.7728V73.6746H34.3345V71.1129Z" fill="#172340"/>
<path d="M39.46 71.1129H36.8983V73.6746H39.46V71.1129Z" fill="#172340"/>
<path d="M44.5825 71.1129H42.0208V73.6746H44.5825V71.1129Z" fill="#172340"/>
<g filter="url(#filter1_i)">
<path fill-rule="evenodd" clip-rule="evenodd" d="M69.5694 78.3745C77.6953 78.3498 84.2766 75.2607 84.2693 71.4747C84.2619 67.6887 77.6687 64.6395 69.5428 64.6641C61.4169 64.6888 54.8355 67.7779 54.8429 71.5639C54.8502 75.3499 61.4435 78.3991 69.5694 78.3745ZM57.1865 68.6965L60.054 68.6878L60.065 74.3678L57.1976 74.3765L57.1865 68.6965ZM61.5112 68.6834L64.1122 68.6755L64.1172 71.2413L65.6791 68.6707L68.4369 68.6624L66.812 71.0764L68.5733 74.342L65.3455 74.3518L64.1186 71.966L64.1233 74.3555L61.5222 74.3634L61.5112 68.6834ZM74.3754 68.6444L69.1263 68.6603L69.1374 74.3403L74.3865 74.3244L74.3837 72.875L71.7669 72.8829L71.7655 72.1386L73.8808 72.1322L73.8785 70.9179L71.7631 70.9243L71.7616 70.1409L74.3783 70.1329L74.3754 68.6444ZM74.8879 74.3229L76.9719 74.3165L77.2523 73.4735L78.9132 73.4684L79.1969 74.3098L81.9389 74.3015L80.173 68.6268L76.4594 68.638L74.8879 74.3229Z" fill="#202C4A"/>
</g>
<path d="M78.0138 70.6704C77.8581 71.1866 77.5499 72.2307 77.5626 72.2776L78.5183 72.2747L78.0138 70.6704Z" fill="#202B49"/>
<g filter="url(#filter2_d)">
<circle cx="80.5417" cy="31.38" r="18.7727" fill="#C4C4C4"/>
<circle cx="80.5417" cy="31.38" r="18.7727" fill="url(#paint1_linear)"/>
</g>
<path d="M72.6219 40.0969C72.1044 39.5935 72.093 38.7659 72.5964 38.2485L87.1798 23.2576C87.6832 22.7402 88.5108 22.7288 89.0283 23.2322C89.5457 23.7356 89.5571 24.5632 89.0537 25.0806L74.4702 40.0715C73.9669 40.589 73.1393 40.6003 72.6219 40.0969Z" fill="#1C2845"/>
<path d="M74.2912 27.1337C72.7389 25.6235 72.7047 23.1408 74.2148 21.5885C75.725 20.0361 78.2077 20.0019 79.76 21.5121C81.3123 23.0223 81.3466 25.5049 79.8364 27.0573C78.3262 28.6096 75.8436 28.6438 74.2912 27.1337ZM77.9371 23.3859C77.4197 22.8825 76.592 22.8939 76.0887 23.4114C75.5853 23.9288 75.5967 24.7565 76.1141 25.2598C76.6316 25.7632 77.4592 25.7518 77.9626 25.2344C78.466 24.7169 78.4546 23.8893 77.9371 23.3859Z" fill="#1C2845"/>
<path d="M81.8874 41.8183C80.335 40.3081 80.3008 37.8254 81.811 36.2731C83.3212 34.7207 85.8039 34.6865 87.3562 36.1967C88.9085 37.7068 88.9427 40.1895 87.4326 41.7419C85.9224 43.2942 83.4397 43.3284 81.8874 41.8183ZM85.5333 38.0705C85.0158 37.5671 84.1882 37.5785 83.6848 38.096C83.1814 38.6134 83.1928 39.4411 83.7103 39.9445C84.2277 40.4478 85.0553 40.4364 85.5587 39.919C86.0621 39.4015 86.0507 38.5739 85.5333 38.0705Z" fill="#1C2845"/>
</g>
<defs>
<filter id="filter0_d" x="-5" y="-7" width="120" height="120" filterUnits="userSpaceOnUse" color-interpolation-filters="sRGB">
<feFlood flood-opacity="0" result="BackgroundImageFix"/>
<feColorMatrix in="SourceAlpha" type="matrix" values="0 0 0 0 0 0 0 0 0 0 0 0 0 0 0 0 0 0 127 0"/>
<feOffset dy="3"/>
<feGaussianBlur stdDeviation="5"/>
<feColorMatrix type="matrix" values="0 0 0 0 0 0 0 0 0 0 0 0 0 0 0 0 0 0 0.4 0"/>
<feBlend mode="normal" in2="BackgroundImageFix" result="effect1_dropShadow"/>
<feBlend mode="normal" in="SourceGraphic" in2="effect1_dropShadow" result="shape"/>
</filter>
<filter id="filter1_i" x="54.8428" y="64.6639" width="29.4264" height="15.7107" filterUnits="userSpaceOnUse" color-interpolation-filters="sRGB">
<feFlood flood-opacity="0" result="BackgroundImageFix"/>
<feBlend mode="normal" in="SourceGraphic" in2="BackgroundImageFix" result="shape"/>
<feColorMatrix in="SourceAlpha" type="matrix" values="0 0 0 0 0 0 0 0 0 0 0 0 0 0 0 0 0 0 127 0" result="hardAlpha"/>
<feOffset dy="2"/>
<feGaussianBlur stdDeviation="5.5"/>
<feComposite in2="hardAlpha" operator="arithmetic" k2="-1" k3="1"/>
<feColorMatrix type="matrix" values="0 0 0 0 0 0 0 0 0 0 0 0 0 0 0 0 0 0 0.34 0"/>
<feBlend mode="normal" in2="shape" result="effect1_innerShadow"/>
</filter>
<filter id="filter2_d" x="57.769" y="11.6073" width="43.5454" height="43.5454" filterUnits="userSpaceOnUse" color-interpolation-filters="sRGB">
<feFlood flood-opacity="0" result="BackgroundImageFix"/>
<feColorMatrix in="SourceAlpha" type="matrix" values="0 0 0 0 0 0 0 0 0 0 0 0 0 0 0 0 0 0 127 0"/>
<feOffset dx="-1" dy="2"/>
<feGaussianBlur stdDeviation="1.5"/>
<feColorMatrix type="matrix" values="0 0 0 0 0 0 0 0 0 0 0 0 0 0 0 0 0 0 0.3 0"/>
<feBlend mode="normal" in2="BackgroundImageFix" result="effect1_dropShadow"/>
<feBlend mode="normal" in="SourceGraphic" in2="effect1_dropShadow" result="shape"/>
</filter>
<linearGradient id="paint0_linear" x1="38.1785" y1="22.6544" x2="83.3464" y2="55.5491" gradientUnits="userSpaceOnUse">
<stop stop-color="#FF9B00"/>
<stop offset="1" stop-color="#FFC738"/>
</linearGradient>
<linearGradient id="paint1_linear" x1="69.0181" y1="14.146" x2="86.2092" y2="41.7419" gradientUnits="userSpaceOnUse">
<stop stop-color="#CDCDCD"/>
<stop offset="1" stop-color="white"/>
</linearGradient>
<clipPath id="clip0">
<rect width="100" height="100" fill="white" transform="translate(5)"/>
</clipPath>
</defs>
</svg>
