<svg width="1920" height="600" viewBox="0 0 1920 600" fill="none" xmlns="http://www.w3.org/2000/svg">
<g clip-path="url(#clip0)">
<path d="M-151 664H833.244L1195 -63.0001H216.201L-151 664Z" fill="#172340"/>
<path d="M-34 601H779.5L1078.5 0H269.5L-34 601Z" fill="#232E4A"/>
<path d="M1177 -1H1124L824 601.5H1076.5L1177 -1Z" fill="#FFC130"/>
<path d="M1177 -1H1124L824 601.5H1076.5L1177 -1Z" fill="url(#paint0_linear)"/>
<path d="M1050 601H1102L1402.5 0H1150L1050 601Z" fill="#FFC130"/>
<path d="M1087 601H1139L1439.5 0H1187L1087 601Z" fill="url(#paint1_linear)"/>
<path d="M1479.5 0H1422.5L1122 601H1374.5L1479.5 0Z" fill="url(#paint2_linear)"/>
<path d="M-137 601H-80L220.5 0H-32L-137 601Z" fill="url(#paint3_linear)"/>
<path d="M-201 601H-144L156.5 0H-96L-201 601Z" fill="url(#paint4_linear)"/>
<path d="M1782 0H1859.5V601H1571L1782 0Z" fill="#172340" fill-opacity="0.6"/>
<path d="M1843 0H1920.5V601H1632L1843 0Z" fill="#172340"/>
<path d="M1920 0H1997.5V601H1709L1920 0Z" fill="#20588F" fill-opacity="0.26"/>
<path d="M2079.5 0H2027.5L1727 601H1979.5L2079.5 0Z" fill="url(#paint5_linear)"/>
</g>
<defs>
<linearGradient id="paint0_linear" x1="824" y1="0.499791" x2="1119.76" y2="-16.2733" gradientUnits="userSpaceOnUse">
<stop stop-color="#FFC738"/>
<stop offset="1" stop-color="#FF9B00"/>
</linearGradient>
<linearGradient id="paint1_linear" x1="1439.5" y1="601" x2="1143.74" y2="617.773" gradientUnits="userSpaceOnUse">
<stop stop-color="#FFC738" stop-opacity="0.5"/>
<stop offset="1" stop-color="#FF9B00"/>
</linearGradient>
<linearGradient id="paint2_linear" x1="1345" y1="-65.9997" x2="1546.8" y2="-15.3408" gradientUnits="userSpaceOnUse">
<stop stop-color="#FFC738"/>
<stop offset="1" stop-color="#FF9B00" stop-opacity="0.24"/>
</linearGradient>
<linearGradient id="paint3_linear" x1="-80" y1="657.5" x2="-265.35" y2="579.546" gradientUnits="userSpaceOnUse">
<stop stop-color="#FFC738"/>
<stop offset="1" stop-color="#FF9B00" stop-opacity="0.69"/>
</linearGradient>
<linearGradient id="paint4_linear" x1="55.5001" y1="324.5" x2="-72.9968" y2="287.391" gradientUnits="userSpaceOnUse">
<stop stop-color="#FF9B00" stop-opacity="0.69"/>
<stop offset="1" stop-color="#FFC738"/>
</linearGradient>
<linearGradient id="paint5_linear" x1="1878.5" y1="610" x2="1733.63" y2="528.012" gradientUnits="userSpaceOnUse">
<stop stop-color="#FFC738"/>
<stop offset="1" stop-color="#FF9B00"/>
</linearGradient>
<clipPath id="clip0">
<rect width="1920" height="600" fill="white"/>
</clipPath>
</defs>
</svg>
