<svg width="1165" height="612" viewBox="0 0 1165 612" fill="none" xmlns="http://www.w3.org/2000/svg">
<g clip-path="url(#clip0)">
<path d="M130 57H191L472 611.5H219.5L130 57Z" fill="#FFC130"/>
<path d="M130 57H191L472 611.5H219.5L130 57Z" fill="url(#paint0_linear)"/>
<path d="M195.5 611H143.5L-155 56.5H103.5L195.5 611Z" fill="url(#paint1_linear)"/>
<path d="M195.5 611H143.5L-155 56.5H103.5L195.5 611Z" fill="url(#paint2_linear)"/>
<path d="M-239 10H-182L118.5 611H-134L-239 10Z" fill="url(#paint3_linear)"/>
<path d="M-239 10H-182L118.5 611H-134L-239 10Z" fill="url(#paint4_linear)"/>
<path d="M1145 612H532.5L319 179.5H916.5L1145 612Z" fill="#1B2440" fill-opacity="0.75"/>
<path d="M1145 612H532.5L319 179.5H916.5L1145 612Z" fill="url(#paint5_linear)" fill-opacity="0.2"/>
<path d="M521.081 119.511V83.5107H547.242V89.2666H529.346V98.4235H544.769V104.232H529.346V113.755H547.242V119.511H521.081Z" fill="url(#paint6_linear)"/>
<path d="M578.123 119.511L569.468 106.534H569.012L560.357 119.511H551.246L564.066 101.406L551.507 83.5107H560.813L569.273 96.0689H569.793L578.253 83.5107H587.364L574.804 101.249L587.559 119.511H578.123Z" fill="url(#paint7_linear)"/>
<path d="M593.276 83.5107H610.716C614.1 83.5107 616.682 83.9817 618.461 84.9235C620.283 85.8305 621.498 87.1386 622.105 88.848C622.756 90.5224 623.081 92.72 623.081 95.441C623.081 98.0573 622.777 100.22 622.17 101.929C621.563 103.604 620.348 104.947 618.526 105.958C616.704 106.935 614.057 107.424 610.586 107.424H601.541V119.511H593.276V83.5107ZM607.853 101.668C610.022 101.668 611.562 101.511 612.474 101.197C613.428 100.848 614.035 100.272 614.296 99.47C614.599 98.6328 614.751 97.2898 614.751 95.441C614.751 93.5921 614.599 92.2666 614.296 91.4642C614.035 90.627 613.45 90.0514 612.539 89.7375C611.628 89.4235 610.109 89.2666 607.983 89.2666H601.541V101.668H607.853Z" fill="url(#paint8_linear)"/>
<path d="M325 42H847.5L904 132H327.942L326.471 130.333L325 125.468V42Z" fill="url(#paint9_linear)" fill-opacity="0.19"/>
<path d="M482.812 82.0992L451 55V118.624H461.204L461.804 78.5645L482.812 95.0596L514.624 69.7278V55L482.812 82.0992Z" fill="url(#paint10_linear)"/>
<path d="M482.987 102.427L466.271 87.6103V101.242L482.987 116.058L504.477 98.2783V119.021H514.626V75.7571L482.987 102.427Z" fill="url(#paint11_linear)"/>
<g clip-path="url(#clip1)">
<path d="M365.966 119.533C340.485 125.636 327.826 131.348 327.988 136.668C328.217 144.336 355.202 151.192 408.941 157.235C391.44 159.181 373.79 159.37 356.251 157.802C320.71 154.588 277.13 150.684 267.229 126.606C258.307 104.833 278.063 69.2245 315.512 42.6672L365.966 119.533Z" fill="url(#paint12_linear)" fill-opacity="0.39"/>
<path d="M296.348 124.746C288.044 110.115 302.862 82.8295 323.772 55.2345L365.95 119.503C340.47 125.607 327.811 131.319 327.972 136.639C328.202 144.307 355.186 151.163 408.926 157.206C408.926 157.206 317.317 161.621 296.348 124.746Z" fill="url(#paint13_linear)"/>
<path d="M267.235 126.606C258.313 104.833 278.069 69.2245 315.518 42.6671L319.551 48.8156C304.378 57.6082 270.972 80.1453 266.798 109.869C265.224 121.104 268.802 129.983 274.652 136.982C271.435 134.134 268.899 130.586 267.235 126.606Z" fill="url(#paint14_linear)"/>
<path d="M364.117 150.921C285.767 141.306 347.283 112.527 347.283 112.527L361.694 112.998L365.973 119.525C340.493 125.628 331.736 130.871 331.898 136.191C332.048 141.315 340.186 146.537 364.117 150.921Z" fill="#3E4C6B"/>
<path d="M315.725 61.8288C315.725 61.8288 277.937 86.6855 272.952 116.504C267.967 146.323 332.966 153.297 332.966 153.297C331.49 153.119 277.562 145.263 279.567 120.46C281.573 95.6572 337.984 78.331 337.984 78.331L315.725 61.8288Z" fill="url(#paint15_linear)"/>
<path d="M315.725 61.8288C315.725 61.8288 277.937 86.6855 272.952 116.504C267.967 146.323 332.966 153.297 332.966 153.297C331.49 153.119 277.562 145.263 279.567 120.46C281.573 95.6572 337.984 78.331 337.984 78.331L315.725 61.8288Z" fill="url(#paint16_linear)"/>
<path d="M328.059 89.6638C327.24 90.3126 303.55 93.1705 294.195 112.587C284.84 132.003 304.382 138.834 304.382 138.834C303.009 138.252 294.321 130.269 296.739 120.103C299.158 109.938 329.49 100.22 329.49 100.22L328.059 89.6638Z" fill="url(#paint17_linear)"/>
<path d="M354.341 98.0044C353.435 98.5319 329.579 97.8821 317.501 115.717C305.423 133.552 323.807 143.185 323.807 143.185C322.531 142.408 315.061 133.211 318.945 123.533C322.829 113.855 354.256 108.656 354.256 108.656L354.341 98.0044Z" fill="url(#paint18_linear)"/>
<path d="M369.183 10.7523L369.873 74.8986L423.845 99.5741L423.221 41.5314L369.183 10.7523Z" fill="#FFB520" stroke="black" stroke-width="0.2"/>
<path d="M369.773 74.9633L316.144 100.889L315.518 42.6315L369.081 10.5793L369.773 74.9633Z" fill="#FFB520"/>
<path d="M316.145 100.888L369.773 121L423.946 99.7294L369.773 74.962L316.145 100.888Z" fill="#FFB520"/>
<path d="M405.319 91.2147L393.131 85.6429L392.468 23.8979L404.67 30.8502L405.319 91.2147Z" fill="#EFDAC1"/>
<path d="M393.132 85.6423L336.051 108.333L349.521 113.381L405.319 91.214L393.132 85.6423Z" fill="#EFDAC1"/>
<path d="M420.981 43.8138L408.535 37.31L408.584 41.9047L421.031 48.4086L420.981 43.8138Z" fill="#FFEAE7"/>
<path d="M421.041 49.4219L411.278 44.7733L411.327 49.3681L421.091 54.0166L421.041 49.4219Z" fill="#FFEAE7"/>
<path d="M381.855 70.7693L381.925 77.2408L373.297 73.5365L373.219 66.2668L381.855 70.7693Z" fill="#FFEAE7"/>
<path d="M336.582 108.126L340.483 109.997L336.05 108.333L336.582 108.126Z" fill="#C49D72"/>
<path d="M369.082 10.5783L387.589 21.1161C387.589 21.1161 372.659 14.0852 371.147 15.2233C369.502 16.5066 369.25 23.5568 369.241 27.4115L369.082 10.5783Z" fill="#FF9B00" fill-opacity="0.4"/>
<path d="M419.579 43.1154L421.011 43.8191L421.039 46.4509C420.623 45.3087 420.136 44.1946 419.579 43.1154Z" fill="white" fill-opacity="0.38"/>
<path d="M408.246 92.5486C408.246 92.5486 419.922 96.9896 421.54 95.8288C423.159 94.668 423.805 86.5276 423.805 86.5276L423.947 99.7294L408.246 92.5486Z" fill="#F99837" fill-opacity="0.67"/>
<path d="M376.052 74.7229L373.297 73.5371L373.263 70.3014C374.059 71.857 374.992 73.3368 376.052 74.7229Z" fill="#FFEAE7" fill-opacity="0.35"/>
<path d="M405.055 64.7463C405.055 64.7463 403.858 34.1384 403.839 32.3983C403.82 30.6582 399.575 27.9279 399.575 27.9279L404.691 30.8502L405.055 64.7463Z" fill="#FFE9CF"/>
<path d="M369.591 11.4447L370.27 74.6404L423.438 98.9483L422.824 41.7653L369.591 11.4447Z" stroke="#6F4300"/>
<path d="M315.505 42.7821L316.486 100.211L369.495 74.6883L368.514 11.3697L315.505 42.7821Z" stroke="#6F4300"/>
<path d="M370.366 75.2855L317.421 100.829L370.35 120.465L424.793 98.9886L370.366 75.2855Z" stroke="#6F4300"/>
</g>
</g>
<defs>
<linearGradient id="paint0_linear" x1="472" y1="10.5039" x2="176.241" y2="-6.26917" gradientUnits="userSpaceOnUse">
<stop stop-color="#FFC738"/>
<stop offset="1" stop-color="#FF9B00"/>
</linearGradient>
<linearGradient id="paint1_linear" x1="-157" y1="611" x2="138.759" y2="627.773" gradientUnits="userSpaceOnUse">
<stop stop-color="#FFC738" stop-opacity="0.5"/>
<stop offset="1" stop-color="#FF9B00"/>
</linearGradient>
<linearGradient id="paint2_linear" x1="-123" y1="-261.5" x2="-444.875" y2="25.3361" gradientUnits="userSpaceOnUse">
<stop stop-color="#FFC738"/>
<stop offset="1" stop-color="#FF9B00"/>
</linearGradient>
<linearGradient id="paint3_linear" x1="-182" y1="-46.5" x2="-367.35" y2="31.4544" gradientUnits="userSpaceOnUse">
<stop stop-color="#FFC738"/>
<stop offset="1" stop-color="#FF9B00" stop-opacity="0.69"/>
</linearGradient>
<linearGradient id="paint4_linear" x1="-223.501" y1="-21.5006" x2="-470.776" y2="230.797" gradientUnits="userSpaceOnUse">
<stop stop-color="#FFC738"/>
<stop offset="1" stop-color="#FF9B00"/>
</linearGradient>
<linearGradient id="paint5_linear" x1="288" y1="389.5" x2="917" y2="179.5" gradientUnits="userSpaceOnUse">
<stop stop-color="white"/>
<stop offset="1" stop-color="white" stop-opacity="0.1"/>
</linearGradient>
<linearGradient id="paint6_linear" x1="521.081" y1="83.6004" x2="600.818" y2="61.732" gradientUnits="userSpaceOnUse">
<stop stop-color="#FFC738"/>
<stop offset="1" stop-color="#FF9B00"/>
</linearGradient>
<linearGradient id="paint7_linear" x1="521.081" y1="83.6004" x2="600.818" y2="61.732" gradientUnits="userSpaceOnUse">
<stop stop-color="#FFC738"/>
<stop offset="1" stop-color="#FF9B00"/>
</linearGradient>
<linearGradient id="paint8_linear" x1="521.081" y1="83.6004" x2="600.818" y2="61.732" gradientUnits="userSpaceOnUse">
<stop stop-color="#FFC738"/>
<stop offset="1" stop-color="#FF9B00"/>
</linearGradient>
<linearGradient id="paint9_linear" x1="372.928" y1="92.6261" x2="901.514" y2="102.76" gradientUnits="userSpaceOnUse">
<stop stop-color="white"/>
<stop offset="1" stop-color="white" stop-opacity="0"/>
</linearGradient>
<linearGradient id="paint10_linear" x1="472.208" y1="48.4356" x2="515.035" y2="68.2835" gradientUnits="userSpaceOnUse">
<stop stop-color="#FF9B00"/>
<stop offset="1" stop-color="#FFC738"/>
</linearGradient>
<linearGradient id="paint11_linear" x1="466.271" y1="80.5642" x2="508.169" y2="123.249" gradientUnits="userSpaceOnUse">
<stop stop-color="#989898"/>
<stop offset="1" stop-color="white"/>
</linearGradient>
<linearGradient id="paint12_linear" x1="336.014" y1="42.4469" x2="415.31" y2="163.748" gradientUnits="userSpaceOnUse">
<stop stop-color="#A7C1FF"/>
<stop offset="0.0001" stop-color="#A7C1FF"/>
<stop offset="0.078125" stop-color="#6075A9" stop-opacity="0.921967"/>
<stop offset="1" stop-color="white" stop-opacity="0.2"/>
</linearGradient>
<linearGradient id="paint13_linear" x1="364.283" y1="108.77" x2="336.3" y2="161.938" gradientUnits="userSpaceOnUse">
<stop stop-color="#4E5F89"/>
<stop offset="1" stop-color="white" stop-opacity="0"/>
</linearGradient>
<linearGradient id="paint14_linear" x1="324.819" y1="49.3127" x2="273.851" y2="109.832" gradientUnits="userSpaceOnUse">
<stop stop-color="white"/>
<stop offset="1" stop-color="white" stop-opacity="0"/>
</linearGradient>
<linearGradient id="paint15_linear" x1="312.811" y1="71.1382" x2="306.953" y2="153.577" gradientUnits="userSpaceOnUse">
<stop stop-color="#91A8DA"/>
<stop offset="0.932292" stop-color="#738BC0" stop-opacity="0"/>
</linearGradient>
<linearGradient id="paint16_linear" x1="339.982" y1="71.752" x2="258.279" y2="128.145" gradientUnits="userSpaceOnUse">
<stop stop-color="#989898"/>
<stop offset="1" stop-color="white" stop-opacity="0"/>
</linearGradient>
<linearGradient id="paint17_linear" x1="329.434" y1="95.0841" x2="285.062" y2="127.286" gradientUnits="userSpaceOnUse">
<stop stop-color="#989898"/>
<stop offset="0.994792" stop-color="white" stop-opacity="0.08"/>
</linearGradient>
<linearGradient id="paint18_linear" x1="354.394" y1="102.987" x2="310.52" y2="137.177" gradientUnits="userSpaceOnUse">
<stop stop-color="#989898"/>
<stop offset="1" stop-color="white" stop-opacity="0.11"/>
</linearGradient>
<clipPath id="clip0">
<rect width="1165" height="612" fill="white"/>
</clipPath>
<clipPath id="clip1">
<rect width="158.992" height="148.392" fill="white" transform="matrix(-0.999942 0.0107455 0.0107455 0.999942 422.982 10)"/>
</clipPath>
</defs>
</svg>
