<svg width="1011" height="598" viewBox="0 0 1011 598" fill="none" xmlns="http://www.w3.org/2000/svg">
<path d="M0 43H61L342 597.5H89.5L0 43Z" fill="#FFC130"/>
<path d="M0 43H61L342 597.5H89.5L0 43Z" fill="url(#paint0_linear)"/>
<path d="M284 32H727.087L775 122H286.495L285.247 120.333L284 115.468V32Z" fill="url(#paint1_linear)" fill-opacity="0.19"/>
<path d="M451.474 70.1067L420.674 43.8696V105.47H430.553L431.134 66.6845L451.474 82.6549L482.274 58.1289V43.8696L451.474 70.1067Z" fill="url(#paint2_linear)"/>
<path d="M451.642 89.7867L435.459 75.4415V88.6391L451.642 102.984L472.449 85.7701V105.853H482.275V63.9653L451.642 89.7867Z" fill="url(#paint3_linear)"/>
<path d="M519.858 93.3529H501.215C501.215 96.098 501.363 98.0392 501.658 99.1765C501.997 100.314 502.737 101.098 503.878 101.529C505.062 101.961 507.028 102.176 509.775 102.176C512.058 102.176 515.06 101.98 518.78 101.588V106.059C517.597 106.333 516.032 106.549 514.088 106.706C512.143 106.863 510.262 106.941 508.444 106.941C504.428 106.941 501.468 106.471 499.566 105.529C497.706 104.549 496.48 103.02 495.888 100.941C495.296 98.8627 495 95.7255 495 91.5294C495 87.4118 495.275 84.3137 495.824 82.2353C496.374 80.1176 497.558 78.549 499.376 77.5294C501.193 76.5098 504.047 76 507.936 76C511.699 76 514.405 76.5098 516.053 77.5294C517.745 78.5098 518.801 80.0196 519.224 82.0588C519.647 84.0588 519.858 87.1961 519.858 91.4706V93.3529ZM507.81 80.7647C505.78 80.7647 504.322 80.9804 503.434 81.4118C502.589 81.8431 502.018 82.6275 501.722 83.7647C501.426 84.902 501.257 86.7647 501.215 89.3529H513.897V89.0588C513.897 86.549 513.728 84.7255 513.39 83.5882C513.052 82.451 512.46 81.7059 511.615 81.3529C510.811 80.9608 509.543 80.7647 507.81 80.7647Z" fill="url(#paint4_linear)"/>
<path d="M545.183 106.471L537.954 95.5882H537.573L530.407 106.471H523.812L534.085 91.2353L524.193 76.4706H531.042L537.89 86.8824H538.207L545.056 76.4706H551.588L541.695 91.1765L552.032 106.471H545.183Z" fill="url(#paint5_linear)"/>
<path d="M557.698 76.4706H563.278L563.532 80.4706H563.976C564.694 78.7451 565.815 77.5686 567.337 76.9412C568.859 76.3137 570.655 76 572.727 76C575.39 76 577.441 76.451 578.878 77.3529C580.358 78.2549 581.415 79.8039 582.049 82C582.683 84.1961 583 87.3333 583 91.4118C583 95.4902 582.683 98.6471 582.049 100.882C581.457 103.078 580.442 104.647 579.005 105.588C577.568 106.49 575.538 106.941 572.917 106.941C570.719 106.941 568.901 106.647 567.464 106.059C566.068 105.431 564.99 104.392 564.229 102.941H563.849V118H557.698V76.4706ZM570.317 101.824C572.346 101.824 573.784 101.608 574.629 101.176C575.517 100.745 576.109 99.8431 576.405 98.4706C576.701 97.0588 576.849 94.7255 576.849 91.4706C576.849 88.2157 576.701 85.902 576.405 84.5294C576.109 83.1176 575.517 82.1961 574.629 81.7647C573.784 81.3333 572.346 81.1176 570.317 81.1176C568.711 81.1176 567.442 81.3529 566.512 81.8235C565.625 82.2941 564.99 83.0784 564.61 84.1765C564.272 85 564.06 85.9608 563.976 87.0588C563.891 88.1569 563.849 89.6275 563.849 91.4706C563.849 94.7647 564.06 97.0784 564.483 98.4118C564.906 99.6275 565.561 100.51 566.449 101.059C567.379 101.569 568.668 101.824 570.317 101.824Z" fill="url(#paint6_linear)"/>
<path d="M1011 597.5H398.5L185 165H782.5L1011 597.5Z" fill="#1B2440" fill-opacity="0.75"/>
<path d="M1011 597.5H398.5L185 165H782.5L1011 597.5Z" fill="url(#paint7_linear)" fill-opacity="0.2"/>
<g clip-path="url(#clip0)">
<path d="M333.965 109.533C308.485 115.636 295.826 121.348 295.987 126.668C296.217 134.336 323.201 141.192 376.941 147.235C359.439 149.181 341.789 149.37 324.25 147.802C288.71 144.588 245.129 140.684 235.228 116.606C226.307 94.8326 246.062 59.2245 283.512 32.6671L333.965 109.533Z" fill="url(#paint8_linear)" fill-opacity="0.39"/>
<path d="M264.348 114.746C256.044 100.115 270.862 72.8296 291.773 45.2346L333.951 109.504C308.471 115.607 295.811 121.319 295.973 126.639C296.202 134.307 323.187 141.163 376.926 147.206C376.926 147.206 285.318 151.621 264.348 114.746Z" fill="url(#paint9_linear)"/>
<path d="M235.235 116.606C226.313 94.8327 246.069 59.2246 283.519 32.6672L287.551 38.8156C272.378 47.6083 238.973 70.1454 234.799 99.869C233.225 111.104 236.802 119.983 242.653 126.982C239.436 124.134 236.9 120.586 235.235 116.606Z" fill="url(#paint10_linear)"/>
<path d="M332.116 140.921C253.766 131.307 315.283 102.527 315.283 102.527L329.694 102.998L333.972 109.525C308.492 115.629 299.736 120.871 299.897 126.191C300.047 131.315 308.185 136.537 332.116 140.921Z" fill="url(#paint11_linear)"/>
<path d="M283.725 51.8288C283.725 51.8288 245.937 76.6855 240.952 106.504C235.967 136.323 300.966 143.297 300.966 143.297C299.49 143.119 245.562 135.263 247.567 110.46C249.573 85.6572 305.984 68.331 305.984 68.331L283.725 51.8288Z" fill="url(#paint12_linear)"/>
<path d="M283.725 51.8288C283.725 51.8288 245.937 76.6855 240.952 106.504C235.967 136.323 300.966 143.297 300.966 143.297C299.49 143.119 245.562 135.263 247.567 110.46C249.573 85.6572 305.984 68.331 305.984 68.331L283.725 51.8288Z" fill="url(#paint13_linear)"/>
<path d="M296.059 79.6638C295.24 80.3126 271.55 83.1705 262.195 102.587C252.84 122.003 272.383 128.834 272.383 128.834C271.009 128.252 262.321 120.269 264.74 110.103C267.159 99.9376 297.49 90.2197 297.49 90.2197L296.059 79.6638Z" fill="url(#paint14_linear)"/>
<path d="M322.341 88.0043C321.435 88.5318 297.579 87.8821 285.501 105.717C273.423 123.552 291.807 133.185 291.807 133.185C290.531 132.408 283.061 123.211 286.945 113.533C290.829 103.855 322.256 98.6556 322.256 98.6556L322.341 88.0043Z" fill="url(#paint15_linear)"/>
<path d="M337.183 0.752329L337.873 64.8986L391.845 89.5741L391.221 31.5314L337.183 0.752329Z" fill="#FFB520" stroke="black" stroke-width="0.2"/>
<path d="M337.773 64.9634L284.144 90.8892L283.518 32.6315L337.081 0.579407L337.773 64.9634Z" fill="#FFB520"/>
<path d="M284.145 90.8878L333.966 109.532L391.947 89.7294L337.774 64.962L284.145 90.8878Z" fill="#FFB520"/>
<path d="M373.319 81.2148L361.132 75.643L360.468 13.898L372.67 20.8504L373.319 81.2148Z" fill="#EFDAC1"/>
<path d="M361.132 75.6423L304.051 98.3332L317.521 103.381L373.319 81.2141L361.132 75.6423Z" fill="#EFDAC1"/>
<path d="M388.981 33.8138L376.535 27.3099L376.584 31.9047L389.031 38.4085L388.981 33.8138Z" fill="#FFEAE7"/>
<path d="M389.042 39.4219L379.279 34.7733L379.328 39.3681L389.091 44.0166L389.042 39.4219Z" fill="#FFEAE7"/>
<path d="M349.856 60.7692L349.925 67.2407L341.297 63.5364L341.219 56.2668L349.856 60.7692Z" fill="#FFEAE7"/>
<path d="M304.582 98.1262L308.483 99.9972L304.05 98.3333L304.582 98.1262Z" fill="#C49D72"/>
<path d="M337.082 0.578255L355.589 11.1161C355.589 11.1161 340.659 4.08516 339.147 5.22325C337.502 6.50661 337.25 13.5568 337.241 17.4115L337.082 0.578255Z" fill="#FF9B00" fill-opacity="0.4"/>
<path d="M387.578 33.1155L389.01 33.8192L389.038 36.4509C388.623 35.3088 388.135 34.1947 387.578 33.1155V33.1155Z" fill="white" fill-opacity="0.38"/>
<path d="M376.246 82.5486C376.246 82.5486 387.922 86.9896 389.54 85.8288C391.159 84.668 391.805 76.5276 391.805 76.5276L391.947 89.7294L376.246 82.5486Z" fill="#F99837" fill-opacity="0.67"/>
<path d="M344.052 64.723L341.297 63.5373L341.263 60.3016C342.059 61.8571 342.992 63.3369 344.052 64.723V64.723Z" fill="#FFEAE7" fill-opacity="0.35"/>
<path d="M373.056 54.7463C373.056 54.7463 371.858 24.1384 371.84 22.3983C371.821 20.6582 367.576 17.9279 367.576 17.9279L372.692 20.8502L373.056 54.7463Z" fill="#FFE9CF"/>
<path d="M337.591 1.44475L338.27 64.6404L391.438 88.9483L390.824 31.7653L337.591 1.44475Z" stroke="#6F4300"/>
<path d="M338.366 65.2855L285.417 90.8304L333.974 109.002L392.715 88.9548L338.366 65.2855Z" stroke="#6F4300"/>
</g>
<defs>
<linearGradient id="paint0_linear" x1="342" y1="-3.4961" x2="46.241" y2="-20.2692" gradientUnits="userSpaceOnUse">
<stop stop-color="#FFC738"/>
<stop offset="1" stop-color="#FF9B00"/>
</linearGradient>
<linearGradient id="paint1_linear" x1="324.643" y1="82.6261" x2="772.938" y2="89.9144" gradientUnits="userSpaceOnUse">
<stop stop-color="white"/>
<stop offset="1" stop-color="white" stop-opacity="0"/>
</linearGradient>
<linearGradient id="paint2_linear" x1="441.207" y1="37.514" x2="482.671" y2="56.7306" gradientUnits="userSpaceOnUse">
<stop stop-color="#FF9B00"/>
<stop offset="1" stop-color="#FFC738"/>
</linearGradient>
<linearGradient id="paint3_linear" x1="435.459" y1="68.6196" x2="476.024" y2="109.947" gradientUnits="userSpaceOnUse">
<stop stop-color="#989898"/>
<stop offset="1" stop-color="white"/>
</linearGradient>
<linearGradient id="paint4_linear" x1="524.333" y1="71.6666" x2="561.369" y2="107.63" gradientUnits="userSpaceOnUse">
<stop stop-color="#FF9B00"/>
<stop offset="1" stop-color="#FFC738"/>
</linearGradient>
<linearGradient id="paint5_linear" x1="524.333" y1="71.6666" x2="561.369" y2="107.63" gradientUnits="userSpaceOnUse">
<stop stop-color="#FF9B00"/>
<stop offset="1" stop-color="#FFC738"/>
</linearGradient>
<linearGradient id="paint6_linear" x1="524.333" y1="71.6666" x2="561.369" y2="107.63" gradientUnits="userSpaceOnUse">
<stop stop-color="#FF9B00"/>
<stop offset="1" stop-color="#FFC738"/>
</linearGradient>
<linearGradient id="paint7_linear" x1="154" y1="375" x2="783" y2="165" gradientUnits="userSpaceOnUse">
<stop stop-color="white"/>
<stop offset="1" stop-color="white" stop-opacity="0.1"/>
</linearGradient>
<linearGradient id="paint8_linear" x1="304.013" y1="32.4468" x2="383.31" y2="153.747" gradientUnits="userSpaceOnUse">
<stop stop-color="#A7C1FF"/>
<stop offset="0.0001" stop-color="#A7C1FF"/>
<stop offset="0.078125" stop-color="#6075A9" stop-opacity="0.921967"/>
<stop offset="1" stop-color="white" stop-opacity="0.2"/>
</linearGradient>
<linearGradient id="paint9_linear" x1="332.283" y1="98.7704" x2="304.3" y2="151.939" gradientUnits="userSpaceOnUse">
<stop stop-color="#4E5F89"/>
<stop offset="1" stop-color="white" stop-opacity="0"/>
</linearGradient>
<linearGradient id="paint10_linear" x1="292.819" y1="39.3127" x2="241.851" y2="99.8325" gradientUnits="userSpaceOnUse">
<stop stop-color="white"/>
<stop offset="1" stop-color="white" stop-opacity="0"/>
</linearGradient>
<linearGradient id="paint11_linear" x1="-3296.68" y1="6341.41" x2="-4637.78" y2="7459.58" gradientUnits="userSpaceOnUse">
<stop stop-color="#3E4C6B"/>
<stop offset="1" stop-color="white" stop-opacity="0"/>
</linearGradient>
<linearGradient id="paint12_linear" x1="280.811" y1="61.1382" x2="274.953" y2="143.577" gradientUnits="userSpaceOnUse">
<stop stop-color="#91A8DA"/>
<stop offset="0.932292" stop-color="#738BC0" stop-opacity="0"/>
</linearGradient>
<linearGradient id="paint13_linear" x1="307.982" y1="61.752" x2="226.279" y2="118.145" gradientUnits="userSpaceOnUse">
<stop stop-color="#989898"/>
<stop offset="1" stop-color="white" stop-opacity="0"/>
</linearGradient>
<linearGradient id="paint14_linear" x1="297.435" y1="85.0841" x2="253.063" y2="117.286" gradientUnits="userSpaceOnUse">
<stop stop-color="#989898"/>
<stop offset="0.994792" stop-color="white" stop-opacity="0.08"/>
</linearGradient>
<linearGradient id="paint15_linear" x1="322.394" y1="92.9874" x2="278.52" y2="127.177" gradientUnits="userSpaceOnUse">
<stop stop-color="#989898"/>
<stop offset="1" stop-color="white" stop-opacity="0.11"/>
</linearGradient>
<clipPath id="clip0">
<rect width="158.992" height="148.392" fill="white" transform="matrix(-0.999942 0.0107455 0.0107455 0.999942 390.982 0)"/>
</clipPath>
</defs>
</svg>
