<svg width="49" height="38" viewBox="0 0 49 38" fill="none" xmlns="http://www.w3.org/2000/svg">
<path d="M44.4062 0H4.59378C2.06061 0 0 2.12934 0 4.74698V33.2287C0 35.8463 2.06061 37.9756 4.59378 37.9756H44.4062C46.9394 37.9756 49 35.8463 49 33.2287V4.74698C49 2.12934 46.9394 0 44.4062 0ZM44.4062 3.16462C44.6143 3.16462 44.8122 3.20922 44.9931 3.28712L24.5 21.641L4.00677 3.28712C4.18771 3.20933 4.38563 3.16462 4.59368 3.16462H44.4062ZM44.4062 34.8109H4.59378C3.74892 34.8109 3.06249 34.1017 3.06249 33.2286V6.63058L23.4966 24.9307C23.7852 25.1887 24.1426 25.3171 24.5 25.3171C24.8574 25.3171 25.2148 25.1889 25.5034 24.9307L45.9375 6.63058V33.2287C45.9374 34.1017 45.2511 34.8109 44.4062 34.8109Z" fill="#FFB520"/>
</svg>
