<svg width="100" height="101" viewBox="0 0 100 101" fill="none" xmlns="http://www.w3.org/2000/svg">
<g filter="url(#filter0_d)">
<path d="M40.4958 43.3841C48.2773 43.3841 54.6079 37.0536 54.6079 29.2721C54.6079 21.4906 48.2773 15.16 40.4958 15.16C32.7143 15.16 26.3838 21.4906 26.3838 29.2721C26.3838 37.0536 32.7143 43.3841 40.4958 43.3841Z" fill="url(#paint0_linear)"/>
<path fill-rule="evenodd" clip-rule="evenodd" d="M59.4244 48.3868C59.4272 48.3878 59.4299 48.3887 59.4319 48.3894C64.5366 50.0573 67.9863 54.8232 67.9866 60.1935V79.5934C67.9866 82.4911 65.6374 84.8402 62.7398 84.8402H18.2467C15.3491 84.8402 13 82.4911 13 79.5934V60.2578C13 54.8641 16.3197 49.6887 21.5828 48.38C23.5089 47.9011 29.2943 47.0898 29.4156 47.0898C29.9276 47.0898 30.4053 47.4072 30.5897 47.9133L39.0592 71.1514C39.5477 72.4919 41.4437 72.4919 41.9322 71.1514L50.4017 47.9133C50.6302 47.2866 51.3089 46.9502 51.9441 47.1457C51.9441 47.1457 57.5708 47.9328 59.4083 48.3817C59.4123 48.3826 59.4188 48.3849 59.4244 48.3868ZM27.2268 62.0576L26.1803 68.7439C26.1272 69.0829 25.9445 69.3816 25.6659 69.5847L25.177 69.9412C25.1007 69.9969 25.0002 70.0063 24.915 69.9656C24.8303 69.9257 24.7731 69.8429 24.7677 69.7478L24.4192 63.9811C23.7598 64.4025 23.1952 64.7338 22.5081 65.1364L21.8008 65.5507L21.9022 67.7135C21.9067 67.8003 21.8668 67.8831 21.7967 67.9342L21.3796 68.2383C21.3166 68.2842 21.2356 68.2993 21.1597 68.2792C21.1023 68.2636 21.053 68.2293 21.0186 68.1822C21.0076 68.1672 20.9984 68.1509 20.9907 68.1335L20.0624 66.0045L18.319 64.4699C18.2605 64.4186 18.2284 64.343 18.2323 64.2642C18.236 64.1861 18.2751 64.1135 18.3381 64.0676L18.7551 63.7634C18.8252 63.7123 18.9158 63.6999 18.9979 63.7301L21.0275 64.4868L21.636 63.9414C22.2302 63.4097 22.7187 62.973 23.3214 62.474L17.9363 60.3803C17.8478 60.3465 17.7856 60.2665 17.7737 60.1731C17.7613 60.0799 17.8009 59.9871 17.8773 59.9314L18.3661 59.5749C18.6447 59.3717 18.9853 59.2895 19.3257 59.3428L26.0101 60.3893L27.7248 59.1389C27.9958 58.9412 28.312 58.8026 28.6403 58.7377L28.8967 58.6995C29.1835 58.6424 29.4809 58.7584 29.6606 59.0049C29.8404 59.2514 29.86 59.57 29.7117 59.8372L29.6091 60.0469C29.441 60.3509 29.212 60.6098 28.9414 60.8072L27.2268 62.0576Z" fill="url(#paint1_linear)"/>
<path d="M43.6896 46.7026C43.3516 46.3342 42.8575 46.149 42.3576 46.149H38.629C38.1292 46.149 37.6348 46.3345 37.297 46.7026C36.7738 47.2728 36.6977 48.0965 37.0692 48.7402L39.0624 51.7449L38.1294 59.6163L39.9668 64.5042C40.146 64.9959 40.8411 64.9959 41.0203 64.5042L42.8577 59.6163L41.9247 51.7449L43.9179 48.7402C44.289 48.0965 44.2129 47.2728 43.6896 46.7026Z" fill="url(#paint2_linear)"/>
<rect x="57" y="69" width="19" height="19" fill="#20283D"/>
</g>
<defs>
<filter id="filter0_d" x="-10" y="-7" width="120" height="120" filterUnits="userSpaceOnUse" color-interpolation-filters="sRGB">
<feFlood flood-opacity="0" result="BackgroundImageFix"/>
<feColorMatrix in="SourceAlpha" type="matrix" values="0 0 0 0 0 0 0 0 0 0 0 0 0 0 0 0 0 0 127 0"/>
<feOffset dy="3"/>
<feGaussianBlur stdDeviation="5"/>
<feColorMatrix type="matrix" values="0 0 0 0 0 0 0 0 0 0 0 0 0 0 0 0 0 0 0.4 0"/>
<feBlend mode="normal" in2="BackgroundImageFix" result="effect1_dropShadow"/>
<feBlend mode="normal" in="SourceGraphic" in2="effect1_dropShadow" result="shape"/>
</filter>
<linearGradient id="paint0_linear" x1="35.7918" y1="12.248" x2="54.79" y2="21.0527" gradientUnits="userSpaceOnUse">
<stop stop-color="#FF9B00"/>
<stop offset="1" stop-color="#FFC738"/>
</linearGradient>
<linearGradient id="paint1_linear" x1="31.3288" y1="43.1949" x2="62.216" y2="64.0454" gradientUnits="userSpaceOnUse">
<stop stop-color="#FF9B00"/>
<stop offset="1" stop-color="#FFC738"/>
</linearGradient>
<linearGradient id="paint2_linear" x1="39.2749" y1="44.2172" x2="45.0635" y2="45.2647" gradientUnits="userSpaceOnUse">
<stop stop-color="#FF9B00"/>
<stop offset="1" stop-color="#FFC738"/>
</linearGradient>
</defs>
</svg>
