<svg width="100" height="118" viewBox="0 0 100 118" fill="none" xmlns="http://www.w3.org/2000/svg">
<g filter="url(#filter0_d)">
<path d="M40.4958 43.3841C48.2773 43.3841 54.6079 37.0536 54.6079 29.2721C54.6079 21.4906 48.2773 15.16 40.4958 15.16C32.7143 15.16 26.3838 21.4906 26.3838 29.2721C26.3838 37.0536 32.7143 43.3841 40.4958 43.3841Z" fill="url(#paint0_linear)"/>
<path fill-rule="evenodd" clip-rule="evenodd" d="M59.4244 48.3868C59.4272 48.3878 59.4299 48.3887 59.4319 48.3894C64.5366 50.0573 67.9863 54.8232 67.9866 60.1935V79.5934C67.9866 82.4911 65.6374 84.8402 62.7398 84.8402H18.2467C15.3491 84.8402 13 82.4911 13 79.5934V60.2578C13 54.8641 16.3197 49.6887 21.5828 48.38C23.5089 47.9011 29.2943 47.0898 29.4156 47.0898C29.9276 47.0898 30.4053 47.4072 30.5897 47.9133L39.0592 71.1514C39.5477 72.4919 41.4437 72.4919 41.9322 71.1514L50.4017 47.9133C50.6302 47.2866 51.3089 46.9502 51.9441 47.1457C51.9441 47.1457 57.5708 47.9328 59.4083 48.3817C59.4123 48.3826 59.4188 48.3849 59.4244 48.3868ZM27.2268 62.0576L26.1803 68.7439C26.1272 69.0829 25.9445 69.3816 25.6659 69.5847L25.177 69.9412C25.1007 69.9969 25.0002 70.0063 24.915 69.9656C24.8303 69.9257 24.7731 69.8429 24.7677 69.7478L24.4192 63.9811C23.7598 64.4025 23.1952 64.7338 22.5081 65.1364L21.8008 65.5507L21.9022 67.7135C21.9067 67.8003 21.8668 67.8831 21.7967 67.9342L21.3796 68.2383C21.3166 68.2842 21.2356 68.2993 21.1597 68.2792C21.1023 68.2636 21.053 68.2293 21.0186 68.1822C21.0076 68.1672 20.9984 68.1509 20.9907 68.1335L20.0624 66.0045L18.319 64.4699C18.2605 64.4186 18.2284 64.343 18.2323 64.2642C18.236 64.1861 18.2751 64.1135 18.3381 64.0676L18.7551 63.7634C18.8252 63.7123 18.9158 63.6999 18.9979 63.7301L21.0275 64.4868L21.636 63.9414C22.2302 63.4097 22.7187 62.973 23.3214 62.474L17.9363 60.3803C17.8478 60.3465 17.7856 60.2665 17.7737 60.1731C17.7613 60.0799 17.8009 59.9871 17.8773 59.9314L18.3661 59.5749C18.6447 59.3717 18.9853 59.2895 19.3257 59.3428L26.0101 60.3893L27.7248 59.1389C27.9958 58.9412 28.312 58.8026 28.6403 58.7377L28.8967 58.6995C29.1835 58.6424 29.4809 58.7584 29.6606 59.0049C29.8404 59.2514 29.86 59.57 29.7117 59.8372L29.6091 60.0469C29.441 60.3509 29.212 60.6098 28.9414 60.8072L27.2268 62.0576Z" fill="url(#paint1_linear)"/>
<path d="M43.6896 46.7026C43.3516 46.3342 42.8575 46.149 42.3576 46.149H38.629C38.1292 46.149 37.6348 46.3345 37.297 46.7026C36.7738 47.2728 36.6977 48.0965 37.0692 48.7402L39.0624 51.7449L38.1294 59.6163L39.9668 64.5042C40.146 64.9959 40.8411 64.9959 41.0203 64.5042L42.8577 59.6163L41.9247 51.7449L43.9179 48.7402C44.289 48.0965 44.2129 47.2728 43.6896 46.7026Z" fill="url(#paint2_linear)"/>
<rect x="58" y="77" width="10" height="14" fill="#232938"/>
<path fill-rule="evenodd" clip-rule="evenodd" d="M75.6622 104.281L55.0868 104.114C53.3849 104.1 52.0117 102.705 52.0256 101.005L52.261 72.084C52.2749 70.3834 53.6706 69.0113 55.3724 69.0251L68.7465 69.134L68.6879 76.33C68.6741 78.0305 70.0472 79.4252 71.7491 79.4391L78.9505 79.4977L78.7736 101.223C78.7598 102.923 77.3641 104.295 75.6622 104.281ZM71.7151 83.6196L59.3698 83.5191C58.8012 83.5144 58.3373 83.9705 58.3327 84.5387C58.328 85.1069 58.7844 85.5704 59.3531 85.5751L71.6983 85.6756C72.267 85.6802 72.7308 85.2242 72.7355 84.6559C72.7401 84.0877 72.2837 83.6242 71.7151 83.6196ZM71.6816 87.7316L59.3363 87.6311C58.7677 87.6264 58.3038 88.0825 58.2992 88.6507C58.2946 89.2189 58.751 89.6824 59.3196 89.687L71.6649 89.7875C72.2335 89.7922 72.6974 89.3361 72.702 88.7679C72.7066 88.1997 72.2502 87.7362 71.6816 87.7316ZM71.6481 91.8435L59.3029 91.743C58.7342 91.7384 58.2703 92.1944 58.2657 92.7626C58.2611 93.3309 58.7175 93.7944 59.2861 93.799L71.6314 93.8995C72.2 93.9041 72.6639 93.4481 72.6685 92.8799C72.6731 92.3117 72.2168 91.8482 71.6481 91.8435ZM67.4996 95.922L59.2694 95.855C58.7007 95.8504 58.2369 96.3064 58.2322 96.8746C58.2276 97.4428 58.684 97.9064 59.2526 97.911L67.4828 97.978C68.0515 97.9826 68.5153 97.5266 68.52 96.9584C68.5246 96.3902 68.0682 95.9266 67.4996 95.922ZM78.3951 76.9867L71.9265 76.934C71.3701 76.9295 70.9218 76.4563 70.9266 75.8785L70.9812 69.1612L78.3951 76.9867Z" fill="url(#paint3_linear)"/>
</g>
<defs>
<filter id="filter0_d" x="-10" y="-7" width="120" height="124.307" filterUnits="userSpaceOnUse" color-interpolation-filters="sRGB">
<feFlood flood-opacity="0" result="BackgroundImageFix"/>
<feColorMatrix in="SourceAlpha" type="matrix" values="0 0 0 0 0 0 0 0 0 0 0 0 0 0 0 0 0 0 127 0"/>
<feOffset dy="3"/>
<feGaussianBlur stdDeviation="5"/>
<feColorMatrix type="matrix" values="0 0 0 0 0 0 0 0 0 0 0 0 0 0 0 0 0 0 0.4 0"/>
<feBlend mode="normal" in2="BackgroundImageFix" result="effect1_dropShadow"/>
<feBlend mode="normal" in="SourceGraphic" in2="effect1_dropShadow" result="shape"/>
</filter>
<linearGradient id="paint0_linear" x1="35.7918" y1="12.248" x2="54.79" y2="21.0527" gradientUnits="userSpaceOnUse">
<stop stop-color="#FF9B00"/>
<stop offset="1" stop-color="#FFC738"/>
</linearGradient>
<linearGradient id="paint1_linear" x1="31.3288" y1="43.1949" x2="62.216" y2="64.0454" gradientUnits="userSpaceOnUse">
<stop stop-color="#FF9B00"/>
<stop offset="1" stop-color="#FFC738"/>
</linearGradient>
<linearGradient id="paint2_linear" x1="39.2749" y1="44.2172" x2="45.0635" y2="45.2647" gradientUnits="userSpaceOnUse">
<stop stop-color="#FF9B00"/>
<stop offset="1" stop-color="#FFC738"/>
</linearGradient>
<linearGradient id="paint3_linear" x1="57.4388" y1="70.4801" x2="74.805" y2="92.0872" gradientUnits="userSpaceOnUse">
<stop stop-color="#CDCDCD"/>
<stop offset="1" stop-color="white"/>
</linearGradient>
</defs>
</svg>
