<svg width="54" height="54" viewBox="0 0 54 54" fill="none" xmlns="http://www.w3.org/2000/svg">
<path d="M37.3785 21.677V21.6766C37.3786 19.7259 36.792 17.8194 35.6933 16.1983C34.5948 14.5772 33.0338 13.3144 31.2085 12.5689C29.3831 11.8234 27.3748 11.6283 25.4374 12.0082C23.4998 12.3881 21.7194 13.3261 20.3216 14.7042C18.9236 16.0824 17.971 17.839 17.585 19.752C17.199 21.6651 17.3971 23.648 18.1541 25.4498C18.911 27.2515 20.1925 28.7907 21.8358 29.8732C23.479 30.9557 25.4103 31.5332 27.3857 31.5332H27.3861C30.0336 31.5302 32.5729 30.492 34.4465 28.6448C36.3204 26.7975 37.3754 24.2917 37.3785 21.677ZM19.6307 21.6763C19.6307 20.1663 20.0848 18.6897 20.9362 17.4333C21.7877 16.1768 22.9985 15.1967 24.4161 14.6177C25.8337 14.0387 27.3939 13.8871 28.8992 14.1823C30.4045 14.4774 31.7866 15.2059 32.8708 16.2749C33.955 17.3438 34.6929 18.705 34.9917 20.1863C35.2906 21.6675 35.1373 23.2028 34.551 24.5984C33.9647 25.994 32.9714 27.1877 31.696 28.0279C30.4207 28.868 28.9208 29.3168 27.386 29.3169C25.3284 29.3146 23.3567 28.5077 21.9032 27.0747C20.4499 25.6419 19.6332 23.7004 19.6307 21.6763Z" fill="#FFB520" stroke="#FFB520" stroke-width="0.7"/>
<path d="M27.3874 3.20901L27.3843 3.20901C22.4238 3.21451 17.6662 5.17398 14.1558 8.66054C10.645 12.1474 8.66845 16.8771 8.6629 21.8124V21.814C8.6629 29.7773 12.5242 36.6336 16.6112 41.6731C20.709 46.7259 25.1492 50.096 26.5693 51.1156L27.3858 51.7019L28.2024 51.1156C29.6225 50.096 34.0626 46.7259 38.1605 41.6731C42.2475 36.6336 46.1088 29.7773 46.1088 21.814L46.1088 21.8124C46.1032 16.8771 44.1267 12.1474 40.6159 8.66054C37.1054 5.17398 32.3478 3.21451 27.3874 3.20901Z" stroke="#FFB520" stroke-width="2.8"/>
</svg>
