<svg width="58" height="58" viewBox="0 0 58 58" fill="none" xmlns="http://www.w3.org/2000/svg">
<path d="M58 5.38022C58 3.94254 57.4398 2.59069 56.4225 1.57408C54.3224 -0.524693 50.9056 -0.524693 48.8056 1.57408L45.9238 4.45419L44.2134 2.74478L38.9994 7.95553L37.9374 6.89409C36.8284 5.78577 35.3539 5.1754 33.7857 5.1754C32.2174 5.1754 30.743 5.78577 29.634 6.89409L17.5518 18.9691L19.955 21.3708L32.0372 9.29584C32.5043 8.82915 33.1252 8.57202 33.7857 8.57202C34.4462 8.57202 35.0672 8.82915 35.5342 9.29584L36.5962 10.3573L3.03431 43.8992L0 57.9628L14.0721 54.9306L55.2512 13.776L53.5406 12.0666L56.4223 9.18647C57.4397 8.16986 58 6.81812 58 5.38022ZM6.99305 44.7464L38.9994 12.759L45.2308 18.9867L13.2245 50.9741L6.99305 44.7464ZM5.5936 48.1512L9.81755 52.3727L4.43251 53.5331L5.5936 48.1512ZM47.634 16.585L41.4026 10.3573L44.2133 7.54828L50.4447 13.776L47.634 16.585ZM54.0193 6.78472L51.1375 9.66483L48.3269 6.85594L51.2087 3.97583C51.9836 3.20151 53.2445 3.20151 54.0192 3.97583C54.3945 4.35093 54.6012 4.84978 54.6012 5.38022C54.6012 5.91066 54.3946 6.40951 54.0193 6.78472Z" fill="#465371"/>
</svg>
