<svg width="50" height="50" viewBox="0 0 50 50" fill="none" xmlns="http://www.w3.org/2000/svg">
<mask id="path-1-outside-1" maskUnits="userSpaceOnUse" x="0" y="0" width="50" height="50" fill="black">
<rect fill="white" width="50" height="50"/>
<path d="M10.6829 32.8867C15.4136 38.5424 21.1084 42.9954 27.6082 46.1464C30.0829 47.3192 33.3924 48.7108 37.0796 48.9494C37.3082 48.9593 37.5269 48.9692 37.7554 48.9692C40.2301 48.9692 42.2178 48.1144 43.8378 46.3551C43.8478 46.3451 43.8676 46.3253 43.8776 46.3054C44.454 45.6096 45.11 44.9834 45.7957 44.3174C46.2628 43.8701 46.7399 43.403 47.1971 42.9259C49.314 40.7192 49.314 37.9162 47.1772 35.7792L41.2041 29.8054C40.1904 28.7518 38.9779 28.1952 37.7057 28.1952C36.4336 28.1952 35.2112 28.7518 34.1676 29.7955L30.6096 33.3539C30.2817 33.165 29.9437 32.9961 29.6257 32.837C29.2282 32.6382 28.8604 32.4494 28.5325 32.2406C25.2925 30.1831 22.3507 27.4994 19.5381 24.0503C18.1169 22.2512 17.1628 20.7403 16.4969 19.1997C17.4311 18.3548 18.3057 17.4702 19.1505 16.6054C19.4487 16.2973 19.7567 15.9891 20.0648 15.681C21.1382 14.6075 21.7146 13.3651 21.7146 12.1027C21.7146 10.8404 21.1481 9.59788 20.0648 8.52439L17.1032 5.56235C16.7553 5.21445 16.4273 4.8765 16.0894 4.52861C15.4335 3.85271 14.7477 3.15693 14.0719 2.53072C13.0482 1.52681 11.8457 1 10.5735 1C9.31134 1 8.09884 1.52681 7.03542 2.54066L3.3184 6.25813C1.96676 7.60993 1.20149 9.24999 1.04248 11.1485C0.853644 13.5241 1.29094 16.0488 2.42393 19.1003C4.16318 23.8217 6.78695 28.2051 10.6829 32.8867ZM3.46748 11.3572C3.58674 10.0352 4.09361 8.93192 5.04771 7.97771L8.74484 4.28012C9.32128 3.72349 9.95735 3.43524 10.5735 3.43524C11.1798 3.43524 11.796 3.72349 12.3625 4.3C13.0284 4.91626 13.6545 5.56235 14.3303 6.24819C14.6682 6.59608 15.0161 6.94397 15.3639 7.3018L18.3256 10.2638C18.9418 10.8801 19.2598 11.5063 19.2598 12.1226C19.2598 12.7388 18.9418 13.3651 18.3256 13.9813C18.0175 14.2894 17.7094 14.6075 17.4013 14.9157C16.477 15.85 15.6124 16.7346 14.6583 17.5795C14.6384 17.5994 14.6285 17.6093 14.6086 17.6292C13.7837 18.4542 13.9129 19.2394 14.1117 19.8358C14.1216 19.8656 14.1315 19.8855 14.1415 19.9153C14.9067 21.7542 15.9702 23.5036 17.6299 25.5909C20.6115 29.2687 23.752 32.1214 27.2106 34.318C27.638 34.5964 28.0952 34.815 28.5225 35.0337C28.9201 35.2325 29.2878 35.4214 29.6158 35.6301C29.6555 35.65 29.6853 35.6699 29.7251 35.6897C30.0531 35.8587 30.3711 35.9382 30.6891 35.9382C31.4842 35.9382 32.001 35.4313 32.17 35.2623L35.887 31.5449C36.4634 30.9683 37.0896 30.6602 37.7057 30.6602C38.4611 30.6602 39.0773 31.1274 39.4649 31.5449L45.4578 37.5286C46.6504 38.7214 46.6405 40.0135 45.428 41.2759C45.0106 41.7232 44.5733 42.1506 44.1062 42.5979C43.4105 43.2738 42.685 43.9695 42.029 44.7548C40.8861 45.9873 39.5245 46.5638 37.7654 46.5638C37.5964 46.5638 37.4175 46.5539 37.2486 46.5439C33.9887 46.3352 30.9575 45.0629 28.6816 43.9795C22.4998 40.9876 17.0733 36.7433 12.5712 31.356C8.86411 26.8931 6.36953 22.7382 4.71974 18.2852C3.69607 15.5518 3.30846 13.3551 3.46748 11.3572Z"/>
</mask>
<path d="M10.6829 32.8867C15.4136 38.5424 21.1084 42.9954 27.6082 46.1464C30.0829 47.3192 33.3924 48.7108 37.0796 48.9494C37.3082 48.9593 37.5269 48.9692 37.7554 48.9692C40.2301 48.9692 42.2178 48.1144 43.8378 46.3551C43.8478 46.3451 43.8676 46.3253 43.8776 46.3054C44.454 45.6096 45.11 44.9834 45.7957 44.3174C46.2628 43.8701 46.7399 43.403 47.1971 42.9259C49.314 40.7192 49.314 37.9162 47.1772 35.7792L41.2041 29.8054C40.1904 28.7518 38.9779 28.1952 37.7057 28.1952C36.4336 28.1952 35.2112 28.7518 34.1676 29.7955L30.6096 33.3539C30.2817 33.165 29.9437 32.9961 29.6257 32.837C29.2282 32.6382 28.8604 32.4494 28.5325 32.2406C25.2925 30.1831 22.3507 27.4994 19.5381 24.0503C18.1169 22.2512 17.1628 20.7403 16.4969 19.1997C17.4311 18.3548 18.3057 17.4702 19.1505 16.6054C19.4487 16.2973 19.7567 15.9891 20.0648 15.681C21.1382 14.6075 21.7146 13.3651 21.7146 12.1027C21.7146 10.8404 21.1481 9.59788 20.0648 8.52439L17.1032 5.56235C16.7553 5.21445 16.4273 4.8765 16.0894 4.52861C15.4335 3.85271 14.7477 3.15693 14.0719 2.53072C13.0482 1.52681 11.8457 1 10.5735 1C9.31134 1 8.09884 1.52681 7.03542 2.54066L3.3184 6.25813C1.96676 7.60993 1.20149 9.24999 1.04248 11.1485C0.853644 13.5241 1.29094 16.0488 2.42393 19.1003C4.16318 23.8217 6.78695 28.2051 10.6829 32.8867ZM3.46748 11.3572C3.58674 10.0352 4.09361 8.93192 5.04771 7.97771L8.74484 4.28012C9.32128 3.72349 9.95735 3.43524 10.5735 3.43524C11.1798 3.43524 11.796 3.72349 12.3625 4.3C13.0284 4.91626 13.6545 5.56235 14.3303 6.24819C14.6682 6.59608 15.0161 6.94397 15.3639 7.3018L18.3256 10.2638C18.9418 10.8801 19.2598 11.5063 19.2598 12.1226C19.2598 12.7388 18.9418 13.3651 18.3256 13.9813C18.0175 14.2894 17.7094 14.6075 17.4013 14.9157C16.477 15.85 15.6124 16.7346 14.6583 17.5795C14.6384 17.5994 14.6285 17.6093 14.6086 17.6292C13.7837 18.4542 13.9129 19.2394 14.1117 19.8358C14.1216 19.8656 14.1315 19.8855 14.1415 19.9153C14.9067 21.7542 15.9702 23.5036 17.6299 25.5909C20.6115 29.2687 23.752 32.1214 27.2106 34.318C27.638 34.5964 28.0952 34.815 28.5225 35.0337C28.9201 35.2325 29.2878 35.4214 29.6158 35.6301C29.6555 35.65 29.6853 35.6699 29.7251 35.6897C30.0531 35.8587 30.3711 35.9382 30.6891 35.9382C31.4842 35.9382 32.001 35.4313 32.17 35.2623L35.887 31.5449C36.4634 30.9683 37.0896 30.6602 37.7057 30.6602C38.4611 30.6602 39.0773 31.1274 39.4649 31.5449L45.4578 37.5286C46.6504 38.7214 46.6405 40.0135 45.428 41.2759C45.0106 41.7232 44.5733 42.1506 44.1062 42.5979C43.4105 43.2738 42.685 43.9695 42.029 44.7548C40.8861 45.9873 39.5245 46.5638 37.7654 46.5638C37.5964 46.5638 37.4175 46.5539 37.2486 46.5439C33.9887 46.3352 30.9575 45.0629 28.6816 43.9795C22.4998 40.9876 17.0733 36.7433 12.5712 31.356C8.86411 26.8931 6.36953 22.7382 4.71974 18.2852C3.69607 15.5518 3.30846 13.3551 3.46748 11.3572Z" fill="#FFB520"/>
<path d="M10.6829 32.8867L10.3754 33.1426L10.376 33.1434L10.6829 32.8867ZM27.6082 46.1464L27.4337 46.5063L27.4369 46.5078L27.6082 46.1464ZM37.0796 48.9494L37.0538 49.3486L37.0622 49.349L37.0796 48.9494ZM43.8378 46.3551L43.555 46.0723L43.5491 46.0781L43.5436 46.0841L43.8378 46.3551ZM43.8776 46.3054L43.5696 46.0502L43.5403 46.0855L43.5198 46.1265L43.8776 46.3054ZM45.7957 44.3174L45.5191 44.0285L45.517 44.0305L45.7957 44.3174ZM47.1971 42.9259L46.9084 42.649L46.9082 42.6491L47.1971 42.9259ZM47.1772 35.7792L46.8943 36.062L47.1772 35.7792ZM41.2041 29.8054L40.9158 30.0828L40.9212 30.0882L41.2041 29.8054ZM34.1676 29.7955L34.4505 30.0783L34.1676 29.7955ZM30.6096 33.3539L30.41 33.7005L30.6757 33.8535L30.8925 33.6367L30.6096 33.3539ZM29.6257 32.837L29.8046 32.4793L29.6257 32.837ZM28.5325 32.2406L28.7472 31.9032L28.7469 31.903L28.5325 32.2406ZM19.5381 24.0503L19.2242 24.2983L19.2281 24.3031L19.5381 24.0503ZM16.4969 19.1997L16.2286 18.903L16.016 19.0953L16.1297 19.3584L16.4969 19.1997ZM19.1505 16.6054L19.4366 16.8849L19.438 16.8836L19.1505 16.6054ZM20.0648 8.52439L19.782 8.80722L19.7833 8.80852L20.0648 8.52439ZM17.1032 5.56235L16.8203 5.84517L17.1032 5.56235ZM16.0894 4.52861L15.8024 4.80718L15.8025 4.80731L16.0894 4.52861ZM14.0719 2.53072L13.7917 2.81642L13.8 2.82413L14.0719 2.53072ZM7.03542 2.54066L6.75932 2.25107L6.75256 2.25784L7.03542 2.54066ZM3.3184 6.25813L3.60126 6.54095L3.3184 6.25813ZM1.04248 11.1485L0.643869 11.1151L0.643734 11.1168L1.04248 11.1485ZM2.42393 19.1003L2.79928 18.962L2.79892 18.9611L2.42393 19.1003ZM3.46748 11.3572L3.06908 11.3213L3.06874 11.3255L3.46748 11.3572ZM5.04771 7.97771L4.76485 7.69488L5.04771 7.97771ZM8.74484 4.28012L8.46695 3.99233L8.46198 3.99729L8.74484 4.28012ZM12.3625 4.3L12.0772 4.58035L12.0838 4.58712L12.0908 4.59357L12.3625 4.3ZM14.3303 6.24819L14.6172 5.96948L14.6152 5.96744L14.3303 6.24819ZM15.3639 7.3018L15.0771 7.58064L15.0811 7.58463L15.3639 7.3018ZM18.3256 10.2638L18.6085 9.98102L18.3256 10.2638ZM17.4013 14.9157L17.1184 14.6328L17.1169 14.6343L17.4013 14.9157ZM14.6583 17.5795L14.3931 17.28L14.384 17.2881L14.3754 17.2967L14.6583 17.5795ZM14.6086 17.6292L14.8914 17.912L14.6086 17.6292ZM14.1117 19.8358L14.4911 19.7094L14.1117 19.8358ZM14.1415 19.9153L13.762 20.0418L13.7666 20.0556L13.7722 20.069L14.1415 19.9153ZM17.6299 25.5909L17.3168 25.8399L17.3192 25.8428L17.6299 25.5909ZM27.2106 34.318L27.429 33.9828L27.4251 33.9804L27.2106 34.318ZM28.5225 35.0337L28.3403 35.3898L28.3436 35.3915L28.5225 35.0337ZM29.6158 35.6301L29.401 35.9675L29.4184 35.9786L29.4369 35.9879L29.6158 35.6301ZM29.7251 35.6897L29.9083 35.3341L29.904 35.332L29.7251 35.6897ZM32.17 35.2623L32.4528 35.5451L32.17 35.2623ZM35.887 31.5449L35.6041 31.262L35.887 31.5449ZM39.4649 31.5449L39.1717 31.817L39.1769 31.8226L39.1822 31.8279L39.4649 31.5449ZM45.4578 37.5286L45.7407 37.2458L45.7404 37.2455L45.4578 37.5286ZM45.428 41.2759L45.1395 40.9988L45.1356 41.003L45.428 41.2759ZM44.1062 42.5979L43.8295 42.3089L43.8274 42.311L44.1062 42.5979ZM42.029 44.7548L42.3223 45.0268L42.3294 45.0192L42.336 45.0112L42.029 44.7548ZM37.2486 46.5439L37.223 46.9431L37.2251 46.9432L37.2486 46.5439ZM28.6816 43.9795L28.5073 44.3395L28.5096 44.3406L28.6816 43.9795ZM12.5712 31.356L12.2635 31.6116L12.2642 31.6125L12.5712 31.356ZM4.71974 18.2852L5.09482 18.1463L5.09433 18.1449L4.71974 18.2852ZM10.376 33.1434C15.1426 38.8418 20.8822 43.3303 27.4337 46.5063L27.7827 45.7864C21.3345 42.6606 15.6846 38.243 10.9897 32.6301L10.376 33.1434ZM27.4369 46.5078C29.9209 47.6851 33.2875 49.1049 37.0538 49.3485L37.1054 48.5502C33.4974 48.3168 30.2448 46.9533 27.7795 45.7849L27.4369 46.5078ZM37.0622 49.349C37.2888 49.3588 37.5165 49.3692 37.7554 49.3692V48.5692C37.5372 48.5692 37.3276 48.5598 37.097 48.5497L37.0622 49.349ZM37.7554 49.3692C40.3376 49.3692 42.4335 48.4707 44.1321 46.626L43.5436 46.0841C42.0022 47.7581 40.1226 48.5692 37.7554 48.5692V49.3692ZM44.1207 46.6379C44.1255 46.6331 44.1429 46.6159 44.1614 46.5943C44.1779 46.575 44.2092 46.5365 44.2354 46.4843L43.5198 46.1265C43.5288 46.1085 43.5373 46.0957 43.5424 46.0887C43.5476 46.0812 43.5519 46.0761 43.554 46.0737C43.5576 46.0694 43.5601 46.0671 43.555 46.0723L44.1207 46.6379ZM44.1856 46.5606C44.7452 45.8851 45.3833 45.2756 46.0744 44.6044L45.517 44.0305C44.8367 44.6912 44.1628 45.3341 43.5696 46.0502L44.1856 46.5606ZM46.0724 44.6063C46.5414 44.1572 47.0231 43.6856 47.4859 43.2026L46.9082 42.6491C46.4567 43.1204 45.9842 43.5831 45.5191 44.0285L46.0724 44.6063ZM47.4857 43.2028C48.6036 42.0375 49.185 40.6893 49.1822 39.3256C49.1795 37.9611 48.5919 36.6283 47.46 35.4964L46.8943 36.062C47.8993 37.0671 48.38 38.2044 48.3822 39.3272C48.3845 40.451 47.9074 41.6076 46.9084 42.649L47.4857 43.2028ZM47.46 35.4964L41.487 29.5226L40.9212 30.0882L46.8943 36.062L47.46 35.4964ZM41.4924 29.5281C40.4152 28.4085 39.1028 27.7952 37.7057 27.7952V28.5952C38.853 28.5952 39.9656 29.0951 40.9159 30.0827L41.4924 29.5281ZM37.7057 27.7952C36.3094 27.7952 34.9895 28.4078 33.8848 29.5126L34.4505 30.0783C35.4329 29.0958 36.5578 28.5952 37.7057 28.5952V27.7952ZM33.8848 29.5126L30.3268 33.0711L30.8925 33.6367L34.4505 30.0783L33.8848 29.5126ZM30.8092 33.0073C30.4694 32.8116 30.1211 32.6375 29.8046 32.4793L29.4468 33.1948C29.7664 33.3546 30.0939 33.5185 30.41 33.7005L30.8092 33.0073ZM29.8046 32.4793C29.4066 32.2802 29.0558 32.0996 28.7472 31.9032L28.3177 32.5781C28.6651 32.7992 29.0498 32.9962 29.4468 33.1948L29.8046 32.4793ZM28.7469 31.903C25.5487 29.8719 22.6381 27.2188 19.8481 23.7975L19.2281 24.3031C22.0633 27.7799 25.0363 30.4943 28.318 32.5783L28.7469 31.903ZM19.852 23.8023C18.4442 22.0202 17.5118 20.5395 16.8641 19.041L16.1297 19.3584C16.8138 20.9411 17.7896 22.4821 19.2242 24.2982L19.852 23.8023ZM16.7652 19.4964C17.7094 18.6424 18.5915 17.75 19.4366 16.8849L18.8644 16.3259C18.0199 17.1903 17.1528 18.0672 16.2286 18.903L16.7652 19.4964ZM19.438 16.8836C19.7334 16.5782 20.0392 16.2724 20.3477 15.9638L19.782 15.3982C19.4743 15.7059 19.1639 16.0164 18.863 16.3273L19.438 16.8836ZM20.3477 15.9638C21.479 14.8324 22.1146 13.4931 22.1146 12.1027H21.3146C21.3146 13.237 20.7974 14.3826 19.782 15.3982L20.3477 15.9638ZM22.1146 12.1027C22.1146 10.7138 21.4901 9.37363 20.3464 8.24027L19.7833 8.80852C20.8062 9.82214 21.3146 10.9669 21.3146 12.1027H22.1146ZM20.3477 8.24157L17.386 5.27952L16.8203 5.84517L19.782 8.80722L20.3477 8.24157ZM17.386 5.27952C17.0406 4.93404 16.7147 4.59822 16.3764 4.24991L15.8025 4.80731C16.14 5.15478 16.47 5.49487 16.8203 5.84517L17.386 5.27952ZM16.3765 4.25004C15.7199 3.57349 15.0279 2.87122 14.3438 2.23731L13.8 2.82413C14.4675 3.44263 15.1471 4.13193 15.8024 4.80718L16.3765 4.25004ZM14.352 2.24514C13.264 1.17817 11.9642 0.6 10.5735 0.6V1.4C11.7271 1.4 12.8325 1.87545 13.7918 2.81631L14.352 2.24514ZM10.5735 0.6C9.19213 0.6 7.88441 1.17858 6.7594 2.25115L7.31143 2.83017C8.31327 1.87503 9.43056 1.4 10.5735 1.4V0.6ZM6.75256 2.25784L3.03554 5.9753L3.60126 6.54095L7.31828 2.82349L6.75256 2.25784ZM3.03554 5.9753C1.61761 7.39341 0.810845 9.12162 0.643872 11.1151L1.44108 11.1819C1.59214 9.37837 2.31591 7.82646 3.60126 6.54095L3.03554 5.9753ZM0.643734 11.1168C0.448939 13.5674 0.902607 16.1521 2.04895 19.2395L2.79892 18.9611C1.67927 15.9455 1.25835 13.4808 1.44122 11.1802L0.643734 11.1168ZM2.04859 19.2386C3.80647 24.0105 6.45617 28.4329 10.3754 33.1426L10.9903 32.6309C7.11773 27.9772 4.51988 23.6328 2.79928 18.962L2.04859 19.2386ZM3.86586 11.3932C3.97681 10.1634 4.44346 9.14774 5.33057 8.26053L4.76485 7.69488C3.74375 8.7161 3.19668 9.9071 3.0691 11.3213L3.86586 11.3932ZM5.33057 8.26053L9.0277 4.56294L8.46198 3.99729L4.76485 7.69488L5.33057 8.26053ZM9.0227 4.56786C9.54512 4.0634 10.0864 3.83524 10.5735 3.83524V3.03524C9.82825 3.03524 9.09744 3.38359 8.46699 3.99237L9.0227 4.56786ZM10.5735 3.83524C11.0453 3.83524 11.5644 4.05856 12.0772 4.58035L12.6478 4.01964C12.0275 3.38843 11.3142 3.03524 10.5735 3.03524V3.83524ZM12.0908 4.59357C12.7481 5.20191 13.366 5.83946 14.0454 6.52894L14.6152 5.96744C13.943 5.28523 13.3086 4.63061 12.6342 4.00643L12.0908 4.59357ZM14.0434 6.52689C14.2135 6.70206 14.386 6.87704 14.5585 7.05207C14.7314 7.22743 14.9043 7.40286 15.0771 7.58062L15.6507 7.02299C15.4757 6.84291 15.3008 6.66549 15.1283 6.49047C14.9554 6.31511 14.785 6.14221 14.6172 5.96949L14.0434 6.52689ZM15.0811 7.58463L18.0427 10.5467L18.6085 9.98102L15.6468 7.01898L15.0811 7.58463ZM18.0427 10.5467C18.6169 11.1209 18.8598 11.6513 18.8598 12.1226H19.6598C19.6598 11.3613 19.2667 10.6394 18.6085 9.98102L18.0427 10.5467ZM18.8598 12.1226C18.8598 12.5938 18.6169 13.1243 18.0427 13.6985L18.6085 14.2641C19.2667 13.6058 19.6598 12.8838 19.6598 12.1226H18.8598ZM18.0427 13.6985C17.8874 13.8539 17.7322 14.0116 17.5783 14.1679C17.4241 14.3247 17.2712 14.4801 17.1185 14.6328L17.6842 15.1985C17.8395 15.0431 17.9947 14.8854 18.1486 14.729C18.3028 14.5723 18.4557 14.4169 18.6085 14.2641L18.0427 13.6985ZM17.1169 14.6343C16.1895 15.5719 15.3351 16.4458 14.3931 17.28L14.9235 17.879C15.8896 17.0234 16.7646 16.1281 17.6857 15.197L17.1169 14.6343ZM14.3754 17.2967C14.3746 17.2975 14.369 17.3031 14.3684 17.3037C14.368 17.3041 14.3671 17.305 14.3667 17.3053C14.3656 17.3065 14.3663 17.3058 14.3652 17.3069C14.3626 17.3095 14.3646 17.3075 14.3621 17.31C14.3541 17.318 14.364 17.3081 14.3562 17.3159C14.356 17.3161 14.355 17.3171 14.3548 17.3173C14.3546 17.3175 14.3543 17.3178 14.3541 17.318C14.352 17.3201 14.3555 17.3166 14.3534 17.3187C14.3371 17.335 14.3668 17.3053 14.3506 17.3215C14.3415 17.3306 14.3541 17.318 14.3449 17.3272C14.3379 17.3342 14.3491 17.323 14.3421 17.33C14.3409 17.3312 14.3403 17.3318 14.3391 17.333C14.3305 17.3416 14.3415 17.3306 14.3327 17.3393C14.3315 17.3406 14.3306 17.3415 14.3293 17.3428C14.3288 17.3433 14.3281 17.344 14.3276 17.3445C14.3223 17.3498 14.331 17.3411 14.3257 17.3464L14.8914 17.912C14.8923 17.9112 14.8979 17.9056 14.8985 17.905C14.8988 17.9046 14.8998 17.9037 14.9001 17.9034C14.9013 17.9022 14.9006 17.9029 14.9017 17.9018C14.9043 17.8992 14.9023 17.9012 14.9048 17.8987C14.9127 17.8907 14.9028 17.9006 14.9107 17.8928C14.9109 17.8926 14.9119 17.8916 14.9121 17.8914C14.9123 17.8912 14.9126 17.8909 14.9128 17.8907C14.9149 17.8886 14.9114 17.8921 14.9135 17.89C14.9297 17.8737 14.9 17.9034 14.9163 17.8872C14.9254 17.8781 14.9128 17.8907 14.9219 17.8815C14.9289 17.8746 14.9178 17.8857 14.9248 17.8787C14.926 17.8775 14.9266 17.8769 14.9278 17.8757C14.9364 17.8671 14.9253 17.8781 14.9341 17.8694C14.9353 17.8682 14.9362 17.8672 14.9375 17.8659C14.9381 17.8654 14.9387 17.8647 14.9393 17.8642C14.9446 17.8589 14.9359 17.8676 14.9411 17.8623L14.3754 17.2967ZM14.3257 17.3464C13.8563 17.8158 13.6371 18.2987 13.5792 18.7694C13.5226 19.23 13.6254 19.642 13.7322 19.9623L14.4911 19.7094C14.3991 19.4333 14.3379 19.1544 14.3733 18.867C14.4073 18.5899 14.5359 18.2676 14.8914 17.912L14.3257 17.3464ZM13.7322 19.9623C13.7413 19.9897 13.7504 20.0122 13.7552 20.0241C13.7603 20.037 13.7612 20.0394 13.762 20.0418L14.5209 19.7889C14.5118 19.7614 14.5027 19.739 14.498 19.727C14.4928 19.7141 14.4919 19.7117 14.4911 19.7094L13.7322 19.9623ZM13.7722 20.069C14.555 21.95 15.64 23.7311 17.3168 25.8399L17.943 25.342C16.3003 23.2761 15.2585 21.5584 14.5108 19.7617L13.7722 20.069ZM17.3192 25.8428C20.3242 29.5495 23.4963 32.4328 26.9962 34.6557L27.4251 33.9804C24.0077 31.8099 20.8987 28.9878 17.9406 25.339L17.3192 25.8428ZM26.9924 34.6532C27.4423 34.9463 27.9262 35.1779 28.3403 35.3898L28.7047 34.6776C28.2641 34.4522 27.8337 34.2465 27.4289 33.9829L26.9924 34.6532ZM28.3436 35.3915C28.7417 35.5905 29.0924 35.7712 29.401 35.9675L29.8305 35.2926C29.4832 35.0715 29.0985 34.8745 28.7014 34.6759L28.3436 35.3915ZM29.4369 35.9879C29.4454 35.9921 29.4537 35.9968 29.472 36.0072C29.4885 36.0167 29.515 36.0319 29.5462 36.0475L29.904 35.332C29.8954 35.3277 29.8872 35.3231 29.8689 35.3126C29.8524 35.3032 29.8259 35.2879 29.7947 35.2723L29.4369 35.9879ZM29.5419 36.0453C29.9202 36.2402 30.3006 36.3382 30.6891 36.3382V35.5382C30.4416 35.5382 30.1859 35.4772 29.9083 35.3342L29.5419 36.0453ZM30.6891 36.3382C31.6579 36.3382 32.2765 35.7215 32.4528 35.5451L31.8871 34.9795C31.7256 35.1411 31.3105 35.5382 30.6891 35.5382V36.3382ZM32.4528 35.5451L36.1699 31.8277L35.6041 31.262L31.8871 34.9795L32.4528 35.5451ZM36.1699 31.8277C36.6981 31.2994 37.2283 31.0602 37.7057 31.0602V30.2602C36.9508 30.2602 36.2288 30.6373 35.6041 31.262L36.1699 31.8277ZM37.7057 31.0602C38.2957 31.0602 38.8128 31.4304 39.1717 31.817L39.758 31.2727C39.3418 30.8244 38.6264 30.2602 37.7057 30.2602V31.0602ZM39.1822 31.8279L45.1752 37.8116L45.7404 37.2455L39.7475 31.2618L39.1822 31.8279ZM45.1749 37.8114C45.7208 38.3574 45.9487 38.8814 45.9448 39.373C45.9409 39.8678 45.7016 40.4136 45.1395 40.9988L45.7165 41.553C46.3669 40.8758 46.7388 40.1443 46.7448 39.3793C46.7509 38.611 46.3874 37.8926 45.7407 37.2458L45.1749 37.8114ZM45.1356 41.003C44.726 41.4418 44.2953 41.8629 43.8295 42.309L44.3828 42.8868C44.8512 42.4382 45.2951 42.0046 45.7204 41.5488L45.1356 41.003ZM43.8274 42.311C43.1358 42.9829 42.394 43.694 41.722 44.4983L42.336 45.0112C42.9759 44.2451 43.6851 43.5646 44.3849 42.8848L43.8274 42.311ZM41.7357 44.4828C40.6726 45.6293 39.4193 46.1638 37.7654 46.1638V46.9638C39.6297 46.9638 41.0996 46.3453 42.3223 45.0268L41.7357 44.4828ZM37.7654 46.1638C37.6098 46.1638 37.442 46.1546 37.2721 46.1446L37.2251 46.9432C37.3931 46.9531 37.583 46.9638 37.7654 46.9638V46.1638ZM37.2741 46.1448C34.0944 45.9412 31.1209 44.6977 28.8535 43.6183L28.5096 44.3406C30.794 45.4281 33.883 46.7293 37.223 46.9431L37.2741 46.1448ZM28.8558 43.6194C22.7259 40.6527 17.3445 36.444 12.8781 31.0995L12.2642 31.6125C16.8022 37.0427 22.2736 41.3225 28.5073 44.3395L28.8558 43.6194ZM12.8789 31.1004C9.19457 26.6649 6.72589 22.5487 5.09482 18.1463L4.34465 18.4242C6.01318 22.9278 8.53365 27.1212 12.2635 31.6116L12.8789 31.1004ZM5.09433 18.1449C4.08323 15.4451 3.71337 13.3093 3.86622 11.389L3.06874 11.3255C2.90356 13.4009 3.3089 15.6585 4.34514 18.4255L5.09433 18.1449Z" fill="#465371" mask="url(#path-1-outside-1)"/>
</svg>
