<svg width="116" height="109" viewBox="0 0 116 109" fill="none" xmlns="http://www.w3.org/2000/svg">
<g filter="url(#filter0_d)">
<path d="M22.0431 42.8856V33.4979C22.0431 31.814 20.6734 30.4443 18.9897 30.4443H13.0523C11.3974 30.4443 10.0458 31.7674 10 33.4113C10.1899 35.0687 12.1096 51.9057 12.4011 57.8428C12.4888 59.6309 13.8025 60.9795 15.4567 60.9795H17.2158C16.7246 60.07 16.4451 59.0301 16.4451 57.9259V49.2743C16.4451 46.0076 18.8883 43.3023 22.0431 42.8856Z" fill="url(#paint0_linear)"/>
<path d="M22.0431 42.8856V33.4979C22.0431 31.814 20.6734 30.4443 18.9897 30.4443H13.0523C11.3974 30.4443 10.0458 31.7674 10 33.4113C10.1899 35.0687 12.1096 51.9057 12.4011 57.8428C12.4888 59.6309 13.8025 60.9795 15.4567 60.9795H17.2158C16.7246 60.07 16.4451 59.0301 16.4451 57.9259V49.2743C16.4451 46.0076 18.8883 43.3023 22.0431 42.8856Z" fill="url(#paint1_linear)"/>
<path d="M75.9897 57.9242V49.2726C75.9897 47.5889 74.6196 46.219 72.9363 46.219H22.8924C21.2087 46.219 19.8389 47.5889 19.8389 49.2726V57.9242C19.8389 59.6081 21.2087 60.9778 22.8924 60.9778H72.9363C74.6198 60.9776 75.9897 59.6079 75.9897 57.9242Z" fill="url(#paint2_linear)"/>
<path d="M75.9897 57.9242V49.2726C75.9897 47.5889 74.6196 46.219 72.9363 46.219H22.8924C21.2087 46.219 19.8389 47.5889 19.8389 49.2726V57.9242C19.8389 59.6081 21.2087 60.9778 22.8924 60.9778H72.9363C74.6198 60.9776 75.9897 59.6079 75.9897 57.9242Z" fill="url(#paint3_linear)"/>
<path d="M76.8376 30.4425C75.1539 30.4425 73.7842 31.8122 73.7842 33.4959V42.8837C76.9389 43.3003 79.3823 46.0056 79.3823 49.2723V57.924C79.3823 59.028 79.103 60.068 78.6116 60.9775H80.3707C82.0248 60.9775 83.3384 59.629 83.426 57.8409C83.7175 51.9038 85.6373 35.0668 85.8274 33.4093C85.7816 31.7653 84.4298 30.4424 82.775 30.4424H76.8376V30.4425Z" fill="url(#paint4_linear)"/>
<path d="M76.8376 30.4425C75.1539 30.4425 73.7842 31.8122 73.7842 33.4959V42.8837C76.9389 43.3003 79.3823 46.0056 79.3823 49.2723V57.924C79.3823 59.028 79.103 60.068 78.6116 60.9775H80.3707C82.0248 60.9775 83.3384 59.629 83.426 57.8409C83.7175 51.9038 85.6373 35.0668 85.8274 33.4093C85.7816 31.7653 84.4298 30.4424 82.775 30.4424H76.8376V30.4425Z" fill="url(#paint5_linear)"/>
<path d="M20.9391 64.0685C20.3106 64.2688 19.6576 64.3714 18.9891 64.3714H17.4604L14.9887 73.7795C14.7506 74.6857 15.2923 75.6133 16.1983 75.8512C16.3429 75.8892 16.4878 75.9072 16.6306 75.9072C17.3827 75.9072 18.07 75.4032 18.2701 74.6415L21.0398 64.0984C21.0063 64.0883 20.9724 64.0792 20.9391 64.0685Z" fill="url(#paint6_linear)"/>
<path d="M20.9391 64.0685C20.3106 64.2688 19.6576 64.3714 18.9891 64.3714H17.4604L14.9887 73.7795C14.7506 74.6857 15.2923 75.6133 16.1983 75.8512C16.3429 75.8892 16.4878 75.9072 16.6306 75.9072C17.3827 75.9072 18.07 75.4032 18.2701 74.6415L21.0398 64.0984C21.0063 64.0883 20.9724 64.0792 20.9391 64.0685Z" fill="url(#paint7_linear)"/>
<path d="M78.3655 64.3714H76.837C76.1683 64.3714 75.5155 64.2688 74.8869 64.0685C74.8535 64.079 74.8196 64.0885 74.7861 64.0986L77.5558 74.6415C77.7559 75.4032 78.443 75.9072 79.1953 75.9072C79.338 75.9072 79.483 75.8892 79.6275 75.8512C80.5336 75.6131 81.0753 74.6857 80.8372 73.7795L78.3655 64.3714Z" fill="url(#paint8_linear)"/>
<path d="M78.3655 64.3714H76.837C76.1683 64.3714 75.5155 64.2688 74.8869 64.0685C74.8535 64.079 74.8196 64.0885 74.7861 64.0986L77.5558 74.6415C77.7559 75.4032 78.443 75.9072 79.1953 75.9072C79.338 75.9072 79.483 75.8892 79.6275 75.8512C80.5336 75.6131 81.0753 74.6857 80.8372 73.7795L78.3655 64.3714Z" fill="url(#paint9_linear)"/>
<path d="M76.1646 8.46548C75.4623 7.73627 74.4773 7.31787 73.4621 7.31787H22.3649C21.3497 7.31787 20.3646 7.73611 19.6624 8.46564C19.013 9.1404 18.6742 10.008 18.7084 10.9085C18.8106 13.5926 19.2946 20.2802 19.8235 27.1071C22.9855 27.5177 25.4363 30.226 25.4363 33.4978V42.8279H70.3911V33.4978C70.3911 30.2651 72.7834 27.5812 75.8904 27.1217C76.4419 20.2746 77.0163 13.6031 77.1189 10.9085C77.153 10.008 76.8142 9.14024 76.1646 8.46548ZM40.5352 32.9598H39.5175C38.5806 32.9598 37.8211 32.2003 37.8211 31.2633C37.8211 30.3264 38.5806 29.5669 39.5175 29.5669H40.5352C41.4721 29.5669 42.2316 30.3264 42.2316 31.2633C42.2316 32.2003 41.4721 32.9598 40.5352 32.9598ZM40.5352 20.4064H39.5175C38.5806 20.4064 37.8211 19.6469 37.8211 18.71C37.8211 17.773 38.5806 17.0135 39.5175 17.0135H40.5352C41.4721 17.0135 42.2316 17.773 42.2316 18.71C42.2316 19.6469 41.4721 20.4064 40.5352 20.4064ZM56.3097 32.9598H55.2918C54.3549 32.9598 53.5953 32.2003 53.5953 31.2633C53.5953 30.3264 54.3549 29.5669 55.2918 29.5669H56.3097C57.2466 29.5669 58.006 30.3264 58.006 31.2633C58.006 32.2003 57.2466 32.9598 56.3097 32.9598ZM56.3097 20.4064H55.2918C54.3549 20.4064 53.5953 19.6469 53.5953 18.71C53.5953 17.773 54.3549 17.0135 55.2918 17.0135H56.3097C57.2466 17.0135 58.006 17.773 58.006 18.71C58.006 19.6469 57.2466 20.4064 56.3097 20.4064Z" fill="url(#paint10_linear)"/>
<path d="M76.1646 8.46548C75.4623 7.73627 74.4773 7.31787 73.4621 7.31787H22.3649C21.3497 7.31787 20.3646 7.73611 19.6624 8.46564C19.013 9.1404 18.6742 10.008 18.7084 10.9085C18.8106 13.5926 19.2946 20.2802 19.8235 27.1071C22.9855 27.5177 25.4363 30.226 25.4363 33.4978V42.8279H70.3911V33.4978C70.3911 30.2651 72.7834 27.5812 75.8904 27.1217C76.4419 20.2746 77.0163 13.6031 77.1189 10.9085C77.153 10.008 76.8142 9.14024 76.1646 8.46548ZM40.5352 32.9598H39.5175C38.5806 32.9598 37.8211 32.2003 37.8211 31.2633C37.8211 30.3264 38.5806 29.5669 39.5175 29.5669H40.5352C41.4721 29.5669 42.2316 30.3264 42.2316 31.2633C42.2316 32.2003 41.4721 32.9598 40.5352 32.9598ZM40.5352 20.4064H39.5175C38.5806 20.4064 37.8211 19.6469 37.8211 18.71C37.8211 17.773 38.5806 17.0135 39.5175 17.0135H40.5352C41.4721 17.0135 42.2316 17.773 42.2316 18.71C42.2316 19.6469 41.4721 20.4064 40.5352 20.4064ZM56.3097 32.9598H55.2918C54.3549 32.9598 53.5953 32.2003 53.5953 31.2633C53.5953 30.3264 54.3549 29.5669 55.2918 29.5669H56.3097C57.2466 29.5669 58.006 30.3264 58.006 31.2633C58.006 32.2003 57.2466 32.9598 56.3097 32.9598ZM56.3097 20.4064H55.2918C54.3549 20.4064 53.5953 19.6469 53.5953 18.71C53.5953 17.773 54.3549 17.0135 55.2918 17.0135H56.3097C57.2466 17.0135 58.006 17.773 58.006 18.71C58.006 19.6469 57.2466 20.4064 56.3097 20.4064Z" fill="url(#paint11_linear)"/>
<path d="M39.2346 86.4613L21.6079 78.4147V59.3286L39.2346 64.7816V86.4613Z" fill="url(#paint12_linear)"/>
<path d="M65.6968 73.6204L39.2349 86.4608V64.7811L65.6968 56.0535V73.6204Z" fill="#FFC130"/>
<path d="M21.6079 59.3282L39.2346 64.7811L65.6424 56.0535L46.9048 52.344L21.6079 59.3282Z" fill="#FF9B00"/>
<path d="M46.9077 52.3444L52.931 46.038L71.0549 49.0503L65.6453 56.0539L46.9077 52.3444Z" fill="url(#paint13_linear)"/>
<path d="M32.6045 77.0424V81.2045L35.946 82.6629V77.8578L32.6045 77.0424Z" fill="white"/>
<path d="M32.7773 77.2867L35.658 78.0236V78.1767L32.7773 77.4301V77.2867Z" fill="#303C5C"/>
<path d="M32.7773 77.626L35.658 78.3629V78.5159L32.7773 77.7693V77.626Z" fill="#303C5C"/>
<path d="M32.7773 78.0177L35.658 78.7538V78.9076L32.7773 78.1602V78.0177Z" fill="#303C5C"/>
<path d="M32.7773 78.3959L35.658 79.1328V79.2867L32.7773 78.5392V78.3959Z" fill="#303C5C"/>
<path d="M32.7773 80.1604L34.1704 80.5928L34.1663 80.7661L32.7773 80.3037V80.1604Z" fill="#303C5C"/>
<path d="M32.7773 80.4106L34.1704 80.8433L34.1663 81.0175L32.7773 80.554V80.4106Z" fill="#303C5C"/>
<path d="M32.7773 80.7151L34.1704 81.1469L34.1663 81.3211L32.7773 80.8585V80.7151Z" fill="#303C5C"/>
<path d="M46.9048 52.344V62.2174L39.2346 64.7811L21.6079 59.3282L46.9048 52.344Z" fill="#303C5C" fill-opacity="0.36"/>
<path d="M28.9797 51.516L21.6079 59.3277L39.2346 64.7807L45.2668 56.0531L28.9797 51.516Z" fill="#FFC130"/>
<path d="M26.6326 66.0863C27.0586 66.0863 27.4039 65.611 27.4039 65.0247C27.4039 64.4384 27.0586 63.9631 26.6326 63.9631C26.2066 63.9631 25.8613 64.4384 25.8613 65.0247C25.8613 65.611 26.2066 66.0863 26.6326 66.0863Z" fill="#C67800"/>
<path d="M29.8435 65.7325C29.8435 66.3188 29.4983 66.7941 29.0731 66.7941C28.6478 66.7941 28.3018 66.3188 28.3018 65.7325C28.3018 65.1462 28.647 64.6709 29.0731 64.6709C29.4991 64.6709 29.8435 65.1478 29.8435 65.7325Z" fill="#C67800"/>
<path d="M32.4119 66.444C32.4119 67.0303 32.0667 67.5065 31.6406 67.5065C31.2145 67.5065 30.8701 67.0303 30.8701 66.444C30.8701 65.8578 31.2153 65.3824 31.6406 65.3824C32.0659 65.3824 32.4119 65.8545 32.4119 66.444Z" fill="#C67800"/>
<path d="M54.4465 95.2762L43.7642 90.3996V78.833L54.4465 82.1379V95.2762Z" fill="url(#paint14_linear)"/>
<path d="M54.4465 82.1369L67.2377 76.9967C66.8603 77.1488 57.1867 74.6727 57.1867 74.6727L43.7642 78.831L54.4465 82.1369Z" fill="#C67800"/>
<path d="M43.7642 78.8326L49.7757 74.9956L60.1127 77.4386L54.4465 82.1374L43.7642 78.8326Z" fill="url(#paint15_linear)"/>
<path d="M57.1857 74.6737H52.9858L63.0341 77.1838L67.2368 76.9976L57.1857 74.6737Z" fill="url(#paint16_linear)"/>
<path d="M67.238 88.3413L54.4468 95.2771V82.1389L67.238 76.9987V88.3413Z" fill="url(#paint17_linear)"/>
<path d="M59.55 90.8884C59.55 91.1624 59.3462 91.256 59.0547 91.3845L56.0012 92.9288C55.588 93.1348 55.5059 92.7067 55.5059 92.4326V87.7206C55.5059 87.4465 55.6842 87.3813 56.0012 87.2244L59.0547 85.6802C59.702 85.3494 59.5076 86.0213 59.55 87.2924V90.8884Z" fill="#EDF2FF"/>
<path d="M55.8184 88.1848L58.8492 86.7096V86.8788L55.8184 88.405V88.1848Z" fill="#303C5C"/>
<path d="M55.8174 88.7655L58.8482 87.2893V87.4594L55.8174 88.9858V88.7655Z" fill="#303C5C"/>
<path d="M55.8174 89.417L58.8482 87.9408V88.1109L55.8174 89.6372V89.417Z" fill="#303C5C"/>
<path d="M55.8896 91.2063L57.8061 90.2736L57.8296 90.4503L55.8896 91.4275V91.2063Z" fill="#303C5C"/>
<path d="M55.8896 91.6485L57.8061 90.7157L57.8296 90.8915L55.8896 91.8687V91.6485Z" fill="#303C5C"/>
<path d="M55.8896 92.0982L57.8061 91.1655L57.8296 91.3413L55.8896 92.3183V92.0982Z" fill="#303C5C"/>
<path d="M101.964 37.9529H88.5594H87.4958L90.9 41.7826V44.9741C90.9 45.3996 89.1979 50.9314 89.1979 51.1442C89.1979 51.357 87.4958 53.9101 87.4958 54.3356C87.4958 54.7612 85.368 62.6334 85.368 63.2717C85.368 63.91 85.1552 70.9312 85.368 71.7822C85.5808 72.6333 89.836 76.2502 89.836 76.6758V79.4417C89.836 79.7821 96.7863 79.4417 100.261 79.2289V76.2502L103.453 73.9098C104.02 72.2077 105.155 68.761 105.155 68.5908C105.155 68.4205 104.446 63.4135 104.091 60.9313C103.666 59.5129 102.772 56.6335 102.602 56.4633C102.432 56.2931 100.403 51.1442 99.4104 48.591L98.5593 41.7826L101.964 37.9529Z" fill="url(#paint18_linear)"/>
<path d="M101.964 37.9529H88.5594H87.4958L90.9 41.7826V44.9741C90.9 45.3996 89.1979 50.9314 89.1979 51.1442C89.1979 51.357 87.4958 53.9101 87.4958 54.3356C87.4958 54.7612 85.368 62.6334 85.368 63.2717C85.368 63.91 85.1552 70.9312 85.368 71.7822C85.5808 72.6333 89.836 76.2502 89.836 76.6758V79.4417C89.836 79.7821 96.7863 79.4417 100.261 79.2289V76.2502L103.453 73.9098C104.02 72.2077 105.155 68.761 105.155 68.5908C105.155 68.4205 104.446 63.4135 104.091 60.9313C103.666 59.5129 102.772 56.6335 102.602 56.4633C102.432 56.2931 100.403 51.1442 99.4104 48.591L98.5593 41.7826L101.964 37.9529Z" fill="url(#paint19_linear)"/>
<path d="M105.734 66.6726C105.734 66.6726 105.734 66.6211 105.731 66.527C105.731 66.516 105.73 66.5048 105.729 66.4937C105.643 62.1522 104.073 57.8417 102.555 53.6729C101.075 49.6085 99.6742 45.7628 99.5956 42.0044L102.798 38.5361C103.028 38.2869 103.089 37.9249 102.952 37.6141C102.816 37.3033 102.509 37.1025 102.17 37.1025H87.7198C87.3805 37.1025 87.0735 37.3033 86.9374 37.6141C86.8013 37.9249 86.8621 38.2867 87.0922 38.536L90.2935 42.0043C90.266 43.3045 88.828 48.9413 88.4687 50.4908C88.3621 50.9504 88.0663 53.3788 88.5257 53.4853C88.9852 53.592 89.9792 51.5013 90.0857 51.0418C90.428 49.5657 91.9226 43.8044 91.9843 42.5283H97.9056C97.9617 43.6688 98.1252 44.8165 98.3642 45.9664C96.3949 44.7521 94.1032 44.7422 93.9863 44.7431C93.517 44.7448 93.1371 45.1248 93.1353 45.5941C93.1348 45.7322 93.1469 49.0019 95.2356 51.0907C97.0807 52.9357 99.8453 53.1602 100.561 53.1872C100.69 53.5449 100.82 53.9016 100.95 54.2573C101.723 56.3805 102.51 58.5416 103.094 60.7037C101.026 59.0896 98.2625 59.0807 98.1361 59.0779C97.6668 59.0796 97.2868 59.4596 97.2851 59.9289C97.2846 60.0671 97.2966 63.3375 99.3854 65.4262C99.9301 65.971 100.558 66.3735 101.19 66.6723C100.558 66.9713 99.9303 67.3736 99.3854 67.9185C97.2966 70.0073 97.2846 73.2768 97.2851 73.4151C97.2868 73.8844 97.6669 74.2644 98.1361 74.2661H98.1415C98.3162 74.2661 100.739 74.2397 102.728 72.9052C101.597 74.9138 100.088 75.4113 99.757 75.4986H90.1349C89.5673 75.3476 85.8647 74.0846 85.8647 66.8705C85.8647 66.4371 85.8825 66.0023 85.9145 65.5666C86.2148 66.2067 86.6217 66.8442 87.1758 67.3986C89.2422 69.4649 92.4652 69.4989 92.6677 69.4989H92.6731C93.1425 69.4971 93.5224 69.1171 93.5241 68.6479C93.5246 68.5097 93.5126 65.2393 91.4238 63.1506C90.879 62.6058 90.2514 62.2033 89.6194 61.9044C90.2513 61.6055 90.8789 61.2031 91.4238 60.6582C93.5126 58.5694 93.5247 55.2999 93.5241 55.1616C93.5224 54.6923 93.1424 54.3123 92.6731 54.3106C92.5616 54.3105 90.4393 54.3194 88.5257 55.3977C88.6633 55.0166 88.8018 54.6364 88.9398 54.2575C89.3237 53.203 89.7208 52.1127 90.0857 51.0418C90.2378 50.5952 89.9992 50.11 89.5527 49.9578C89.106 49.8057 88.6209 50.0443 88.4687 50.4908C88.1095 51.5448 87.7155 52.6267 87.3345 53.6729C85.772 57.9639 84.1562 62.4007 84.1562 66.8706C84.1562 70.6385 85.082 73.5098 86.9079 75.4047C87.7568 76.2856 88.6071 76.7439 89.1814 76.9751V79.2263C89.1814 79.698 89.5639 80.0805 90.0356 80.0805H99.8544C100.326 80.0805 100.709 79.6981 100.709 79.2263V76.9751C101.283 76.7438 102.133 76.2856 102.982 75.4047C104.808 73.5097 105.734 70.6384 105.734 66.8706C105.734 66.8215 105.734 66.7722 105.733 66.723C105.734 66.6899 105.734 66.6726 105.734 66.6726ZM98.364 40.82H91.5251L89.6707 38.8108H100.219L98.364 40.82ZM96.4437 49.8827C95.4533 48.8923 95.0758 47.4693 94.9322 46.54C95.8621 46.6839 97.2846 47.0613 98.2749 48.0516C99.2664 49.043 99.6436 50.4682 99.787 51.3974C98.8602 51.2559 97.4412 50.8803 96.4437 49.8827ZM88.3836 57.6192C89.3752 56.6276 90.8008 56.2505 91.7303 56.1071C91.5889 57.0339 91.2133 58.4529 90.2157 59.4504C89.2255 60.4406 87.8025 60.8181 86.8723 60.9619C87.0163 60.032 87.3939 58.6094 88.3836 57.6192ZM90.2157 64.3587C91.2063 65.3493 91.5837 66.7729 91.7274 67.7025C90.7972 67.5587 89.3741 67.1814 88.3837 66.191C87.3936 65.2004 87.0161 63.777 86.8722 62.8474C87.8024 62.9911 89.2255 63.3686 90.2157 64.3587ZM99.0002 78.3724H90.8898V77.2072H99.0002V78.3724ZM100.593 64.2186C99.6016 63.2268 99.2245 61.8012 99.0812 60.8719C100.008 61.0132 101.428 61.3889 102.425 62.3864C103.418 63.3791 103.795 64.8058 103.938 65.7301C103.007 65.5862 101.584 65.2089 100.593 64.2186ZM102.425 70.9579C101.434 71.9495 100.008 72.3266 99.0787 72.47C99.2201 71.5432 99.5957 70.1242 100.593 69.1267C101.584 68.1359 103.008 67.7586 103.939 67.615C103.796 68.5423 103.42 69.9631 102.425 70.9579Z" fill="url(#paint20_linear)"/>
<path d="M79.5333 88.3178H87.0141C89.5368 87.2275 91.255 85.069 91.255 82.5839C91.255 78.9997 87.6816 76.0941 83.2738 76.0941C78.8659 76.0941 75.2925 78.9997 75.2925 82.5839C75.2925 85.069 77.0105 87.2275 79.5333 88.3178Z" fill="#C5D3DD"/>
<path d="M79.5333 88.3178H87.0141C89.5368 87.2275 91.255 85.069 91.255 82.5839C91.255 78.9997 87.6816 76.0941 83.2738 76.0941C78.8659 76.0941 75.2925 78.9997 75.2925 82.5839C75.2925 85.069 77.0105 87.2275 79.5333 88.3178Z" fill="url(#paint21_linear)"/>
<path d="M83.2737 76.0941C82.7776 76.0941 82.2923 76.1312 81.8213 76.2017C85.5357 76.757 88.3501 79.4031 88.3501 82.5839C88.3501 85.069 86.632 87.2275 84.1093 88.3178H87.0141C89.5368 87.2275 91.2549 85.069 91.2549 82.5839C91.2549 78.9997 87.6815 76.0941 83.2737 76.0941Z" fill="#B6C4CF"/>
<path d="M83.2737 76.0941C82.7776 76.0941 82.2923 76.1312 81.8213 76.2017C85.5357 76.757 88.3501 79.4031 88.3501 82.5839C88.3501 85.069 86.632 87.2275 84.1093 88.3178H87.0141C89.5368 87.2275 91.2549 85.069 91.2549 82.5839C91.2549 78.9997 87.6815 76.0941 83.2737 76.0941Z" fill="url(#paint22_linear)"/>
<path d="M86.6204 88.3182H79.9278C79.2919 88.3182 78.7764 88.8146 78.7764 89.427C78.7764 90.0394 79.2919 90.5357 79.9278 90.5357H86.6204C87.2563 90.5357 87.7718 90.0394 87.7718 89.427C87.7718 88.8147 87.2562 88.3182 86.6204 88.3182Z" fill="#9FACBA"/>
<path d="M86.6204 88.3182H79.9278C79.2919 88.3182 78.7764 88.8146 78.7764 89.427C78.7764 90.0394 79.2919 90.5357 79.9278 90.5357H86.6204C87.2563 90.5357 87.7718 90.0394 87.7718 89.427C87.7718 88.8147 87.2562 88.3182 86.6204 88.3182Z" fill="url(#paint23_linear)"/>
<path d="M85.2549 76.5628H81.292C80.6682 76.5628 80.1626 76.0758 80.1626 75.4752C80.1626 74.8746 80.6683 74.3877 81.292 74.3877H85.2549C85.8787 74.3877 86.3843 74.8746 86.3843 75.4752C86.3843 76.0759 85.8787 76.5628 85.2549 76.5628Z" fill="#9FACBA"/>
<path d="M85.2549 76.5628H81.292C80.6682 76.5628 80.1626 76.0758 80.1626 75.4752C80.1626 74.8746 80.6683 74.3877 81.292 74.3877H85.2549C85.8787 74.3877 86.3843 74.8746 86.3843 75.4752C86.3843 76.0759 85.8787 76.5628 85.2549 76.5628Z" fill="url(#paint24_linear)"/>
<path d="M74.8113 56.379L74.8113 56.379C74.8776 56.0259 75.2048 55.7546 75.6036 55.7546H90.5886C90.9874 55.7546 91.3146 56.0259 91.3809 56.379L91.3809 56.379L94.6801 73.9405L94.6801 73.9405C94.7644 74.389 94.4027 74.8272 93.8878 74.8272H72.3043C71.7895 74.8272 71.4278 74.389 71.512 73.9405L74.8113 56.379Z" fill="url(#paint25_linear)" stroke="#172340" stroke-width="0.5"/>
</g>
<defs>
<filter id="filter0_d" x="0" y="-5" width="120" height="120" filterUnits="userSpaceOnUse" color-interpolation-filters="sRGB">
<feFlood flood-opacity="0" result="BackgroundImageFix"/>
<feColorMatrix in="SourceAlpha" type="matrix" values="0 0 0 0 0 0 0 0 0 0 0 0 0 0 0 0 0 0 127 0"/>
<feOffset dy="3"/>
<feGaussianBlur stdDeviation="5"/>
<feColorMatrix type="matrix" values="0 0 0 0 0 0 0 0 0 0 0 0 0 0 0 0 0 0 0.4 0"/>
<feBlend mode="normal" in2="BackgroundImageFix" result="effect1_dropShadow"/>
<feBlend mode="normal" in="SourceGraphic" in2="effect1_dropShadow" result="shape"/>
</filter>
<linearGradient id="paint0_linear" x1="14.0144" y1="27.2939" x2="23.5436" y2="29.0357" gradientUnits="userSpaceOnUse">
<stop stop-color="#FF9B00"/>
<stop offset="1" stop-color="#FFC738"/>
</linearGradient>
<linearGradient id="paint1_linear" x1="12.3252" y1="31.2709" x2="26.7063" y2="40.036" gradientUnits="userSpaceOnUse">
<stop stop-color="#CDCDCD"/>
<stop offset="1" stop-color="white"/>
</linearGradient>
<linearGradient id="paint2_linear" x1="38.5558" y1="44.6963" x2="49.73" y2="64.3989" gradientUnits="userSpaceOnUse">
<stop stop-color="#FF9B00"/>
<stop offset="1" stop-color="#FFC738"/>
</linearGradient>
<linearGradient id="paint3_linear" x1="30.6802" y1="46.6185" x2="33.2657" y2="61.8198" gradientUnits="userSpaceOnUse">
<stop stop-color="#CDCDCD"/>
<stop offset="1" stop-color="white"/>
</linearGradient>
<linearGradient id="paint4_linear" x1="77.7986" y1="27.2919" x2="87.3279" y2="29.0337" gradientUnits="userSpaceOnUse">
<stop stop-color="#FF9B00"/>
<stop offset="1" stop-color="#FFC738"/>
</linearGradient>
<linearGradient id="paint5_linear" x1="76.1094" y1="31.2689" x2="90.4906" y2="40.0342" gradientUnits="userSpaceOnUse">
<stop stop-color="#CDCDCD"/>
<stop offset="1" stop-color="white"/>
</linearGradient>
<linearGradient id="paint6_linear" x1="16.9683" y1="62.847" x2="21.6922" y2="63.9764" gradientUnits="userSpaceOnUse">
<stop stop-color="#FF9B00"/>
<stop offset="1" stop-color="#FFC738"/>
</linearGradient>
<linearGradient id="paint7_linear" x1="16.1118" y1="64.3889" x2="22.2272" y2="69.2641" gradientUnits="userSpaceOnUse">
<stop stop-color="#CDCDCD"/>
<stop offset="1" stop-color="white"/>
</linearGradient>
<linearGradient id="paint8_linear" x1="76.8219" y1="62.847" x2="81.5457" y2="63.9764" gradientUnits="userSpaceOnUse">
<stop stop-color="#FF9B00"/>
<stop offset="1" stop-color="#FFC738"/>
</linearGradient>
<linearGradient id="paint9_linear" x1="75.9653" y1="64.3889" x2="82.0808" y2="69.2641" gradientUnits="userSpaceOnUse">
<stop stop-color="#CDCDCD"/>
<stop offset="1" stop-color="white"/>
</linearGradient>
<linearGradient id="paint10_linear" x1="38.1778" y1="3.65412" x2="68.3857" y2="26.6843" gradientUnits="userSpaceOnUse">
<stop stop-color="#FF9B00"/>
<stop offset="1" stop-color="#FFC738"/>
</linearGradient>
<linearGradient id="paint11_linear" x1="29.9846" y1="8.27906" x2="42.8044" y2="40.869" gradientUnits="userSpaceOnUse">
<stop stop-color="#CDCDCD"/>
<stop offset="1" stop-color="white"/>
</linearGradient>
<linearGradient id="paint12_linear" x1="47.4421" y1="77.2404" x2="45.0456" y2="90.3469" gradientUnits="userSpaceOnUse">
<stop stop-color="#FF9B00"/>
<stop offset="1" stop-color="#FFC738"/>
</linearGradient>
<linearGradient id="paint13_linear" x1="49.4581" y1="46.038" x2="70.3906" y2="49.8383" gradientUnits="userSpaceOnUse">
<stop stop-color="#FF9B00"/>
<stop offset="1" stop-color="#FFC738"/>
</linearGradient>
<linearGradient id="paint14_linear" x1="57.4933" y1="78.461" x2="60.7332" y2="91.0581" gradientUnits="userSpaceOnUse">
<stop stop-color="#FF9B00"/>
<stop offset="1" stop-color="#FFC738"/>
</linearGradient>
<linearGradient id="paint15_linear" x1="49.2137" y1="74.2587" x2="55.5031" y2="80.9311" gradientUnits="userSpaceOnUse">
<stop stop-color="#FF9B00"/>
<stop offset="1" stop-color="#FFC738"/>
</linearGradient>
<linearGradient id="paint16_linear" x1="57.7361" y1="74.4147" x2="59.2069" y2="78.2845" gradientUnits="userSpaceOnUse">
<stop stop-color="#FF9B00"/>
<stop offset="1" stop-color="#FFC738"/>
</linearGradient>
<linearGradient id="paint17_linear" x1="58.7105" y1="75.1128" x2="68.1744" y2="78.1821" gradientUnits="userSpaceOnUse">
<stop stop-color="#FF9B00"/>
<stop offset="1" stop-color="#FFC738"/>
</linearGradient>
<linearGradient id="paint18_linear" x1="91.9006" y1="33.6574" x2="107.399" y2="37.0873" gradientUnits="userSpaceOnUse">
<stop stop-color="#FF9B00"/>
<stop offset="1" stop-color="#FFC738"/>
</linearGradient>
<linearGradient id="paint19_linear" x1="89.1121" y1="39.0798" x2="110.192" y2="54.6364" gradientUnits="userSpaceOnUse">
<stop stop-color="#CDCDCD"/>
<stop offset="1" stop-color="white"/>
</linearGradient>
<linearGradient id="paint20_linear" x1="91.3488" y1="32.6683" x2="108.086" y2="36.5628" gradientUnits="userSpaceOnUse">
<stop stop-color="#FF9B00"/>
<stop offset="1" stop-color="#FFC738"/>
</linearGradient>
<linearGradient id="paint21_linear" x1="78.3744" y1="76.425" x2="83.5283" y2="86.8255" gradientUnits="userSpaceOnUse">
<stop stop-color="#CDCDCD"/>
<stop offset="1" stop-color="white"/>
</linearGradient>
<linearGradient id="paint22_linear" x1="92.9365" y1="86.7038" x2="87.5925" y2="80.8646" gradientUnits="userSpaceOnUse">
<stop stop-color="#CDCDCD"/>
<stop offset="1" stop-color="white"/>
</linearGradient>
<linearGradient id="paint23_linear" x1="80.5132" y1="88.3783" x2="80.8787" y2="90.67" gradientUnits="userSpaceOnUse">
<stop stop-color="#CDCDCD"/>
<stop offset="1" stop-color="white"/>
</linearGradient>
<linearGradient id="paint24_linear" x1="81.3639" y1="74.4466" x2="81.8599" y2="76.6395" gradientUnits="userSpaceOnUse">
<stop stop-color="#CDCDCD"/>
<stop offset="1" stop-color="white"/>
</linearGradient>
<linearGradient id="paint25_linear" x1="94.9958" y1="78.7652" x2="76.1039" y2="80.5011" gradientUnits="userSpaceOnUse">
<stop stop-color="#FF9B00"/>
<stop offset="1" stop-color="#FFC738"/>
</linearGradient>
</defs>
</svg>
