<svg width="7" height="32" viewBox="0 0 7 32" fill="none" xmlns="http://www.w3.org/2000/svg">
<path d="M6.3913 0L7 0.80447L4.6413 21.0503L2.20652 21.5419L1.59783 20.9609L0.836957 1.74302L1.29348 0.983241L6.3913 0ZM2.81522 32C1.90217 32 1.20471 31.7021 0.722826 31.1061C0.240942 30.4804 0 29.6462 0 28.6033C0 27.5307 0.278986 26.6518 0.836957 25.9665C1.39493 25.2812 2.14312 24.9385 3.08152 24.9385C3.9692 24.9385 4.66667 25.2514 5.17391 25.8771C5.68116 26.473 5.93478 27.2775 5.93478 28.2905C5.93478 29.3929 5.64312 30.2868 5.05978 30.9721C4.50181 31.6574 3.75362 32 2.81522 32Z" fill="url(#paint0_linear)"/>
<defs>
<linearGradient id="paint0_linear" x1="-2.35433e-07" y1="0.0796569" x2="5.88113" y2="-0.0448708" gradientUnits="userSpaceOnUse">
<stop stop-color="#FFC738"/>
<stop offset="1" stop-color="#FF9B00"/>
</linearGradient>
</defs>
</svg>
